<?xml version="1.0" encoding="UTF-8"?><svg id="Calque_1" xmlns="http://www.w3.org/2000/svg" viewBox="0 0 804.74 201.13"><defs><style>.cls-1{fill:#91130b;}.cls-1,.cls-2{stroke-width:0px;}.cls-2{fill:#e6e6e6;}</style></defs><rect class="cls-2" x="0" y="0" width="804.74" height="201.13"/><polygon class="cls-1" points="383.45 106.85 379.48 106.85 379.48 87.27 383.45 87.27 383.45 97.49 387.24 93.16 392.25 93.16 387.19 98.8 392.47 106.85 387.64 106.85 384.37 101.65 383.45 102.66 383.45 106.85"/><path class="cls-1" d="M397.72,102.58c0,.35.16.65.47.88.32.23.73.35,1.23.35.89,0,1.71-.28,2.46-.84v-1.56c-.71-.17-1.32-.25-1.84-.25-.73,0-1.3.12-1.7.37-.41.25-.61.6-.61,1.05M398.48,107.16c-1.44,0-2.59-.4-3.45-1.2-.87-.8-1.3-1.84-1.3-3.13,0-1.42.52-2.5,1.56-3.27,1.04-.76,2.33-1.14,3.86-1.14.89,0,1.81.13,2.74.39v-.23c0-.67-.21-1.21-.62-1.62-.41-.41-.97-.61-1.68-.61-1.27,0-2.25.53-2.93,1.59l-2.52-2.4c1.51-1.81,3.42-2.71,5.73-2.71,1.71,0,3.15.49,4.3,1.48,1.14.97,1.7,2.3,1.7,3.99v8.55h-3.94v-.89c-.91.8-2.07,1.2-3.46,1.2"/><path class="cls-1" d="M410.38,106.43c-.45-.47-.67-1.04-.67-1.7s.22-1.24.67-1.7c.47-.47,1.03-.7,1.7-.7s1.24.23,1.7.7c.49.47.73,1.03.73,1.7s-.24,1.24-.73,1.7c-.47.47-1.03.7-1.7.7s-1.24-.23-1.7-.7M410.38,97.07c-.45-.47-.67-1.03-.67-1.7s.22-1.24.67-1.7c.47-.47,1.03-.7,1.7-.7s1.24.23,1.7.7c.49.47.73,1.04.73,1.7s-.24,1.24-.73,1.7c-.47.47-1.03.7-1.7.7s-1.24-.23-1.7-.7"/><path class="cls-1" d="M424.35,102.07l-1.82-.45c-2.98-.75-4.47-2.23-4.47-4.47,0-1.3.51-2.35,1.54-3.13,1.02-.8,2.28-1.2,3.77-1.2,2.07,0,3.9.72,5.5,2.15l-2.43,2.57c-1.1-.89-2.18-1.34-3.24-1.34-.39,0-.7.08-.94.24-.23.16-.35.35-.35.57,0,.33.33.58.98.73l2.04.47c3,.71,4.5,2.22,4.5,4.53,0,1.3-.52,2.37-1.56,3.18-1.04.82-2.43,1.23-4.16,1.23-1.23,0-2.39-.25-3.48-.76-1.09-.5-1.93-1.14-2.53-1.9l2.43-2.49c1.25,1.21,2.55,1.82,3.91,1.82.41,0,.77-.08,1.08-.25.31-.17.46-.38.46-.64,0-.37-.41-.66-1.23-.87"/><path class="cls-1" d="M438.01,96.32c-.69,0-1.26.19-1.72.56-.46.37-.75.87-.88,1.48h4.92c-.04-.58-.27-1.06-.7-1.45-.43-.39-.97-.59-1.62-.59M444.52,99.84l-.03,1.17h-9.28c.11.75.44,1.35.99,1.82s1.24.7,2.08.7c1.4,0,2.52-.53,3.35-1.59l2.63,2.46c-1.47,1.85-3.43,2.77-5.87,2.77-2.07,0-3.79-.64-5.17-1.93-1.36-1.3-2.04-3.02-2.04-5.14s.63-3.83,1.87-5.2c1.27-1.38,2.89-2.06,4.86-2.06,2.09,0,3.71.7,4.86,2.09,1.16,1.42,1.73,3.06,1.73,4.92"/><path class="cls-1" d="M451.22,100v6.85h-3.97v-13.69h3.91v.95c.88-.86,1.96-1.28,3.24-1.28,1.71,0,3.07.53,4.08,1.61,1.01,1.07,1.51,2.55,1.51,4.46v7.96h-3.99v-7.66c0-.82-.19-1.47-.57-1.96-.38-.48-.94-.73-1.69-.73-1.68,0-2.51,1.17-2.51,3.49"/><rect class="cls-1" x="472.26" y="87.27" width="2.07" height="19.58"/><path class="cls-1" d="M481.37,106.85h-2.07v-13.69h2.07v13.69ZM479.22,89.61c-.3-.32-.45-.69-.45-1.12s.15-.79.45-1.09c.32-.3.69-.45,1.12-.45s.79.15,1.09.45c.32.3.48.66.48,1.09s-.16.8-.48,1.12c-.3.3-.66.45-1.09.45s-.8-.15-1.12-.45"/><path class="cls-1" d="M486.37,93.16h2.01v1.68c.47-.6,1.09-1.08,1.89-1.45.79-.37,1.61-.56,2.45-.56,1.75,0,3.1.52,4.04,1.58.94,1.05,1.41,2.55,1.41,4.48v7.96h-2.09v-8.13c0-1.27-.31-2.25-.92-2.94-.61-.69-1.47-1.03-2.57-1.03-1.32,0-2.34.47-3.06,1.41-.72.94-1.08,2.24-1.08,3.9v6.79h-2.07v-13.69Z"/><path class="cls-1" d="M513.8,106.85h-1.98v-1.73c-1.06,1.36-2.51,2.04-4.33,2.04-3.43,0-5.14-2.01-5.14-6.04v-7.96h2.07v8.05c0,2.66,1.12,3.99,3.35,3.99,1.3,0,2.29-.45,2.96-1.35.67-.9,1.01-2.21,1.01-3.9v-6.79h2.07v13.69Z"/><polygon class="cls-1" points="526.6 93.16 523.19 98.27 519.81 93.16 517.32 93.16 521.91 99.81 516.99 106.85 519.47 106.85 523.19 101.32 526.93 106.85 529.42 106.85 524.5 99.81 529.09 93.16 526.6 93.16"/><rect class="cls-1" x="379.15" y="113.46" width=".62" height="3.68"/><polygon class="cls-1" points="381.82 114.54 381.82 117.13 381.2 117.13 381.2 113.46 381.82 113.46 383.64 116.06 383.64 113.46 384.27 113.46 384.27 117.13 383.64 117.13 381.82 114.54"/><polygon class="cls-1" points="385.69 117.13 385.69 113.46 388.1 113.46 388.1 114.02 386.32 114.02 386.32 114.97 387.98 114.97 387.98 115.54 386.32 115.54 386.32 117.13 385.69 117.13"/><path class="cls-1" d="M389.88,114.02v1.28h.7c.52,0,.85-.17.85-.64,0-.45-.33-.64-.85-.64h-.7ZM390.64,115.88h-.76v1.25h-.62v-3.68h1.4c.85,0,1.4.43,1.4,1.2,0,.55-.28.94-.75,1.12l.84,1.36h-.74l-.77-1.25Z"/><path class="cls-1" d="M394.09,115.77h1.12l-.56-1.47-.56,1.47ZM396.4,117.13h-.66l-.31-.78h-1.57l-.3.78h-.66l1.44-3.68h.63l1.43,3.68Z"/><path class="cls-1" d="M398.39,115.54c-.69-.12-1.1-.49-1.1-1.09,0-.65.6-1.05,1.3-1.05.65,0,1.06.28,1.36.59l-.43.46c-.2-.25-.5-.48-.95-.48s-.64.25-.64.47c0,.25.16.43.61.5l.37.06c.81.13,1.17.55,1.17,1.13s-.52,1.06-1.41,1.06c-.68,0-1.16-.32-1.46-.7l.42-.43c.23.29.53.57,1.12.57.47,0,.7-.21.7-.49,0-.24-.15-.45-.6-.52l-.45-.07Z"/><polygon class="cls-1" points="403.9 113.46 403.9 114.02 402.78 114.02 402.78 117.13 402.15 117.13 402.15 114.02 401.06 114.02 401.06 113.46 403.9 113.46"/><path class="cls-1" d="M405.64,114.02v1.28h.7c.52,0,.85-.17.85-.64,0-.45-.32-.64-.85-.64h-.7ZM406.4,115.88h-.76v1.25h-.62v-3.68h1.4c.85,0,1.4.43,1.4,1.2,0,.55-.28.94-.75,1.12l.84,1.36h-.74l-.77-1.25Z"/><path class="cls-1" d="M411.25,113.46h.63v2.04c0,1.12-.6,1.69-1.48,1.69s-1.48-.57-1.48-1.69v-2.04h.63v2.05c0,.68.24,1.12.85,1.12s.85-.44.85-1.12v-2.04Z"/><path class="cls-1" d="M416.28,116.5c-.33.41-.77.69-1.46.69-1.1,0-1.92-.77-1.92-1.89s.82-1.9,1.9-1.9c.65,0,1.12.27,1.43.69l-.4.42c-.21-.31-.54-.54-1.02-.54-.72,0-1.27.56-1.27,1.33s.55,1.32,1.29,1.32c.47,0,.81-.21,1.06-.55l.39.43Z"/><polygon class="cls-1" points="419.88 113.46 419.88 114.02 418.76 114.02 418.76 117.13 418.13 117.13 418.13 114.02 417.04 114.02 417.04 113.46 419.88 113.46"/><path class="cls-1" d="M423.28,113.46h.63v2.04c0,1.12-.6,1.69-1.48,1.69s-1.48-.57-1.48-1.69v-2.04h.63v2.05c0,.68.24,1.12.85,1.12s.85-.44.85-1.12v-2.04Z"/><path class="cls-1" d="M425.83,114.02v1.28h.7c.52,0,.85-.17.85-.64,0-.45-.33-.64-.85-.64h-.7ZM426.59,115.88h-.76v1.25h-.62v-3.68h1.4c.85,0,1.4.43,1.4,1.2,0,.55-.28.94-.75,1.12l.84,1.36h-.74l-.77-1.25Z"/><polygon class="cls-1" points="429.22 113.46 431.8 113.46 431.8 114.02 429.84 114.02 429.84 114.97 431.71 114.97 431.71 115.54 429.84 115.54 429.84 116.57 431.8 116.57 431.8 117.13 429.22 117.13 429.22 113.46"/><polygon class="cls-1" points="438.63 113.46 439.3 113.46 438.35 117.13 437.66 117.13 436.97 114.47 436.28 117.13 435.6 117.13 434.64 113.46 435.3 113.46 435.94 116.14 436.61 113.46 437.33 113.46 438.01 116.14 438.63 113.46"/><path class="cls-1" d="M441.92,116.62c.71,0,1.22-.57,1.22-1.33s-.51-1.32-1.22-1.32-1.24.58-1.24,1.32.51,1.33,1.24,1.33M441.9,113.4c1.05,0,1.87.82,1.87,1.89s-.82,1.9-1.87,1.9-1.86-.82-1.86-1.9.8-1.89,1.86-1.89"/><path class="cls-1" d="M445.57,114.02v1.28h.7c.52,0,.85-.17.85-.64,0-.45-.32-.64-.85-.64h-.7ZM446.33,115.88h-.76v1.25h-.62v-3.68h1.4c.85,0,1.4.43,1.4,1.2,0,.55-.28.94-.75,1.12l.84,1.36h-.74l-.77-1.25Z"/><polygon class="cls-1" points="448.96 113.46 449.59 113.46 449.59 115.17 450.96 113.46 451.74 113.46 450.5 115.01 451.86 117.13 451.11 117.13 450.07 115.54 449.59 116.12 449.59 117.13 448.96 117.13 448.96 113.46"/><polygon class="cls-1" points="452.98 113.46 455.56 113.46 455.56 114.02 453.6 114.02 453.6 114.97 455.47 114.97 455.47 115.54 453.6 115.54 453.6 116.57 455.56 116.57 455.56 117.13 452.98 117.13 452.98 113.46"/><path class="cls-1" d="M457.55,114.02v1.28h.7c.52,0,.85-.17.85-.64,0-.45-.33-.64-.85-.64h-.7ZM458.31,115.88h-.76v1.25h-.62v-3.68h1.4c.85,0,1.4.43,1.4,1.2,0,.55-.28.94-.75,1.12l.84,1.36h-.74l-.77-1.25Z"/><polygon class="cls-1" points="346.26 79.9 349.34 79.39 356.21 81.07 360.43 78.98 354.62 75.67 354.98 72.25 352.21 69.83 348.82 70.15 346.36 65.61 342.73 67.08 342.41 70.1 339.45 71.03 345.32 73.34 346.26 79.9"/><polygon class="cls-1" points="310.61 110.64 311.42 105.8 309.8 105.42 307.33 108.03 308.18 110.64 310.61 110.64"/><polygon class="cls-1" points="300.56 103.25 302.44 103.96 303.53 102.22 304.2 101.27 303.74 100.28 300.93 101.52 300.56 103.25"/><polygon class="cls-1" points="313.75 105.46 319.78 104.49 333.87 90.2 333.58 81.51 328.31 77.63 322.86 78.56 306.8 89.47 305.01 97.23 305.59 101.56 302.35 106.78 298.01 110.68 292.57 113.02 292.8 113.15 298.2 111.47 301.43 109.28 301.67 109.26 300.22 113.36 300.61 119.22 300.89 119.32 301.04 113.48 303.19 109.11 310.49 102.81 313.75 105.46"/><polygon class="cls-1" points="329.52 75.86 335.91 80.42 336.23 88.39 339.89 84.71 339.89 77.62 332.68 74.04 329.99 74.46 324.84 76.54 329.52 75.86"/><polygon class="cls-1" points="341.33 76.05 342.04 82.57 344.07 80.53 343.57 74.79 337.34 71.87 335.42 72.03 332.97 72.85 335.13 72.85 341.33 76.05"/><path class="cls-1" d="M301.26,96.75c-1.47-.07-1.57-.07-2.83-.11h0c7.01-8.8,13.91-17.69,20.66-26.69,2.28-3.03,4.53-6.07,6.75-9.14-4.81,5.85-9.49,11.81-14.14,17.8-4.73,6.07-9.37,12.21-13.98,18.38,1.72-.06,1.82-.15,3.54-.24"/><polygon class="cls-1" points="308.12 86.93 313 83.93 309.95 83.93 307.6 86.97 308.12 86.93"/><path class="cls-1" d="M327.32,104.04c1.63-.89,3.22-1.75,4.8-2.6l-.42-5.31-4.53,4.87.15,3.05Z"/><path class="cls-1" d="M313.78,113.01h0c.11-1.73.04-1.87.16-3.79-.28,2.11-.27,2.25-.53,4.36l.27-.14c8.98-4.68,17.93-9.42,26.84-14.24,8.91-4.82,9.65-5.37,18.46-10.38-9.03,4.58-9.84,5.03-18.77,9.8-8.85,4.72-17.65,9.53-26.42,14.39"/><polygon class="cls-1" points="321.21 124.57 319.37 124.07 314.79 128.86 318.91 132.81 323.49 128.03 322.92 126.2 325.88 123.11 324.18 121.48 321.21 124.57"/><polygon class="cls-1" points="334.86 119.95 332.78 104.98 326.83 108.14 323.94 115.06 314.03 122.18 317.38 125.39 318.99 123.71 319.21 123.49 319.51 123.57 321.05 123.98 323.8 121.12 324.16 120.74 324.54 121.1 326.24 122.74 326.62 123.1 326.26 123.48 323.51 126.34 323.99 127.87 324.09 128.16 323.87 128.39 322.26 130.07 325.86 133.52 334.86 120.21 334.75 120.06 334.86 119.95"/><polygon class="cls-1" points="307.6 131.1 309.06 132.5 311.48 129.97 312.29 130.75 309.87 133.28 310.53 133.91 312.95 131.39 313.76 132.16 311.34 134.69 312.01 135.33 314.43 132.8 315.23 133.58 312.81 136.1 313.48 136.74 315.9 134.21 316.71 134.99 314.29 137.51 314.95 138.15 317.37 135.63 318.18 136.4 315.76 138.93 317.22 140.33 324.37 132.87 322.03 130.62 321.87 130.47 319.29 133.17 318.93 133.55 318.55 133.19 314.42 129.23 314.04 128.87 314.41 128.49 316.99 125.8 314.74 123.65 307.6 131.1"/><polygon class="cls-1" points="275.32 100.17 276.36 101.16 278.07 99.37 278.64 99.92 276.93 101.71 277.41 102.16 279.12 100.37 279.69 100.91 277.98 102.71 278.45 103.16 280.16 101.36 280.74 101.91 279.03 103.71 279.5 104.16 281.21 102.36 281.78 102.91 280.07 104.7 280.55 105.15 282.26 103.36 282.83 103.91 281.12 105.7 282.16 106.69 287.21 101.39 285.64 99.89 283.61 102.02 283.25 102.4 282.87 102.04 279.94 99.24 279.56 98.88 279.92 98.5 281.95 96.38 280.37 94.87 275.32 100.17"/><polygon class="cls-1" points="300.98 83.47 290.31 86.23 290.31 86.23 290.31 86.23 290.32 86.28 280.02 93.72 282.36 95.95 283.16 95.11 283.37 94.88 283.67 94.96 284.68 95.23 286.56 93.26 286.92 92.88 287.3 93.24 288.51 94.4 288.89 94.76 288.53 95.14 286.65 97.11 286.97 98.1 287.06 98.4 286.85 98.62 286.04 99.47 288.37 101.69 292.48 95.4 301.84 86.85 304 86.67 306.45 83.47 300.98 83.47"/><polygon class="cls-1" points="284.85 95.82 283.54 95.47 280.3 98.86 283.23 101.66 286.47 98.26 286.06 96.97 288.15 94.78 286.94 93.62 284.85 95.82"/></svg>