<?xml version="1.0" encoding="UTF-8"?><svg id="Calque_1" xmlns="http://www.w3.org/2000/svg" viewBox="0 0 804.74 201.13"><defs><style>.cls-1{fill:#91130b;}.cls-1,.cls-2{stroke-width:0px;}.cls-2{fill:#e6e6e6;}</style></defs><rect class="cls-2" x=".26" y="-.02" width="805" height="201"/><polygon class="cls-1" points="435.23 57.96 438.31 57.46 445.18 59.14 449.4 57.05 443.59 53.73 443.95 50.31 441.18 47.89 437.78 48.22 435.33 43.68 431.7 45.14 431.38 48.17 428.42 49.09 434.28 51.41 435.23 57.96"/><polygon class="cls-1" points="399.58 88.71 400.39 83.86 398.77 83.48 396.3 86.1 397.15 88.71 399.58 88.71"/><polygon class="cls-1" points="389.53 81.32 391.41 82.02 392.5 80.29 393.17 79.34 392.71 78.34 389.9 79.59 389.53 81.32"/><polygon class="cls-1" points="402.72 83.52 408.75 82.55 422.84 68.27 422.55 59.58 417.28 55.69 411.83 56.63 395.77 67.53 393.98 75.3 394.56 79.63 391.32 84.85 386.98 88.75 381.54 91.09 381.77 91.22 387.17 89.53 390.4 87.34 390.64 87.32 389.19 91.42 389.57 97.29 389.86 97.38 390.01 91.54 392.16 87.17 399.46 80.88 402.72 83.52"/><polygon class="cls-1" points="418.49 53.93 424.87 58.49 425.19 66.45 428.86 62.78 428.86 55.68 421.65 52.1 418.96 52.52 413.81 54.6 418.49 53.93"/><polygon class="cls-1" points="430.3 54.11 431.01 60.63 433.04 58.6 432.54 52.85 426.31 49.94 424.39 50.1 421.94 50.92 424.1 50.92 430.3 54.11"/><path class="cls-1" d="M390.23,74.81c-1.47-.07-1.57-.07-2.83-.11h0c7.01-8.8,13.91-17.69,20.66-26.69,2.28-3.03,4.53-6.07,6.75-9.14-4.81,5.85-9.49,11.81-14.14,17.8-4.73,6.07-9.37,12.21-13.98,18.38,1.72-.06,1.82-.15,3.54-.24"/><polygon class="cls-1" points="397.09 65 401.97 62 398.92 62 396.57 65.03 397.09 65"/><path class="cls-1" d="M416.29,82.1c1.63-.89,3.22-1.75,4.8-2.6l-.42-5.31-4.53,4.87.15,3.05Z"/><path class="cls-1" d="M402.75,91.07h0c.11-1.73.04-1.87.16-3.79-.28,2.11-.27,2.25-.53,4.36l.27-.14c8.98-4.68,17.93-9.42,26.84-14.24,8.91-4.82,9.65-5.37,18.46-10.38-9.03,4.58-9.84,5.03-18.77,9.8-8.85,4.72-17.65,9.53-26.42,14.39"/><polygon class="cls-1" points="410.18 102.63 408.34 102.14 403.75 106.92 407.88 110.87 412.46 106.09 411.89 104.27 414.85 101.18 413.15 99.54 410.18 102.63"/><polygon class="cls-1" points="423.82 98.01 421.75 83.04 415.8 86.2 412.91 93.12 403 100.24 406.35 103.46 407.96 101.77 408.18 101.55 408.48 101.63 410.02 102.05 412.77 99.18 413.13 98.8 413.51 99.17 415.21 100.8 415.59 101.16 415.23 101.54 412.48 104.41 412.96 105.93 413.06 106.23 412.84 106.45 411.23 108.13 414.83 111.58 423.82 98.28 423.72 98.13 423.82 98.01"/><polygon class="cls-1" points="396.57 109.16 398.03 110.56 400.45 108.04 401.26 108.81 398.83 111.34 399.5 111.98 401.92 109.45 402.73 110.23 400.31 112.75 400.97 113.39 403.39 110.86 404.2 111.64 401.78 114.17 402.45 114.8 404.87 112.28 405.68 113.05 403.26 115.58 403.92 116.22 406.34 113.69 407.15 114.47 404.73 116.99 406.19 118.39 413.34 110.93 410.99 108.68 410.84 108.54 408.26 111.24 407.9 111.62 407.52 111.25 403.39 107.3 403.01 106.94 403.38 106.56 405.96 103.86 403.71 101.71 396.57 109.16"/><polygon class="cls-1" points="364.29 78.24 365.33 79.23 367.04 77.43 367.61 77.98 365.9 79.77 366.37 80.22 368.09 78.43 368.66 78.98 366.95 80.77 367.42 81.22 369.13 79.43 369.71 79.98 368 81.77 368.47 82.22 370.18 80.43 370.75 80.97 369.04 82.77 369.52 83.22 371.23 81.42 371.8 81.97 370.09 83.77 371.13 84.75 376.18 79.46 374.6 77.96 372.58 80.08 372.21 80.46 371.84 80.1 368.91 77.31 368.53 76.95 368.89 76.57 370.92 74.44 369.34 72.94 364.29 78.24"/><polygon class="cls-1" points="389.95 61.53 379.28 64.3 379.28 64.3 379.28 64.3 379.29 64.35 368.99 71.79 371.32 74.01 372.13 73.17 372.34 72.94 372.64 73.03 373.65 73.29 375.53 71.32 375.89 70.94 376.27 71.31 377.48 72.46 377.86 72.82 377.5 73.2 375.62 75.17 375.94 76.17 376.03 76.46 375.82 76.69 375.01 77.53 377.34 79.75 381.45 73.47 390.81 64.91 392.97 64.74 395.42 61.53 389.95 61.53"/><polygon class="cls-1" points="373.81 73.88 372.51 73.53 369.27 76.93 372.2 79.72 375.44 76.33 375.03 75.04 377.12 72.84 375.91 71.69 373.81 73.88"/><rect class="cls-1" x="356.81" y="158.49" width=".77" height="4.56"/><polygon class="cls-1" points="360.11 159.84 360.11 163.06 359.34 163.06 359.34 158.5 360.11 158.5 362.38 161.72 362.38 158.5 363.16 158.5 363.16 163.06 362.38 163.06 360.11 159.84"/><polygon class="cls-1" points="364.92 163.06 364.92 158.5 367.91 158.5 367.91 159.2 365.69 159.2 365.69 160.38 367.76 160.38 367.76 161.08 365.69 161.08 365.69 163.06 364.92 163.06"/><path class="cls-1" d="M370.11,159.2v1.59h.87c.65,0,1.06-.21,1.06-.8,0-.55-.4-.79-1.06-.79h-.87ZM371.05,161.5h-.94v1.55h-.77v-4.56h1.74c1.06,0,1.74.54,1.74,1.49,0,.68-.34,1.16-.93,1.39l1.05,1.68h-.92l-.96-1.55Z"/><path class="cls-1" d="M375.34,161.37h1.39l-.7-1.82-.69,1.82ZM378.21,163.06h-.81l-.38-.97h-1.95l-.38.97h-.82l1.78-4.56h.78l1.78,4.56Z"/><path class="cls-1" d="M380.67,161.08c-.85-.15-1.37-.61-1.37-1.35,0-.81.74-1.3,1.61-1.3.81,0,1.32.34,1.68.73l-.54.57c-.25-.31-.62-.6-1.18-.6s-.79.31-.79.58c0,.31.2.53.75.62l.46.08c1,.16,1.46.68,1.46,1.4s-.64,1.32-1.74,1.32c-.85,0-1.44-.4-1.81-.87l.53-.53c.28.36.66.7,1.39.7.58,0,.86-.27.86-.6,0-.3-.19-.55-.75-.65l-.55-.09Z"/><polygon class="cls-1" points="387.51 158.5 387.51 159.2 386.12 159.2 386.12 163.05 385.34 163.05 385.34 159.2 383.99 159.2 383.99 158.5 387.51 158.5"/><path class="cls-1" d="M389.67,159.2v1.59h.87c.65,0,1.06-.21,1.06-.8,0-.55-.4-.79-1.06-.79h-.87ZM390.62,161.5h-.94v1.55h-.77v-4.56h1.74c1.06,0,1.74.54,1.74,1.49,0,.68-.34,1.16-.93,1.39l1.05,1.68h-.92l-.96-1.55Z"/><path class="cls-1" d="M396.63,158.5h.78v2.54c0,1.39-.74,2.1-1.84,2.1s-1.84-.7-1.84-2.1v-2.54h.78v2.54c0,.84.29,1.39,1.06,1.39s1.06-.55,1.06-1.39v-2.54Z"/><path class="cls-1" d="M402.87,162.27c-.4.51-.96.86-1.81.86-1.37,0-2.38-.95-2.38-2.34s1.01-2.36,2.35-2.36c.81,0,1.39.34,1.78.86l-.5.52c-.27-.38-.67-.67-1.26-.67-.9,0-1.57.7-1.57,1.65s.68,1.63,1.6,1.63c.58,0,1-.27,1.31-.68l.49.53Z"/><polygon class="cls-1" points="407.33 158.5 407.33 159.2 405.94 159.2 405.94 163.05 405.17 163.05 405.17 159.2 403.82 159.2 403.82 158.5 407.33 158.5"/><path class="cls-1" d="M411.55,158.5h.78v2.54c0,1.39-.74,2.1-1.84,2.1s-1.84-.7-1.84-2.1v-2.54h.78v2.54c0,.84.29,1.39,1.06,1.39s1.06-.55,1.06-1.39v-2.54Z"/><path class="cls-1" d="M414.71,159.2v1.59h.87c.65,0,1.06-.21,1.06-.8,0-.55-.4-.79-1.06-.79h-.87ZM415.66,161.5h-.94v1.55h-.77v-4.56h1.74c1.06,0,1.74.54,1.74,1.49,0,.68-.34,1.16-.93,1.39l1.05,1.68h-.92l-.96-1.55Z"/><polygon class="cls-1" points="418.92 158.5 422.13 158.5 422.13 159.2 419.69 159.2 419.69 160.38 422.02 160.38 422.02 161.08 419.69 161.08 419.69 162.35 422.13 162.35 422.13 163.05 418.92 163.05 418.92 158.5"/><polygon class="cls-1" points="430.6 158.5 431.43 158.5 430.25 163.05 429.39 163.05 428.54 159.76 427.69 163.05 426.83 163.05 425.64 158.5 426.47 158.5 427.26 161.83 428.1 158.5 428.99 158.5 429.83 161.83 430.6 158.5"/><path class="cls-1" d="M434.68,162.42c.88,0,1.52-.71,1.52-1.64s-.64-1.63-1.52-1.63-1.54.72-1.54,1.63.64,1.64,1.54,1.64M434.65,158.42c1.31,0,2.32,1.02,2.32,2.35s-1.02,2.35-2.32,2.35-2.3-1.02-2.3-2.35,1-2.35,2.3-2.35"/><path class="cls-1" d="M439.21,159.2v1.59h.86c.65,0,1.06-.21,1.06-.8,0-.55-.4-.79-1.06-.79h-.86ZM440.16,161.5h-.94v1.55h-.77v-4.56h1.74c1.06,0,1.74.54,1.74,1.49,0,.68-.34,1.16-.93,1.39l1.05,1.68h-.92l-.96-1.55Z"/><polygon class="cls-1" points="443.42 158.5 444.19 158.5 444.19 160.62 445.9 158.5 446.86 158.5 445.32 160.42 447.01 163.05 446.08 163.05 444.79 161.08 444.19 161.8 444.19 163.05 443.42 163.05 443.42 158.5"/><polygon class="cls-1" points="448.4 158.5 451.61 158.5 451.61 159.2 449.18 159.2 449.18 160.38 451.5 160.38 451.5 161.08 449.18 161.08 449.18 162.35 451.61 162.35 451.61 163.05 448.4 163.05 448.4 158.5"/><path class="cls-1" d="M454.07,159.2v1.59h.87c.65,0,1.06-.21,1.06-.8,0-.55-.4-.79-1.06-.79h-.87ZM455.01,161.5h-.94v1.55h-.77v-4.56h1.74c1.06,0,1.74.54,1.74,1.49,0,.68-.34,1.16-.93,1.39l1.05,1.68h-.92l-.96-1.55Z"/><polygon class="cls-1" points="335.84 149.91 331.88 149.91 331.88 130.33 335.84 130.33 335.84 140.55 339.64 136.22 344.64 136.22 339.59 141.86 344.87 149.91 340.03 149.91 336.77 144.71 335.84 145.72 335.84 149.91"/><path class="cls-1" d="M350.12,145.63c0,.35.16.65.47.88.32.23.73.35,1.23.35.89,0,1.71-.28,2.46-.84v-1.56c-.71-.17-1.32-.25-1.84-.25-.73,0-1.3.12-1.7.37-.41.25-.61.6-.61,1.05M350.87,150.22c-1.44,0-2.59-.4-3.45-1.2-.87-.8-1.3-1.84-1.3-3.13,0-1.42.52-2.5,1.56-3.27,1.04-.76,2.33-1.14,3.86-1.14.89,0,1.81.13,2.74.39v-.23c0-.67-.21-1.21-.62-1.62-.41-.41-.97-.61-1.68-.61-1.27,0-2.25.53-2.93,1.59l-2.52-2.4c1.51-1.81,3.42-2.71,5.73-2.71,1.71,0,3.15.49,4.3,1.48,1.14.97,1.7,2.3,1.7,3.99v8.55h-3.94v-.89c-.91.8-2.07,1.2-3.46,1.2"/><path class="cls-1" d="M362.78,149.49c-.45-.47-.67-1.04-.67-1.7s.22-1.24.67-1.7c.47-.47,1.03-.7,1.7-.7s1.24.23,1.7.7c.49.47.73,1.03.73,1.7s-.24,1.24-.73,1.7c-.47.47-1.03.7-1.7.7s-1.24-.23-1.7-.7M362.78,140.13c-.45-.47-.67-1.03-.67-1.7s.22-1.24.67-1.7c.47-.47,1.03-.7,1.7-.7s1.24.23,1.7.7c.49.47.73,1.04.73,1.7s-.24,1.24-.73,1.7c-.47.47-1.03.7-1.7.7s-1.24-.23-1.7-.7"/><path class="cls-1" d="M376.74,145.13l-1.82-.45c-2.98-.75-4.47-2.23-4.47-4.47,0-1.3.51-2.35,1.54-3.13,1.02-.8,2.28-1.2,3.77-1.2,2.07,0,3.9.72,5.5,2.15l-2.43,2.57c-1.1-.89-2.18-1.34-3.24-1.34-.39,0-.7.08-.94.24-.23.16-.35.35-.35.57,0,.33.33.58.98.73l2.04.47c3,.71,4.5,2.22,4.5,4.53,0,1.3-.52,2.37-1.56,3.18-1.04.82-2.43,1.23-4.16,1.23-1.23,0-2.39-.25-3.48-.76-1.09-.5-1.93-1.14-2.53-1.9l2.43-2.49c1.25,1.21,2.55,1.82,3.91,1.82.41,0,.77-.08,1.08-.25.31-.17.46-.38.46-.64,0-.37-.41-.66-1.23-.87"/><path class="cls-1" d="M390.41,139.38c-.69,0-1.26.19-1.72.56-.46.37-.75.87-.88,1.48h4.92c-.04-.58-.27-1.06-.7-1.45-.43-.39-.97-.59-1.62-.59M396.92,142.89l-.03,1.17h-9.28c.11.75.44,1.35.99,1.82s1.24.7,2.08.7c1.4,0,2.52-.53,3.35-1.59l2.63,2.46c-1.47,1.85-3.43,2.77-5.87,2.77-2.07,0-3.79-.64-5.17-1.93-1.36-1.3-2.04-3.02-2.04-5.14s.63-3.83,1.87-5.2c1.27-1.38,2.89-2.06,4.86-2.06,2.09,0,3.71.7,4.86,2.09,1.16,1.42,1.73,3.06,1.73,4.92"/><path class="cls-1" d="M403.62,143.06v6.85h-3.97v-13.69h3.91v.95c.88-.86,1.96-1.28,3.24-1.28,1.71,0,3.07.53,4.08,1.61,1.01,1.07,1.51,2.55,1.51,4.46v7.96h-3.99v-7.66c0-.82-.19-1.47-.57-1.96-.38-.48-.94-.73-1.69-.73-1.68,0-2.51,1.17-2.51,3.49"/><rect class="cls-1" x="424.66" y="130.32" width="2.07" height="19.58"/><path class="cls-1" d="M433.77,149.91h-2.07v-13.69h2.07v13.69ZM431.61,132.67c-.3-.32-.45-.69-.45-1.12s.15-.79.45-1.09c.32-.3.69-.45,1.12-.45s.79.15,1.09.45c.32.3.48.66.48,1.09s-.16.8-.48,1.12c-.3.3-.66.45-1.09.45s-.8-.15-1.12-.45"/><path class="cls-1" d="M438.76,136.22h2.01v1.68c.47-.6,1.09-1.08,1.89-1.45.79-.37,1.61-.56,2.45-.56,1.75,0,3.1.52,4.04,1.58.94,1.05,1.41,2.55,1.41,4.48v7.96h-2.09v-8.13c0-1.27-.31-2.25-.92-2.94-.61-.69-1.47-1.03-2.57-1.03-1.32,0-2.34.47-3.06,1.41-.72.94-1.08,2.24-1.08,3.9v6.79h-2.07v-13.69Z"/><path class="cls-1" d="M466.2,149.91h-1.98v-1.73c-1.06,1.36-2.51,2.04-4.33,2.04-3.43,0-5.14-2.01-5.14-6.04v-7.96h2.07v8.05c0,2.66,1.12,3.99,3.35,3.99,1.3,0,2.29-.45,2.96-1.35.67-.9,1.01-2.21,1.01-3.9v-6.79h2.07v13.69Z"/><polygon class="cls-1" points="479 136.22 475.59 141.33 472.21 136.22 469.72 136.22 474.3 142.87 469.39 149.91 471.87 149.91 475.59 144.38 479.33 149.91 481.82 149.91 476.9 142.87 481.48 136.22 479 136.22"/></svg>