<?xml version="1.0" encoding="UTF-8"?><svg id="Calque_1" xmlns="http://www.w3.org/2000/svg" viewBox="0 0 3000 2768.1"><defs><style>.cls-1{fill:#91130b;}.cls-1,.cls-2,.cls-3,.cls-4,.cls-5{stroke-width:0px;}.cls-2{fill:#000;}.cls-3{fill:#7f7f7f;}.cls-4{fill:#00fcfb;}.cls-5{fill:#fff;}</style></defs><path class="cls-1" d="M2692.74,345.95c-28.09-11.88-57.95-17.91-88.74-17.91s-60.65,6.02-88.74,17.91c-27.15,11.48-51.53,27.93-72.48,48.87-20.95,20.95-37.39,45.33-48.87,72.48-11.88,28.09-17.91,57.95-17.91,88.74s6.02,60.65,17.91,88.74c11.48,27.15,27.93,51.53,48.87,72.48,20.95,20.95,45.33,37.39,72.48,48.87,28.09,11.88,57.95,17.91,88.74,17.91s60.65-6.02,88.74-17.91c27.15-11.48,51.53-27.93,72.48-48.87,20.95-20.95,37.39-45.33,48.87-72.48,11.88-28.09,17.91-57.95,17.91-88.74s-6.02-60.65-17.91-88.74c-11.48-27.15-27.93-51.53-48.87-72.48-20.95-20.95-45.33-37.39-72.48-48.87Z"/><path class="cls-1" d="M1176,556.05c0-30.79-6.02-60.65-17.91-88.74-11.48-27.15-27.93-51.53-48.87-72.48s-45.33-37.39-72.48-48.87c-28.09-11.88-57.95-17.91-88.74-17.91s-60.65,6.02-88.74,17.91c-27.15,11.48-51.53,27.93-72.48,48.87s-37.39,45.33-48.87,72.48c-11.88,28.09-17.91,57.95-17.91,88.74s6.02,60.65,17.91,88.74c11.48,27.15,27.93,51.53,48.87,72.48s45.33,37.39,72.48,48.87c28.09,11.88,57.95,17.91,88.74,17.91s60.65-6.02,88.74-17.91c27.15-11.48,51.53-27.93,72.48-48.87s37.39-45.33,48.87-72.48c11.88-28.09,17.91-57.95,17.91-88.74Z"/><path class="cls-2" d="M948,328.05c30.79,0,60.65,6.02,88.74,17.91,27.15,11.48,51.53,27.93,72.48,48.87s37.39,45.33,48.87,72.48c11.88,28.09,17.91,57.95,17.91,88.74s-6.02,60.65-17.91,88.74c-11.48,27.15-27.93,51.53-48.87,72.48-20.95,20.95-45.33,37.39-72.48,48.87-28.09,11.88-57.95,17.91-88.74,17.91s-60.65-6.02-88.74-17.91c-27.15-11.48-51.53-27.93-72.48-48.87-20.95-20.95-37.39-45.33-48.87-72.48-11.88-28.09-17.91-57.95-17.91-88.74s6.02-60.65,17.91-88.74c11.48-27.15,27.93-51.53,48.87-72.48,20.95-20.95,45.33-37.39,72.48-48.87,28.09-11.88,57.95-17.91,88.74-17.91M948,300.05h0c-141.38,0-256,114.61-256,256h0c0,141.39,114.61,256,256,256h0c141.38,0,256-114.61,256-256h0c0-141.39-114.61-256-256-256h0Z"/><path class="cls-2" d="M624,556.05c0-30.79-6.02-60.65-17.91-88.74-11.48-27.15-27.93-51.53-48.87-72.48s-45.33-37.39-72.48-48.87c-28.09-11.88-57.95-17.91-88.74-17.91s-60.65,6.02-88.74,17.91c-27.15,11.48-51.53,27.93-72.48,48.87-20.95,20.95-37.39,45.33-48.87,72.48-11.88,28.09-17.91,57.95-17.91,88.74s6.02,60.65,17.91,88.74c11.48,27.15,27.93,51.53,48.87,72.48,20.95,20.95,45.33,37.39,72.48,48.87,28.09,11.88,57.95,17.91,88.74,17.91s60.65-6.02,88.74-17.91c27.15-11.48,51.53-27.93,72.48-48.87s37.39-45.33,48.87-72.48c11.88-28.09,17.91-57.95,17.91-88.74Z"/><path class="cls-1" d="M403.75,300.31c3.55.11,7.08.28,10.6.53-24.78,31.34-54.38,68.68-70.39,88.77h0c19.13.67,20.71.59,43.15,1.72-26.19,1.31-27.78,2.63-53.97,3.6,15.33-20.51,45.09-60.47,70.61-94.62ZM468.43,310.59c92.15,27.13,162.7,104.69,179.67,200.76l-70.41,12.97-49.84-40.41-111.4,96.07-32.72,66.7-2.41,89.07-4.29-1.39-5.85-89.5,22.16-62.63-3.78.33-49.26,33.47-82.37,25.66-3.53-1.93,83.09-35.75,66.17-59.51,49.44-79.69-8.88-66.04,24.21-88.18ZM648.14,600.81c-.55,3.14-1.17,6.25-1.84,9.35-25.89,13.25-56.45,28.92-69.74,35.85l-4.16,2.18c4.04-32.23,3.8-34.31,8.14-66.51-1.79,29.29-.65,31.4-2.4,57.85h0c13.38-7.42,44.43-24.59,69.98-38.72ZM382.06,464.26l42.89-19.05,7.02,15.18-10.23,14.53-16.64,26.49-28.81-10.76,5.76-26.4ZM529.7,603.42h-37.12l-12.87-39.87,37.61-39.87,24.74,5.78-12.37,73.96Z"/><path class="cls-2" d="M955.75,300.31c3.55.11,7.08.28,10.6.53-24.78,31.34-54.38,68.68-70.39,88.77h0c19.13.67,20.71.59,43.15,1.72-26.19,1.31-27.78,2.63-53.97,3.6,15.33-20.51,45.09-60.47,70.61-94.62ZM1020.43,310.59c92.15,27.13,162.7,104.69,179.67,200.76l-70.41,12.97-49.84-40.41-111.4,96.07-32.72,66.7-2.41,89.07-4.29-1.39-5.85-89.5,22.16-62.63-3.78.33-49.26,33.47-82.37,25.66-3.53-1.93,83.09-35.75,66.17-59.51,49.44-79.69-8.88-66.04,24.21-88.18ZM1200.14,600.81c-.55,3.14-1.17,6.25-1.84,9.35-25.89,13.25-56.45,28.92-69.74,35.85l-4.16,2.18c4.04-32.23,3.8-34.31,8.14-66.51-1.79,29.29-.65,31.4-2.4,57.85h0c13.38-7.42,44.43-24.59,69.98-38.72ZM934.06,464.26l42.89-19.05,7.02,15.18-10.23,14.53-16.64,26.49-28.81-10.76,5.76-26.4ZM1081.7,603.42h-37.12l-12.87-39.87,37.61-39.87,24.74,5.78-12.37,73.96Z"/><rect class="cls-1" x="1244" y="300.05" width="512" height="512" rx="256" ry="256"/><path class="cls-2" d="M1507.75,300.31c3.55.11,7.08.28,10.6.53-24.78,31.34-54.38,68.68-70.39,88.77h0c19.13.67,20.71.59,43.15,1.72-26.19,1.31-27.78,2.63-53.97,3.6,15.33-20.51,45.09-60.47,70.61-94.62ZM1572.43,310.59c92.15,27.13,162.7,104.69,179.67,200.76l-70.41,12.97-49.84-40.41-111.4,96.07-32.72,66.7-2.41,89.07-4.29-1.39-5.85-89.5,22.16-62.63-3.78.33-49.26,33.47-82.37,25.66-3.53-1.93,83.09-35.75,66.17-59.51,49.44-79.69-8.88-66.04,24.21-88.18ZM1752.14,600.81c-.55,3.14-1.17,6.25-1.84,9.35-25.89,13.25-56.45,28.92-69.74,35.85l-4.16,2.18c4.04-32.23,3.8-34.31,8.14-66.51-1.79,29.29-.65,31.4-2.4,57.85h0c13.38-7.42,44.43-24.59,69.98-38.72ZM1486.06,464.26l42.89-19.05,7.02,15.18-10.23,14.53-16.64,26.49-28.81-10.76,5.76-26.4ZM1633.7,603.42h-37.12l-12.87-39.87,37.61-39.87,24.74,5.78-12.37,73.96Z"/><path class="cls-5" d="M2611.75,300.31c3.55.11,7.08.28,10.6.53-24.78,31.34-54.38,68.68-70.39,88.77h0c19.13.67,20.71.59,43.15,1.72-26.19,1.31-27.78,2.63-53.97,3.6,15.33-20.51,45.09-60.47,70.61-94.62ZM2676.43,310.59c92.15,27.13,162.7,104.69,179.67,200.76l-70.41,12.97-49.84-40.41-111.4,96.07-32.72,66.7-2.41,89.07-4.29-1.39-5.85-89.5,22.16-62.63-3.78.33-49.26,33.47-82.37,25.66-3.53-1.93,83.09-35.75,66.17-59.51,49.44-79.69-8.88-66.04,24.21-88.18ZM2856.14,600.81c-.55,3.14-1.17,6.25-1.84,9.35-25.89,13.25-56.45,28.92-69.74,35.85l-4.16,2.18c4.04-32.23,3.8-34.31,8.14-66.51-1.79,29.29-.65,31.4-2.4,57.85h0c13.38-7.42,44.43-24.59,69.98-38.72ZM2590.06,464.26l42.89-19.05,7.02,15.18-10.23,14.53-16.64,26.49-28.81-10.76,5.76-26.4ZM2737.7,603.42h-37.12l-12.87-39.87,37.61-39.87,24.74,5.78-12.37,73.96Z"/><path class="cls-1" d="M396,328.05c30.79,0,60.65,6.02,88.74,17.91,27.15,11.48,51.53,27.93,72.48,48.87s37.39,45.33,48.87,72.48c11.88,28.09,17.91,57.95,17.91,88.74s-6.02,60.65-17.91,88.74c-11.48,27.15-27.93,51.53-48.87,72.48-20.95,20.95-45.33,37.39-72.48,48.87-28.09,11.88-57.95,17.91-88.74,17.91s-60.65-6.02-88.74-17.91c-27.15-11.48-51.53-27.93-72.48-48.87-20.95-20.95-37.39-45.33-48.87-72.48-11.88-28.09-17.91-57.95-17.91-88.74s6.02-60.65,17.91-88.74c11.48-27.15,27.93-51.53,48.87-72.48,20.95-20.95,45.33-37.39,72.48-48.87,28.09-11.88,57.95-17.91,88.74-17.91M396,300.05h0c-141.38,0-256,114.61-256,256h0c0,141.39,114.61,256,256,256h0c141.38,0,256-114.61,256-256h0c0-141.39-114.61-256-256-256h0Z"/><path class="cls-1" d="M2304.02,510.86l-70.35,12.96-49.84-40.41-111.4,96.07-32.72,66.7-2.41,89.07-4.29-1.39-5.85-89.5,22.16-62.63-3.78.33-49.26,33.47-82.37,25.66-3.53-1.93,83.09-35.75,66.17-59.51,49.44-79.69-8.88-66.04,24.11-87.84c-17.39-5.11-35.55-8.43-54.27-9.73-24.73,31.27-54.16,68.41-70.11,88.42h0c19.13.67,20.71.59,43.15,1.72-26.19,1.31-27.78,2.63-53.97,3.6,15.28-20.44,44.89-60.19,70.35-94.26-2.48-.07-4.97-.12-7.46-.12h0c-141.38,0-256,114.61-256,256h0c0,141.39,114.61,256,256,256h0c141.38,0,256-114.61,256-256h0c0-15.42-1.36-30.52-3.98-45.19ZM2038.04,463.75l42.89-19.05,7.02,15.18-10.23,14.53-16.64,26.49-28.81-10.76,5.76-26.4ZM2185.68,602.92h-37.12l-12.87-39.87,37.61-39.87,24.74,5.78-12.37,73.96ZM2302.28,609.66c-25.89,13.25-56.45,28.92-69.74,35.85l-4.16,2.18c4.04-32.23,3.8-34.31,8.14-66.51-1.79,29.29-.65,31.4-2.4,57.85h0c13.38-7.42,44.43-24.59,69.98-38.72-.55,3.14-1.17,6.25-1.84,9.35Z"/><path class="cls-5" d="M2604,328.05c30.79,0,60.65,6.02,88.74,17.91,27.15,11.48,51.53,27.93,72.48,48.87,20.95,20.95,37.39,45.33,48.87,72.48,11.88,28.09,17.91,57.95,17.91,88.74s-6.02,60.65-17.91,88.74c-11.48,27.15-27.93,51.53-48.87,72.48-20.95,20.95-45.33,37.39-72.48,48.87-28.09,11.88-57.95,17.91-88.74,17.91s-60.65-6.02-88.74-17.91c-27.15-11.48-51.53-27.93-72.48-48.87-20.95-20.95-37.39-45.33-48.87-72.48-11.88-28.09-17.91-57.95-17.91-88.74s6.02-60.65,17.91-88.74c11.48-27.15,27.93-51.53,48.87-72.48,20.95-20.95,45.33-37.39,72.48-48.87,28.09-11.88,57.95-17.91,88.74-17.91M2604,300.05h0c-141.38,0-256,114.61-256,256h0c0,141.39,114.61,256,256,256h0c141.38,0,256-114.61,256-256h0c0-141.39-114.61-256-256-256h0Z"/><path class="cls-4" d="M2692.74,897.95c-28.09-11.88-57.95-17.91-88.74-17.91s-60.65,6.02-88.74,17.91c-27.15,11.48-51.53,27.93-72.48,48.87-20.95,20.95-37.39,45.33-48.87,72.48-11.88,28.09-17.91,57.95-17.91,88.74s6.02,60.65,17.91,88.74c11.48,27.15,27.93,51.53,48.87,72.48,20.95,20.95,45.33,37.39,72.48,48.87,28.09,11.88,57.95,17.91,88.74,17.91s60.65-6.02,88.74-17.91c27.15-11.48,51.53-27.93,72.48-48.87,20.95-20.95,37.39-45.33,48.87-72.48,11.88-28.09,17.91-57.95,17.91-88.74s-6.02-60.65-17.91-88.74c-11.48-27.15-27.93-51.53-48.87-72.48-20.95-20.95-45.33-37.39-72.48-48.87Z"/><path class="cls-4" d="M1176,1108.05c0-30.79-6.02-60.65-17.91-88.74-11.48-27.15-27.93-51.53-48.87-72.48s-45.33-37.39-72.48-48.87c-28.09-11.88-57.95-17.91-88.74-17.91s-60.65,6.02-88.74,17.91c-27.15,11.48-51.53,27.93-72.48,48.87s-37.39,45.33-48.87,72.48c-11.88,28.09-17.91,57.95-17.91,88.74s6.02,60.65,17.91,88.74c11.48,27.15,27.93,51.53,48.87,72.48s45.33,37.39,72.48,48.87c28.09,11.88,57.95,17.91,88.74,17.91s60.65-6.02,88.74-17.91c27.15-11.48,51.53-27.93,72.48-48.87s37.39-45.33,48.87-72.48c11.88-28.09,17.91-57.95,17.91-88.74Z"/><path class="cls-2" d="M948,880.05c30.79,0,60.65,6.02,88.74,17.91,27.15,11.48,51.53,27.93,72.48,48.87s37.39,45.33,48.87,72.48c11.88,28.09,17.91,57.95,17.91,88.74s-6.02,60.65-17.91,88.74c-11.48,27.15-27.93,51.53-48.87,72.48-20.95,20.95-45.33,37.39-72.48,48.87-28.09,11.88-57.95,17.91-88.74,17.91s-60.65-6.02-88.74-17.91c-27.15-11.48-51.53-27.93-72.48-48.87-20.95-20.95-37.39-45.33-48.87-72.48-11.88-28.09-17.91-57.95-17.91-88.74s6.02-60.65,17.91-88.74c11.48-27.15,27.93-51.53,48.87-72.48,20.95-20.95,45.33-37.39,72.48-48.87,28.09-11.88,57.95-17.91,88.74-17.91M948,852.05h0c-141.38,0-256,114.61-256,256h0c0,141.39,114.61,256,256,256h0c141.38,0,256-114.61,256-256h0c0-141.39-114.61-256-256-256h0Z"/><path class="cls-2" d="M624,1108.05c0-30.79-6.02-60.65-17.91-88.74-11.48-27.15-27.93-51.53-48.87-72.48s-45.33-37.39-72.48-48.87c-28.09-11.88-57.95-17.91-88.74-17.91s-60.65,6.02-88.74,17.91c-27.15,11.48-51.53,27.93-72.48,48.87-20.95,20.95-37.39,45.33-48.87,72.48-11.88,28.09-17.91,57.95-17.91,88.74s6.02,60.65,17.91,88.74c11.48,27.15,27.93,51.53,48.87,72.48,20.95,20.95,45.33,37.39,72.48,48.87,28.09,11.88,57.95,17.91,88.74,17.91s60.65-6.02,88.74-17.91c27.15-11.48,51.53-27.93,72.48-48.87s37.39-45.33,48.87-72.48c11.88-28.09,17.91-57.95,17.91-88.74Z"/><path class="cls-4" d="M403.75,852.31c3.55.11,7.08.28,10.6.53-24.78,31.34-54.38,68.68-70.39,88.77h0c19.13.67,20.71.59,43.15,1.72-26.19,1.31-27.78,2.63-53.97,3.6,15.33-20.51,45.09-60.47,70.61-94.62ZM468.43,862.59c92.15,27.13,162.7,104.69,179.67,200.76l-70.41,12.97-49.84-40.41-111.4,96.07-32.72,66.7-2.41,89.07-4.29-1.39-5.85-89.5,22.16-62.63-3.78.33-49.26,33.47-82.37,25.66-3.53-1.93,83.09-35.75,66.17-59.51,49.44-79.69-8.88-66.04,24.21-88.18ZM648.14,1152.81c-.55,3.14-1.17,6.25-1.84,9.35-25.89,13.25-56.45,28.92-69.74,35.85l-4.16,2.18c4.04-32.23,3.8-34.31,8.14-66.51-1.79,29.29-.65,31.4-2.4,57.85h0c13.38-7.42,44.43-24.59,69.98-38.72ZM382.06,1016.26l42.89-19.05,7.02,15.18-10.23,14.53-16.64,26.49-28.81-10.76,5.76-26.4ZM529.7,1155.42h-37.12l-12.87-39.87,37.61-39.87,24.74,5.78-12.37,73.96Z"/><path class="cls-2" d="M955.75,852.31c3.55.11,7.08.28,10.6.53-24.78,31.34-54.38,68.68-70.39,88.77h0c19.13.67,20.71.59,43.15,1.72-26.19,1.31-27.78,2.63-53.97,3.6,15.33-20.51,45.09-60.47,70.61-94.62ZM1020.43,862.59c92.15,27.13,162.7,104.69,179.67,200.76l-70.41,12.97-49.84-40.41-111.4,96.07-32.72,66.7-2.41,89.07-4.29-1.39-5.85-89.5,22.16-62.63-3.78.33-49.26,33.47-82.37,25.66-3.53-1.93,83.09-35.75,66.17-59.51,49.44-79.69-8.88-66.04,24.21-88.18ZM1200.14,1152.81c-.55,3.14-1.17,6.25-1.84,9.35-25.89,13.25-56.45,28.92-69.74,35.85l-4.16,2.18c4.04-32.23,3.8-34.31,8.14-66.51-1.79,29.29-.65,31.4-2.4,57.85h0c13.38-7.42,44.43-24.59,69.98-38.72ZM934.06,1016.26l42.89-19.05,7.02,15.18-10.23,14.53-16.64,26.49-28.81-10.76,5.76-26.4ZM1081.7,1155.42h-37.12l-12.87-39.87,37.61-39.87,24.74,5.78-12.37,73.96Z"/><rect class="cls-4" x="1244" y="852.05" width="512" height="512" rx="256" ry="256"/><path class="cls-2" d="M1507.75,852.31c3.55.11,7.08.28,10.6.53-24.78,31.34-54.38,68.68-70.39,88.77h0c19.13.67,20.71.59,43.15,1.72-26.19,1.31-27.78,2.63-53.97,3.6,15.33-20.51,45.09-60.47,70.61-94.62ZM1572.43,862.59c92.15,27.13,162.7,104.69,179.67,200.76l-70.41,12.97-49.84-40.41-111.4,96.07-32.72,66.7-2.41,89.07-4.29-1.39-5.85-89.5,22.16-62.63-3.78.33-49.26,33.47-82.37,25.66-3.53-1.93,83.09-35.75,66.17-59.51,49.44-79.69-8.88-66.04,24.21-88.18ZM1752.14,1152.81c-.55,3.14-1.17,6.25-1.84,9.35-25.89,13.25-56.45,28.92-69.74,35.85l-4.16,2.18c4.04-32.23,3.8-34.31,8.14-66.51-1.79,29.29-.65,31.4-2.4,57.85h0c13.38-7.42,44.43-24.59,69.98-38.72ZM1486.06,1016.26l42.89-19.05,7.02,15.18-10.23,14.53-16.64,26.49-28.81-10.76,5.76-26.4ZM1633.7,1155.42h-37.12l-12.87-39.87,37.61-39.87,24.74,5.78-12.37,73.96Z"/><path class="cls-5" d="M2611.75,852.31c3.55.11,7.08.28,10.6.53-24.78,31.34-54.38,68.68-70.39,88.77h0c19.13.67,20.71.59,43.15,1.72-26.19,1.31-27.78,2.63-53.97,3.6,15.33-20.51,45.09-60.47,70.61-94.62ZM2676.43,862.59c92.15,27.13,162.7,104.69,179.67,200.76l-70.41,12.97-49.84-40.41-111.4,96.07-32.72,66.7-2.41,89.07-4.29-1.39-5.85-89.5,22.16-62.63-3.78.33-49.26,33.47-82.37,25.66-3.53-1.93,83.09-35.75,66.17-59.51,49.44-79.69-8.88-66.04,24.21-88.18ZM2856.14,1152.81c-.55,3.14-1.17,6.25-1.84,9.35-25.89,13.25-56.45,28.92-69.74,35.85l-4.16,2.18c4.04-32.23,3.8-34.31,8.14-66.51-1.79,29.29-.65,31.4-2.4,57.85h0c13.38-7.42,44.43-24.59,69.98-38.72ZM2590.06,1016.26l42.89-19.05,7.02,15.18-10.23,14.53-16.64,26.49-28.81-10.76,5.76-26.4ZM2737.7,1155.42h-37.12l-12.87-39.87,37.61-39.87,24.74,5.78-12.37,73.96Z"/><path class="cls-4" d="M396,880.05c30.79,0,60.65,6.02,88.74,17.91,27.15,11.48,51.53,27.93,72.48,48.87s37.39,45.33,48.87,72.48c11.88,28.09,17.91,57.95,17.91,88.74s-6.02,60.65-17.91,88.74c-11.48,27.15-27.93,51.53-48.87,72.48-20.95,20.95-45.33,37.39-72.48,48.87-28.09,11.88-57.95,17.91-88.74,17.91s-60.65-6.02-88.74-17.91c-27.15-11.48-51.53-27.93-72.48-48.87-20.95-20.95-37.39-45.33-48.87-72.48-11.88-28.09-17.91-57.95-17.91-88.74s6.02-60.65,17.91-88.74c11.48-27.15,27.93-51.53,48.87-72.48,20.95-20.95,45.33-37.39,72.48-48.87,28.09-11.88,57.95-17.91,88.74-17.91M396,852.05h0c-141.38,0-256,114.61-256,256h0c0,141.39,114.61,256,256,256h0c141.38,0,256-114.61,256-256h0c0-141.39-114.61-256-256-256h0Z"/><path class="cls-4" d="M2304.02,1062.86l-70.35,12.96-49.84-40.41-111.4,96.07-32.72,66.7-2.41,89.07-4.29-1.39-5.85-89.5,22.16-62.63-3.78.33-49.26,33.47-82.37,25.66-3.53-1.93,83.09-35.75,66.17-59.51,49.44-79.69-8.88-66.04,24.11-87.84c-17.39-5.11-35.55-8.43-54.27-9.73-24.73,31.27-54.16,68.41-70.11,88.42h0c19.13.67,20.71.59,43.15,1.72-26.19,1.31-27.78,2.63-53.97,3.6,15.28-20.44,44.89-60.19,70.35-94.26-2.48-.07-4.97-.12-7.46-.12h0c-141.38,0-256,114.61-256,256h0c0,141.39,114.61,256,256,256h0c141.38,0,256-114.61,256-256h0c0-15.42-1.36-30.52-3.98-45.19ZM2038.04,1015.75l42.89-19.05,7.02,15.18-10.23,14.53-16.64,26.49-28.81-10.76,5.76-26.4ZM2185.68,1154.92h-37.12l-12.87-39.87,37.61-39.87,24.74,5.78-12.37,73.96ZM2302.28,1161.66c-25.89,13.25-56.45,28.92-69.74,35.85l-4.16,2.18c4.04-32.23,3.8-34.31,8.14-66.51-1.79,29.29-.65,31.4-2.4,57.85h0c13.38-7.42,44.43-24.59,69.98-38.72-.55,3.14-1.17,6.25-1.84,9.35Z"/><path class="cls-5" d="M2604,880.05c30.79,0,60.65,6.02,88.74,17.91,27.15,11.48,51.53,27.93,72.48,48.87,20.95,20.95,37.39,45.33,48.87,72.48,11.88,28.09,17.91,57.95,17.91,88.74s-6.02,60.65-17.91,88.74c-11.48,27.15-27.93,51.53-48.87,72.48-20.95,20.95-45.33,37.39-72.48,48.87-28.09,11.88-57.95,17.91-88.74,17.91s-60.65-6.02-88.74-17.91c-27.15-11.48-51.53-27.93-72.48-48.87-20.95-20.95-37.39-45.33-48.87-72.48-11.88-28.09-17.91-57.95-17.91-88.74s6.02-60.65,17.91-88.74c11.48-27.15,27.93-51.53,48.87-72.48,20.95-20.95,45.33-37.39,72.48-48.87,28.09-11.88,57.95-17.91,88.74-17.91M2604,852.05h0c-141.38,0-256,114.61-256,256h0c0,141.39,114.61,256,256,256h0c141.38,0,256-114.61,256-256h0c0-141.39-114.61-256-256-256h0Z"/><path class="cls-3" d="M2692.74,1449.95c-28.09-11.88-57.95-17.91-88.74-17.91s-60.65,6.02-88.74,17.91c-27.15,11.48-51.53,27.93-72.48,48.87-20.95,20.95-37.39,45.33-48.87,72.48-11.88,28.09-17.91,57.95-17.91,88.74s6.02,60.65,17.91,88.74c11.48,27.15,27.93,51.53,48.87,72.48,20.95,20.95,45.33,37.39,72.48,48.87,28.09,11.88,57.95,17.91,88.74,17.91s60.65-6.02,88.74-17.91c27.15-11.48,51.53-27.93,72.48-48.87,20.95-20.95,37.39-45.33,48.87-72.48,11.88-28.09,17.91-57.95,17.91-88.74s-6.02-60.65-17.91-88.74c-11.48-27.15-27.93-51.53-48.87-72.48-20.95-20.95-45.33-37.39-72.48-48.87Z"/><path class="cls-3" d="M1176,1660.05c0-30.79-6.02-60.65-17.91-88.74-11.48-27.15-27.93-51.53-48.87-72.48s-45.33-37.39-72.48-48.87c-28.09-11.88-57.95-17.91-88.74-17.91s-60.65,6.02-88.74,17.91c-27.15,11.48-51.53,27.93-72.48,48.87s-37.39,45.33-48.87,72.48c-11.88,28.09-17.91,57.95-17.91,88.74s6.02,60.65,17.91,88.74c11.48,27.15,27.93,51.53,48.87,72.48s45.33,37.39,72.48,48.87c28.09,11.88,57.95,17.91,88.74,17.91s60.65-6.02,88.74-17.91c27.15-11.48,51.53-27.93,72.48-48.87s37.39-45.33,48.87-72.48c11.88-28.09,17.91-57.95,17.91-88.74Z"/><path class="cls-2" d="M948,1432.05c30.79,0,60.65,6.02,88.74,17.91,27.15,11.48,51.53,27.93,72.48,48.87s37.39,45.33,48.87,72.48c11.88,28.09,17.91,57.95,17.91,88.74s-6.02,60.65-17.91,88.74c-11.48,27.15-27.93,51.53-48.87,72.48-20.95,20.95-45.33,37.39-72.48,48.87-28.09,11.88-57.95,17.91-88.74,17.91s-60.65-6.02-88.74-17.91c-27.15-11.48-51.53-27.93-72.48-48.87-20.95-20.95-37.39-45.33-48.87-72.48-11.88-28.09-17.91-57.95-17.91-88.74s6.02-60.65,17.91-88.74c11.48-27.15,27.93-51.53,48.87-72.48,20.95-20.95,45.33-37.39,72.48-48.87,28.09-11.88,57.95-17.91,88.74-17.91M948,1404.05h0c-141.38,0-256,114.61-256,256h0c0,141.39,114.61,256,256,256h0c141.38,0,256-114.61,256-256h0c0-141.39-114.61-256-256-256h0Z"/><path class="cls-2" d="M624,1660.05c0-30.79-6.02-60.65-17.91-88.74-11.48-27.15-27.93-51.53-48.87-72.48s-45.33-37.39-72.48-48.87c-28.09-11.88-57.95-17.91-88.74-17.91s-60.65,6.02-88.74,17.91c-27.15,11.48-51.53,27.93-72.48,48.87-20.95,20.95-37.39,45.33-48.87,72.48-11.88,28.09-17.91,57.95-17.91,88.74s6.02,60.65,17.91,88.74c11.48,27.15,27.93,51.53,48.87,72.48,20.95,20.95,45.33,37.39,72.48,48.87,28.09,11.88,57.95,17.91,88.74,17.91s60.65-6.02,88.74-17.91c27.15-11.48,51.53-27.93,72.48-48.87s37.39-45.33,48.87-72.48c11.88-28.09,17.91-57.95,17.91-88.74Z"/><path class="cls-3" d="M403.75,1404.31c3.55.11,7.08.28,10.6.53-24.78,31.34-54.38,68.68-70.39,88.77h0c19.13.67,20.71.59,43.15,1.72-26.19,1.31-27.78,2.63-53.97,3.6,15.33-20.51,45.09-60.47,70.61-94.62ZM468.43,1414.59c92.15,27.13,162.7,104.69,179.67,200.76l-70.41,12.97-49.84-40.41-111.4,96.07-32.72,66.7-2.41,89.07-4.29-1.39-5.85-89.5,22.16-62.63-3.78.33-49.26,33.47-82.37,25.66-3.53-1.93,83.09-35.75,66.17-59.51,49.44-79.69-8.88-66.04,24.21-88.18ZM648.14,1704.81c-.55,3.14-1.17,6.25-1.84,9.35-25.89,13.25-56.45,28.92-69.74,35.85l-4.16,2.18c4.04-32.23,3.8-34.31,8.14-66.51-1.79,29.29-.65,31.4-2.4,57.85h0c13.38-7.42,44.43-24.59,69.98-38.72ZM382.06,1568.26l42.89-19.05,7.02,15.18-10.23,14.53-16.64,26.49-28.81-10.76,5.76-26.4ZM529.7,1707.42h-37.12l-12.87-39.87,37.61-39.87,24.74,5.78-12.37,73.96Z"/><path class="cls-2" d="M955.75,1404.31c3.55.11,7.08.28,10.6.53-24.78,31.34-54.38,68.68-70.39,88.77h0c19.13.67,20.71.59,43.15,1.72-26.19,1.31-27.78,2.63-53.97,3.6,15.33-20.51,45.09-60.47,70.61-94.62ZM1020.43,1414.59c92.15,27.13,162.7,104.69,179.67,200.76l-70.41,12.97-49.84-40.41-111.4,96.07-32.72,66.7-2.41,89.07-4.29-1.39-5.85-89.5,22.16-62.63-3.78.33-49.26,33.47-82.37,25.66-3.53-1.93,83.09-35.75,66.17-59.51,49.44-79.69-8.88-66.04,24.21-88.18ZM1200.14,1704.81c-.55,3.14-1.17,6.25-1.84,9.35-25.89,13.25-56.45,28.92-69.74,35.85l-4.16,2.18c4.04-32.23,3.8-34.31,8.14-66.51-1.79,29.29-.65,31.4-2.4,57.85h0c13.38-7.42,44.43-24.59,69.98-38.72ZM934.06,1568.26l42.89-19.05,7.02,15.18-10.23,14.53-16.64,26.49-28.81-10.76,5.76-26.4ZM1081.7,1707.42h-37.12l-12.87-39.87,37.61-39.87,24.74,5.78-12.37,73.96Z"/><rect class="cls-3" x="1244" y="1404.05" width="512" height="512" rx="256" ry="256"/><path class="cls-2" d="M1507.75,1404.31c3.55.11,7.08.28,10.6.53-24.78,31.34-54.38,68.68-70.39,88.77h0c19.13.67,20.71.59,43.15,1.72-26.19,1.31-27.78,2.63-53.97,3.6,15.33-20.51,45.09-60.47,70.61-94.62ZM1572.43,1414.59c92.15,27.13,162.7,104.69,179.67,200.76l-70.41,12.97-49.84-40.41-111.4,96.07-32.72,66.7-2.41,89.07-4.29-1.39-5.85-89.5,22.16-62.63-3.78.33-49.26,33.47-82.37,25.66-3.53-1.93,83.09-35.75,66.17-59.51,49.44-79.69-8.88-66.04,24.21-88.18ZM1752.14,1704.81c-.55,3.14-1.17,6.25-1.84,9.35-25.89,13.25-56.45,28.92-69.74,35.85l-4.16,2.18c4.04-32.23,3.8-34.31,8.14-66.51-1.79,29.29-.65,31.4-2.4,57.85h0c13.38-7.42,44.43-24.59,69.98-38.72ZM1486.06,1568.26l42.89-19.05,7.02,15.18-10.23,14.53-16.64,26.49-28.81-10.76,5.76-26.4ZM1633.7,1707.42h-37.12l-12.87-39.87,37.61-39.87,24.74,5.78-12.37,73.96Z"/><path class="cls-5" d="M2611.75,1404.31c3.55.11,7.08.28,10.6.53-24.78,31.34-54.38,68.68-70.39,88.77h0c19.13.67,20.71.59,43.15,1.72-26.19,1.31-27.78,2.63-53.97,3.6,15.33-20.51,45.09-60.47,70.61-94.62ZM2676.43,1414.59c92.15,27.13,162.7,104.69,179.67,200.76l-70.41,12.97-49.84-40.41-111.4,96.07-32.72,66.7-2.41,89.07-4.29-1.39-5.85-89.5,22.16-62.63-3.78.33-49.26,33.47-82.37,25.66-3.53-1.93,83.09-35.75,66.17-59.51,49.44-79.69-8.88-66.04,24.21-88.18ZM2856.14,1704.81c-.55,3.14-1.17,6.25-1.84,9.35-25.89,13.25-56.45,28.92-69.74,35.85l-4.16,2.18c4.04-32.23,3.8-34.31,8.14-66.51-1.79,29.29-.65,31.4-2.4,57.85h0c13.38-7.42,44.43-24.59,69.98-38.72ZM2590.06,1568.26l42.89-19.05,7.02,15.18-10.23,14.53-16.64,26.49-28.81-10.76,5.76-26.4ZM2737.7,1707.42h-37.12l-12.87-39.87,37.61-39.87,24.74,5.78-12.37,73.96Z"/><path class="cls-3" d="M396,1432.05c30.79,0,60.65,6.02,88.74,17.91,27.15,11.48,51.53,27.93,72.48,48.87s37.39,45.33,48.87,72.48c11.88,28.09,17.91,57.95,17.91,88.74s-6.02,60.65-17.91,88.74c-11.48,27.15-27.93,51.53-48.87,72.48-20.95,20.95-45.33,37.39-72.48,48.87-28.09,11.88-57.95,17.91-88.74,17.91s-60.65-6.02-88.74-17.91c-27.15-11.48-51.53-27.93-72.48-48.87-20.95-20.95-37.39-45.33-48.87-72.48-11.88-28.09-17.91-57.95-17.91-88.74s6.02-60.65,17.91-88.74c11.48-27.15,27.93-51.53,48.87-72.48,20.95-20.95,45.33-37.39,72.48-48.87,28.09-11.88,57.95-17.91,88.74-17.91M396,1404.05h0c-141.38,0-256,114.61-256,256h0c0,141.39,114.61,256,256,256h0c141.38,0,256-114.61,256-256h0c0-141.39-114.61-256-256-256h0Z"/><path class="cls-3" d="M2304.02,1614.86l-70.35,12.96-49.84-40.41-111.4,96.07-32.72,66.7-2.41,89.07-4.29-1.39-5.85-89.5,22.16-62.63-3.78.33-49.26,33.47-82.37,25.66-3.53-1.93,83.09-35.75,66.17-59.51,49.44-79.69-8.88-66.04,24.11-87.84c-17.39-5.11-35.55-8.43-54.27-9.73-24.73,31.27-54.16,68.41-70.11,88.42h0c19.13.67,20.71.59,43.15,1.72-26.19,1.31-27.78,2.63-53.97,3.6,15.28-20.44,44.89-60.19,70.35-94.26-2.48-.07-4.97-.12-7.46-.12h0c-141.38,0-256,114.61-256,256h0c0,141.39,114.61,256,256,256h0c141.38,0,256-114.61,256-256h0c0-15.42-1.36-30.52-3.98-45.19ZM2038.04,1567.75l42.89-19.05,7.02,15.18-10.23,14.53-16.64,26.49-28.81-10.76,5.76-26.4ZM2185.68,1706.92h-37.12l-12.87-39.87,37.61-39.87,24.74,5.78-12.37,73.96ZM2302.28,1713.66c-25.89,13.25-56.45,28.92-69.74,35.85l-4.16,2.18c4.04-32.23,3.8-34.31,8.14-66.51-1.79,29.29-.65,31.4-2.4,57.85h0c13.38-7.42,44.43-24.59,69.98-38.72-.55,3.14-1.17,6.25-1.84,9.35Z"/><path class="cls-5" d="M2604,1432.05c30.79,0,60.65,6.02,88.74,17.91,27.15,11.48,51.53,27.93,72.48,48.87,20.95,20.95,37.39,45.33,48.87,72.48,11.88,28.09,17.91,57.95,17.91,88.74s-6.02,60.65-17.91,88.74c-11.48,27.15-27.93,51.53-48.87,72.48-20.95,20.95-45.33,37.39-72.48,48.87-28.09,11.88-57.95,17.91-88.74,17.91s-60.65-6.02-88.74-17.91c-27.15-11.48-51.53-27.93-72.48-48.87-20.95-20.95-37.39-45.33-48.87-72.48-11.88-28.09-17.91-57.95-17.91-88.74s6.02-60.65,17.91-88.74c11.48-27.15,27.93-51.53,48.87-72.48,20.95-20.95,45.33-37.39,72.48-48.87,28.09-11.88,57.95-17.91,88.74-17.91M2604,1404.05h0c-141.38,0-256,114.61-256,256h0c0,141.39,114.61,256,256,256h0c141.38,0,256-114.61,256-256h0c0-141.39-114.61-256-256-256h0Z"/><path class="cls-1" d="M1176,2212.05c0-30.79-6.02-60.65-17.91-88.74-11.48-27.15-27.93-51.53-48.87-72.48s-45.33-37.39-72.48-48.87c-28.09-11.88-57.95-17.91-88.74-17.91s-60.65,6.02-88.74,17.91c-27.15,11.48-51.53,27.93-72.48,48.87s-37.39,45.33-48.87,72.48c-11.88,28.09-17.91,57.95-17.91,88.74s6.02,60.65,17.91,88.74c11.48,27.15,27.93,51.53,48.87,72.48s45.33,37.39,72.48,48.87c28.09,11.88,57.95,17.91,88.74,17.91s60.65-6.02,88.74-17.91c27.15-11.48,51.53-27.93,72.48-48.87s37.39-45.33,48.87-72.48c11.88-28.09,17.91-57.95,17.91-88.74Z"/><path class="cls-2" d="M948,1984.05c30.79,0,60.65,6.02,88.74,17.91,27.15,11.48,51.53,27.93,72.48,48.87s37.39,45.33,48.87,72.48c11.88,28.09,17.91,57.95,17.91,88.74s-6.02,60.65-17.91,88.74c-11.48,27.15-27.93,51.53-48.87,72.48-20.95,20.95-45.33,37.39-72.48,48.87-28.09,11.88-57.95,17.91-88.74,17.91s-60.65-6.02-88.74-17.91c-27.15-11.48-51.53-27.93-72.48-48.87-20.95-20.95-37.39-45.33-48.87-72.48-11.88-28.09-17.91-57.95-17.91-88.74s6.02-60.65,17.91-88.74c11.48-27.15,27.93-51.53,48.87-72.48,20.95-20.95,45.33-37.39,72.48-48.87,28.09-11.88,57.95-17.91,88.74-17.91M948,1956.05h0c-141.38,0-256,114.61-256,256h0c0,141.39,114.61,256,256,256h0c141.38,0,256-114.61,256-256h0c0-141.39-114.61-256-256-256h0Z"/><path class="cls-2" d="M624,2212.05c0-30.79-6.02-60.65-17.91-88.74-11.48-27.15-27.93-51.53-48.87-72.48s-45.33-37.39-72.48-48.87c-28.09-11.88-57.95-17.91-88.74-17.91s-60.65,6.02-88.74,17.91c-27.15,11.48-51.53,27.93-72.48,48.87-20.95,20.95-37.39,45.33-48.87,72.48-11.88,28.09-17.91,57.95-17.91,88.74s6.02,60.65,17.91,88.74c11.48,27.15,27.93,51.53,48.87,72.48,20.95,20.95,45.33,37.39,72.48,48.87,28.09,11.88,57.95,17.91,88.74,17.91s60.65-6.02,88.74-17.91c27.15-11.48,51.53-27.93,72.48-48.87s37.39-45.33,48.87-72.48c11.88-28.09,17.91-57.95,17.91-88.74Z"/><path class="cls-5" d="M403.75,1956.31c3.55.11,7.08.28,10.6.53-24.78,31.34-54.38,68.68-70.39,88.77h0c19.13.67,20.71.59,43.15,1.72-26.19,1.31-27.78,2.63-53.97,3.6,15.33-20.51,45.09-60.47,70.61-94.62ZM468.43,1966.59c92.15,27.13,162.7,104.69,179.67,200.76l-70.41,12.97-49.84-40.41-111.4,96.07-32.72,66.7-2.41,89.07-4.29-1.39-5.85-89.5,22.16-62.63-3.78.33-49.26,33.47-82.37,25.66-3.53-1.93,83.09-35.75,66.17-59.51,49.44-79.69-8.88-66.04,24.21-88.18ZM648.14,2256.81c-.55,3.14-1.17,6.25-1.84,9.35-25.89,13.25-56.45,28.92-69.74,35.85l-4.16,2.18c4.04-32.23,3.8-34.31,8.14-66.51-1.79,29.29-.65,31.4-2.4,57.85h0c13.38-7.42,44.43-24.59,69.98-38.72ZM382.06,2120.26l42.89-19.05,7.02,15.18-10.23,14.53-16.64,26.49-28.81-10.76,5.76-26.4ZM529.7,2259.42h-37.12l-12.87-39.87,37.61-39.87,24.74,5.78-12.37,73.96Z"/><path class="cls-2" d="M955.75,1956.31c3.55.11,7.08.28,10.6.53-24.78,31.34-54.38,68.68-70.39,88.77h0c19.13.67,20.71.59,43.15,1.72-26.19,1.31-27.78,2.63-53.97,3.6,15.33-20.51,45.09-60.47,70.61-94.62ZM1020.43,1966.59c92.15,27.13,162.7,104.69,179.67,200.76l-70.41,12.97-49.84-40.41-111.4,96.07-32.72,66.7-2.41,89.07-4.29-1.39-5.85-89.5,22.16-62.63-3.78.33-49.26,33.47-82.37,25.66-3.53-1.93,83.09-35.75,66.17-59.51,49.44-79.69-8.88-66.04,24.21-88.18ZM1200.14,2256.81c-.55,3.14-1.17,6.25-1.84,9.35-25.89,13.25-56.45,28.92-69.74,35.85l-4.16,2.18c4.04-32.23,3.8-34.31,8.14-66.51-1.79,29.29-.65,31.4-2.4,57.85h0c13.38-7.42,44.43-24.59,69.98-38.72ZM934.06,2120.26l42.89-19.05,7.02,15.18-10.23,14.53-16.64,26.49-28.81-10.76,5.76-26.4ZM1081.7,2259.42h-37.12l-12.87-39.87,37.61-39.87,24.74,5.78-12.37,73.96Z"/><path class="cls-1" d="M396,1984.05c30.79,0,60.65,6.02,88.74,17.91,27.15,11.48,51.53,27.93,72.48,48.87s37.39,45.33,48.87,72.48c11.88,28.09,17.91,57.95,17.91,88.74s-6.02,60.65-17.91,88.74c-11.48,27.15-27.93,51.53-48.87,72.48-20.95,20.95-45.33,37.39-72.48,48.87-28.09,11.88-57.95,17.91-88.74,17.91s-60.65-6.02-88.74-17.91c-27.15-11.48-51.53-27.93-72.48-48.87-20.95-20.95-37.39-45.33-48.87-72.48-11.88-28.09-17.91-57.95-17.91-88.74s6.02-60.65,17.91-88.74c11.48-27.15,27.93-51.53,48.87-72.48,20.95-20.95,45.33-37.39,72.48-48.87,28.09-11.88,57.95-17.91,88.74-17.91M396,1956.05h0c-141.38,0-256,114.61-256,256h0c0,141.39,114.61,256,256,256h0c141.38,0,256-114.61,256-256h0c0-141.39-114.61-256-256-256h0Z"/><path class="cls-1" d="M1728,2212.05c0-30.79-6.02-60.65-17.91-88.74-11.48-27.15-27.93-51.53-48.87-72.48s-45.33-37.39-72.48-48.87c-28.09-11.88-57.95-17.91-88.74-17.91s-60.65,6.02-88.74,17.91c-27.15,11.48-51.53,27.93-72.48,48.87s-37.39,45.33-48.87,72.48c-11.88,28.09-17.91,57.95-17.91,88.74s6.02,60.65,17.91,88.74c11.48,27.15,27.93,51.53,48.87,72.48s45.33,37.39,72.48,48.87c28.09,11.88,57.95,17.91,88.74,17.91s60.65-6.02,88.74-17.91c27.15-11.48,51.53-27.93,72.48-48.87s37.39-45.33,48.87-72.48c11.88-28.09,17.91-57.95,17.91-88.74Z"/><path class="cls-4" d="M1507.75,1956.31c3.55.11,7.08.28,10.6.53-24.78,31.34-54.38,68.68-70.39,88.77h0c19.13.67,20.71.59,43.15,1.72-26.19,1.31-27.78,2.63-53.97,3.6,15.33-20.51,45.09-60.47,70.61-94.62ZM1572.43,1966.59c92.15,27.13,162.7,104.69,179.67,200.76l-70.41,12.97-49.84-40.41-111.4,96.07-32.72,66.7-2.41,89.07-4.29-1.39-5.85-89.5,22.16-62.63-3.78.33-49.26,33.47-82.37,25.66-3.53-1.93,83.09-35.75,66.17-59.51,49.44-79.69-8.88-66.04,24.21-88.18ZM1752.14,2256.81c-.55,3.14-1.17,6.25-1.84,9.35-25.89,13.25-56.45,28.92-69.74,35.85l-4.16,2.18c4.04-32.23,3.8-34.31,8.14-66.51-1.79,29.29-.65,31.4-2.4,57.85h0c13.38-7.42,44.43-24.59,69.98-38.72ZM1486.06,2120.26l42.89-19.05,7.02,15.18-10.23,14.53-16.64,26.49-28.81-10.76,5.76-26.4ZM1633.7,2259.42h-37.12l-12.87-39.87,37.61-39.87,24.74,5.78-12.37,73.96Z"/><path class="cls-2" d="M2280,2212.05c0-30.79-6.02-60.65-17.91-88.74-11.48-27.15-27.93-51.53-48.87-72.48s-45.33-37.39-72.48-48.87c-28.09-11.88-57.95-17.91-88.74-17.91s-60.65,6.02-88.74,17.91c-27.15,11.48-51.53,27.93-72.48,48.87s-37.39,45.33-48.87,72.48c-11.88,28.09-17.91,57.95-17.91,88.74s6.02,60.65,17.91,88.74c11.48,27.15,27.93,51.53,48.87,72.48s45.33,37.39,72.48,48.87c28.09,11.88,57.95,17.91,88.74,17.91s60.65-6.02,88.74-17.91c27.15-11.48,51.53-27.93,72.48-48.87s37.39-45.33,48.87-72.48c11.88-28.09,17.91-57.95,17.91-88.74Z"/><path class="cls-4" d="M1500,1984.05c30.79,0,60.65,6.02,88.74,17.91,27.15,11.48,51.53,27.93,72.48,48.87s37.39,45.33,48.87,72.48c11.88,28.09,17.91,57.95,17.91,88.74s-6.02,60.65-17.91,88.74c-11.48,27.15-27.93,51.53-48.87,72.48-20.95,20.95-45.33,37.39-72.48,48.87-28.09,11.88-57.95,17.91-88.74,17.91s-60.65-6.02-88.74-17.91c-27.15-11.48-51.53-27.93-72.48-48.87-20.95-20.95-37.39-45.33-48.87-72.48-11.88-28.09-17.91-57.95-17.91-88.74s6.02-60.65,17.91-88.74c11.48-27.15,27.93-51.53,48.87-72.48,20.95-20.95,45.33-37.39,72.48-48.87,28.09-11.88,57.95-17.91,88.74-17.91M1500,1956.05h0c-141.38,0-256,114.61-256,256h0c0,141.39,114.61,256,256,256h0c141.38,0,256-114.61,256-256h0c0-141.39-114.61-256-256-256h0Z"/><path class="cls-2" d="M2052,1984.05c30.79,0,60.65,6.02,88.74,17.91,27.15,11.48,51.53,27.93,72.48,48.87s37.39,45.33,48.87,72.48c11.88,28.09,17.91,57.95,17.91,88.74s-6.02,60.65-17.91,88.74c-11.48,27.15-27.93,51.53-48.87,72.48-20.95,20.95-45.33,37.39-72.48,48.87-28.09,11.88-57.95,17.91-88.74,17.91s-60.65-6.02-88.74-17.91c-27.15-11.48-51.53-27.93-72.48-48.87-20.95-20.95-37.39-45.33-48.87-72.48-11.88-28.09-17.91-57.95-17.91-88.74s6.02-60.65,17.91-88.74c11.48-27.15,27.93-51.53,48.87-72.48,20.95-20.95,45.33-37.39,72.48-48.87,28.09-11.88,57.95-17.91,88.74-17.91M2052,1956.05h0c-141.38,0-256,114.61-256,256h0c0,141.39,114.61,256,256,256h0c141.38,0,256-114.61,256-256h0c0-141.39-114.61-256-256-256h0Z"/><path class="cls-1" d="M2059.75,1956.31c3.55.11,7.08.28,10.6.53-24.78,31.34-54.38,68.68-70.39,88.77h0c19.13.67,20.71.59,43.15,1.72-26.19,1.31-27.78,2.63-53.97,3.6,15.33-20.51,45.09-60.47,70.61-94.62ZM2124.43,1966.59c92.15,27.13,162.7,104.69,179.67,200.76l-70.41,12.97-49.84-40.41-111.4,96.07-32.72,66.7-2.41,89.07-4.29-1.39-5.85-89.5,22.16-62.63-3.78.33-49.26,33.47-82.37,25.66-3.53-1.93,83.09-35.75,66.17-59.51,49.44-79.69-8.88-66.04,24.21-88.18ZM2304.14,2256.81c-.55,3.14-1.17,6.25-1.84,9.35-25.89,13.25-56.45,28.92-69.74,35.85l-4.16,2.18c4.04-32.23,3.8-34.31,8.14-66.51-1.79,29.29-.65,31.4-2.4,57.85h0c13.38-7.42,44.43-24.59,69.98-38.72ZM2038.06,2120.26l42.89-19.05,7.02,15.18-10.23,14.53-16.64,26.49-28.81-10.76,5.76-26.4ZM2185.7,2259.42h-37.12l-12.87-39.87,37.61-39.87,24.74,5.78-12.37,73.96Z"/><path class="cls-2" d="M2784.22,2301.75l-4.16,2.18c4.04-32.23,3.8-34.31,8.14-66.51-1.79,29.29-.65,31.4-2.4,57.85h0c7.86-4.35,21.8-12.07,37.15-20.57,5.78-20.25,8.71-41.23,8.71-62.66,0-13.5-1.16-26.82-3.46-39.89l-42.86,7.9-49.84-40.41-111.4,96.07-32.72,66.7-2.41,89.07-4.29-1.39-5.85-89.5,22.16-62.63-3.78.33-49.26,33.47-82.37,25.66-3.53-1.93,83.09-35.75,66.17-59.51,49.44-79.69-8.88-66.04,16.76-61.06c-20.96-6.23-42.72-9.39-64.97-9.39-1.15,0-2.3.03-3.44.04-18.67,23.58-37.14,46.86-48.62,61.26h0c19.13.67,20.71.59,43.15,1.72-26.19,1.31-27.78,2.63-53.97,3.6,11.2-14.98,30.09-40.33,49.4-66.22-26.03,1.5-51.29,7.36-75.26,17.5-27.15,11.48-51.53,27.93-72.48,48.87s-37.39,45.33-48.87,72.48c-11.88,28.09-17.91,57.95-17.91,88.74s6.02,60.65,17.91,88.74c11.48,27.15,27.93,51.53,48.87,72.48,20.95,20.95,45.33,37.39,72.48,48.87,28.09,11.88,57.95,17.91,88.74,17.91s60.65-6.02,88.74-17.91c27.15-11.48,51.53-27.93,72.48-48.87,20.95-20.95,37.39-45.33,48.87-72.48,2.46-5.82,4.66-11.72,6.61-17.68-15,7.7-28.48,14.64-36.16,18.64ZM2589.72,2119.99l42.89-19.05,7.02,15.18-10.23,14.53-16.64,26.49-28.81-10.76,5.76-26.4ZM2737.36,2259.16h-37.12l-12.87-39.87,37.61-39.87,24.74,5.78-12.37,73.96Z"/><path class="cls-2" d="M2600.24,1984.09c1.15-.02,2.29-.04,3.44-.04,22.25,0,44.01,3.16,64.97,9.39l7.41-27c-17.36-5.11-35.47-8.43-54.15-9.74-6.98,8.83-14.34,18.13-21.67,27.39Z"/><path class="cls-2" d="M2855.74,2167.09l-27.52,5.07c2.3,13.07,3.46,26.39,3.46,39.89,0,21.43-2.93,42.41-8.71,62.66,10.79-5.97,22.28-12.32,32.83-18.16-.55,3.14-1.17,6.25-1.84,9.35-10.91,5.58-22.65,11.6-33.57,17.2-1.96,5.96-4.15,11.86-6.61,17.68-11.48,27.15-27.93,51.53-48.87,72.48-20.95,20.95-45.33,37.39-72.48,48.87-28.09,11.88-57.95,17.91-88.74,17.91s-60.65-6.02-88.74-17.91c-27.15-11.48-51.53-27.93-72.48-48.87-20.95-20.95-37.39-45.33-48.87-72.48-11.88-28.09-17.91-57.95-17.91-88.74s6.02-60.65,17.91-88.74c11.48-27.15,27.93-51.53,48.87-72.48s45.33-37.39,72.48-48.87c23.97-10.14,49.23-16,75.26-17.5,7.1-9.52,14.26-19.11,21.12-28.28-2.54-.07-5.08-.12-7.64-.12h0c-141.38,0-256,114.61-256,256h0c0,141.39,114.61,256,256,256h0c141.38,0,256-114.61,256-256h0c0-15.34-1.35-30.36-3.94-44.96Z"/></svg>