<?xml version="1.0" encoding="UTF-8"?><svg id="Calque_1" xmlns="http://www.w3.org/2000/svg" viewBox="0 0 3000 2768.1"><defs><style>.cls-1{fill:#91130b;}.cls-1,.cls-2,.cls-3,.cls-4,.cls-5{stroke-width:0px;}.cls-2{fill:#000;}.cls-3{fill:#7f7f7f;}.cls-4{fill:#00fcfb;}.cls-5{fill:#fff;}</style></defs><path class="cls-2" d="M236.07,312.55h319.86c46.12,0,83.57,37.45,83.57,83.57v319.86c0,46.12-37.45,83.57-83.57,83.57H236.07c-46.12,0-83.57-37.45-83.57-83.57v-319.86c0-46.12,37.45-83.57,83.57-83.57Z"/><path class="cls-1" d="M555.93,325.05c39.19,0,71.07,31.88,71.07,71.07v319.86c0,39.19-31.88,71.07-71.07,71.07H236.07c-39.19,0-71.07-31.88-71.07-71.07v-319.86c0-39.19,31.88-71.07,71.07-71.07h319.86M555.93,300.05H236.07c-53.06,0-96.07,43.01-96.07,96.07v319.86c0,53.06,43.01,96.07,96.07,96.07h319.86c53.06,0,96.07-43.01,96.07-96.07v-319.86c0-53.06-43.01-96.07-96.07-96.07h0Z"/><path class="cls-1" d="M788.07,312.55h319.86c46.12,0,83.57,37.45,83.57,83.57v319.86c0,46.12-37.45,83.57-83.57,83.57h-319.86c-46.12,0-83.57-37.45-83.57-83.57v-319.86c0-46.12,37.45-83.57,83.57-83.57Z"/><path class="cls-2" d="M1107.93,325.05c39.19,0,71.07,31.88,71.07,71.07v319.86c0,39.19-31.88,71.07-71.07,71.07h-319.86c-39.19,0-71.07-31.88-71.07-71.07v-319.86c0-39.19,31.88-71.07,71.07-71.07h319.86M1107.93,300.05h-319.86c-53.06,0-96.07,43.01-96.07,96.07v319.86c0,53.06,43.01,96.07,96.07,96.07h319.86c53.06,0,96.07-43.01,96.07-96.07v-319.86c0-53.06-43.01-96.07-96.07-96.07h0Z"/><rect class="cls-1" x="1244" y="300.05" width="512" height="512" rx="96.07" ry="96.07"/><rect class="cls-1" x="2360.5" y="312.55" width="487" height="487" rx="83.57" ry="83.57"/><path class="cls-5" d="M2763.93,325.05c39.19,0,71.07,31.88,71.07,71.07v319.86c0,39.19-31.88,71.07-71.07,71.07h-319.86c-39.19,0-71.07-31.88-71.07-71.07v-319.86c0-39.19,31.88-71.07,71.07-71.07h319.86M2763.93,300.05h-319.86c-53.06,0-96.07,43.01-96.07,96.07v319.86c0,53.06,43.01,96.07,96.07,96.07h319.86c53.06,0,96.07-43.01,96.07-96.07v-319.86c0-53.06-43.01-96.07-96.07-96.07h0Z"/><path class="cls-2" d="M236.07,864.55h319.86c46.12,0,83.57,37.45,83.57,83.57v319.86c0,46.12-37.45,83.57-83.57,83.57H236.07c-46.12,0-83.57-37.45-83.57-83.57v-319.86c0-46.12,37.45-83.57,83.57-83.57Z"/><path class="cls-4" d="M555.93,877.05c39.19,0,71.07,31.88,71.07,71.07v319.86c0,39.19-31.88,71.07-71.07,71.07H236.07c-39.19,0-71.07-31.88-71.07-71.07v-319.86c0-39.19,31.88-71.07,71.07-71.07h319.86M555.93,852.05H236.07c-53.06,0-96.07,43.01-96.07,96.07v319.86c0,53.06,43.01,96.07,96.07,96.07h319.86c53.06,0,96.07-43.01,96.07-96.07v-319.86c0-53.06-43.01-96.07-96.07-96.07h0Z"/><path class="cls-4" d="M788.07,864.55h319.86c46.12,0,83.57,37.45,83.57,83.57v319.86c0,46.12-37.45,83.57-83.57,83.57h-319.86c-46.12,0-83.57-37.45-83.57-83.57v-319.86c0-46.12,37.45-83.57,83.57-83.57Z"/><path class="cls-2" d="M1107.93,877.05c39.19,0,71.07,31.88,71.07,71.07v319.86c0,39.19-31.88,71.07-71.07,71.07h-319.86c-39.19,0-71.07-31.88-71.07-71.07v-319.86c0-39.19,31.88-71.07,71.07-71.07h319.86M1107.93,852.05h-319.86c-53.06,0-96.07,43.01-96.07,96.07v319.86c0,53.06,43.01,96.07,96.07,96.07h319.86c53.06,0,96.07-43.01,96.07-96.07v-319.86c0-53.06-43.01-96.07-96.07-96.07h0Z"/><rect class="cls-4" x="1244" y="852.05" width="512" height="512" rx="96.07" ry="96.07"/><path class="cls-2" d="M236.07,1416.55h319.86c46.12,0,83.57,37.45,83.57,83.57v319.86c0,46.12-37.45,83.57-83.57,83.57H236.07c-46.12,0-83.57-37.45-83.57-83.57v-319.86c0-46.12,37.45-83.57,83.57-83.57Z"/><path class="cls-3" d="M555.93,1429.05c39.19,0,71.07,31.88,71.07,71.07v319.86c0,39.19-31.88,71.07-71.07,71.07H236.07c-39.19,0-71.07-31.88-71.07-71.07v-319.86c0-39.19,31.88-71.07,71.07-71.07h319.86M555.93,1404.05H236.07c-53.06,0-96.07,43.01-96.07,96.07v319.86c0,53.06,43.01,96.07,96.07,96.07h319.86c53.06,0,96.07-43.01,96.07-96.07v-319.86c0-53.06-43.01-96.07-96.07-96.07h0Z"/><path class="cls-3" d="M788.07,1416.55h319.86c46.12,0,83.57,37.45,83.57,83.57v319.86c0,46.12-37.45,83.57-83.57,83.57h-319.86c-46.12,0-83.57-37.45-83.57-83.57v-319.86c0-46.12,37.45-83.57,83.57-83.57Z"/><path class="cls-2" d="M1107.93,1429.05c39.19,0,71.07,31.88,71.07,71.07v319.86c0,39.19-31.88,71.07-71.07,71.07h-319.86c-39.19,0-71.07-31.88-71.07-71.07v-319.86c0-39.19,31.88-71.07,71.07-71.07h319.86M1107.93,1404.05h-319.86c-53.06,0-96.07,43.01-96.07,96.07v319.86c0,53.06,43.01,96.07,96.07,96.07h319.86c53.06,0,96.07-43.01,96.07-96.07v-319.86c0-53.06-43.01-96.07-96.07-96.07h0Z"/><rect class="cls-3" x="1244" y="1404.05" width="512" height="512" rx="96.07" ry="96.07"/><path class="cls-2" d="M236.07,1968.55h319.86c46.12,0,83.57,37.45,83.57,83.57v319.86c0,46.12-37.45,83.57-83.57,83.57H236.07c-46.12,0-83.57-37.45-83.57-83.57v-319.86c0-46.12,37.45-83.57,83.57-83.57Z"/><path class="cls-1" d="M555.93,1981.05c39.19,0,71.07,31.88,71.07,71.07v319.86c0,39.19-31.88,71.07-71.07,71.07H236.07c-39.19,0-71.07-31.88-71.07-71.07v-319.86c0-39.19,31.88-71.07,71.07-71.07h319.86M555.93,1956.05H236.07c-53.06,0-96.07,43.01-96.07,96.07v319.86c0,53.06,43.01,96.07,96.07,96.07h319.86c53.06,0,96.07-43.01,96.07-96.07v-319.86c0-53.06-43.01-96.07-96.07-96.07h0Z"/><path class="cls-1" d="M788.07,1968.55h319.86c46.12,0,83.57,37.45,83.57,83.57v319.86c0,46.12-37.45,83.57-83.57,83.57h-319.86c-46.12,0-83.57-37.45-83.57-83.57v-319.86c0-46.12,37.45-83.57,83.57-83.57Z"/><path class="cls-2" d="M1107.93,1981.05c39.19,0,71.07,31.88,71.07,71.07v319.86c0,39.19-31.88,71.07-71.07,71.07h-319.86c-39.19,0-71.07-31.88-71.07-71.07v-319.86c0-39.19,31.88-71.07,71.07-71.07h319.86M1107.93,1956.05h-319.86c-53.06,0-96.07,43.01-96.07,96.07v319.86c0,53.06,43.01,96.07,96.07,96.07h319.86c53.06,0,96.07-43.01,96.07-96.07v-319.86c0-53.06-43.01-96.07-96.07-96.07h0Z"/><path class="cls-1" d="M1340.07,1968.55h319.86c46.12,0,83.57,37.45,83.57,83.57v319.86c0,46.12-37.45,83.57-83.57,83.57h-319.86c-46.12,0-83.57-37.45-83.57-83.57v-319.86c0-46.12,37.45-83.57,83.57-83.57Z"/><path class="cls-4" d="M1659.93,1981.05c39.19,0,71.07,31.88,71.07,71.07v319.86c0,39.19-31.88,71.07-71.07,71.07h-319.86c-39.19,0-71.07-31.88-71.07-71.07v-319.86c0-39.19,31.88-71.07,71.07-71.07h319.86M1659.93,1956.05h-319.86c-53.06,0-96.07,43.01-96.07,96.07v319.86c0,53.06,43.01,96.07,96.07,96.07h319.86c53.06,0,96.07-43.01,96.07-96.07v-319.86c0-53.06-43.01-96.07-96.07-96.07h0Z"/><rect class="cls-2" x="1796" y="1956.05" width="512" height="512" rx="96.07" ry="96.07"/><path class="cls-5" d="M2763.93,325.05c39.19,0,71.07,31.88,71.07,71.07v319.86c0,39.19-31.88,71.07-71.07,71.07h-319.86c-39.19,0-71.07-31.88-71.07-71.07v-319.86c0-39.19,31.88-71.07,71.07-71.07h319.86M2763.93,300.05h-319.86c-53.06,0-96.07,43.01-96.07,96.07v319.86c0,53.06,43.01,96.07,96.07,96.07h319.86c53.06,0,96.07-43.01,96.07-96.07v-319.86c0-53.06-43.01-96.07-96.07-96.07h0Z"/><rect class="cls-1" x="2360.5" y="864.55" width="487" height="487" rx="83.57" ry="83.57"/><path class="cls-5" d="M2763.93,877.05c39.19,0,71.07,31.88,71.07,71.07v319.86c0,39.19-31.88,71.07-71.07,71.07h-319.86c-39.19,0-71.07-31.88-71.07-71.07v-319.86c0-39.19,31.88-71.07,71.07-71.07h319.86M2763.93,852.05h-319.86c-53.06,0-96.07,43.01-96.07,96.07v319.86c0,53.06,43.01,96.07,96.07,96.07h319.86c53.06,0,96.07-43.01,96.07-96.07v-319.86c0-53.06-43.01-96.07-96.07-96.07h0Z"/><path class="cls-5" d="M2763.93,877.05c39.19,0,71.07,31.88,71.07,71.07v319.86c0,39.19-31.88,71.07-71.07,71.07h-319.86c-39.19,0-71.07-31.88-71.07-71.07v-319.86c0-39.19,31.88-71.07,71.07-71.07h319.86M2763.93,852.05h-319.86c-53.06,0-96.07,43.01-96.07,96.07v319.86c0,53.06,43.01,96.07,96.07,96.07h319.86c53.06,0,96.07-43.01,96.07-96.07v-319.86c0-53.06-43.01-96.07-96.07-96.07h0Z"/><rect class="cls-3" x="2360.5" y="1416.55" width="487" height="487" rx="83.57" ry="83.57"/><path class="cls-5" d="M2763.93,1429.05c39.19,0,71.07,31.88,71.07,71.07v319.86c0,39.19-31.88,71.07-71.07,71.07h-319.86c-39.19,0-71.07-31.88-71.07-71.07v-319.86c0-39.19,31.88-71.07,71.07-71.07h319.86M2763.93,1404.05h-319.86c-53.06,0-96.07,43.01-96.07,96.07v319.86c0,53.06,43.01,96.07,96.07,96.07h319.86c53.06,0,96.07-43.01,96.07-96.07v-319.86c0-53.06-43.01-96.07-96.07-96.07h0Z"/><path class="cls-5" d="M2763.93,1429.05c39.19,0,71.07,31.88,71.07,71.07v319.86c0,39.19-31.88,71.07-71.07,71.07h-319.86c-39.19,0-71.07-31.88-71.07-71.07v-319.86c0-39.19,31.88-71.07,71.07-71.07h319.86M2763.93,1404.05h-319.86c-53.06,0-96.07,43.01-96.07,96.07v319.86c0,53.06,43.01,96.07,96.07,96.07h319.86c53.06,0,96.07-43.01,96.07-96.07v-319.86c0-53.06-43.01-96.07-96.07-96.07h0Z"/><polygon class="cls-1" points="464.29 580.22 470.55 520.66 422.23 478.48 363.11 484.13 320.3 405.03 257.13 430.53 251.49 483.27 199.99 499.39 302.11 539.73 318.55 653.97 372.29 645.2 492.04 674.43 565.56 638.04 464.29 580.22"/><path class="cls-1" d="M140,709.35l.75,18.68c2.52,20.12,11.25,38.3,24.22,52.56l42.67-42.7v-123.68l-67.64-33.55v128.69Z"/><polygon class="cls-1" points="163.09 514.13 140 516.04 140 539.11 232.75 586.89 245.01 700.51 280.44 665.04 271.64 564.96 163.09 514.13"/><polygon class="cls-2" points="1016.29 580.22 1022.55 520.66 974.23 478.48 915.11 484.13 872.3 405.03 809.13 430.53 803.49 483.27 751.99 499.39 854.11 539.73 870.55 653.97 924.29 645.2 1044.04 674.43 1117.56 638.04 1016.29 580.22"/><path class="cls-2" d="M692,709.35l.75,18.68c2.52,20.12,11.25,38.3,24.22,52.56l42.67-42.7v-123.68l-67.64-33.55v128.69Z"/><polygon class="cls-2" points="715.09 514.13 692 516.04 692 539.11 784.75 586.89 797.01 700.51 832.44 665.04 823.64 564.96 715.09 514.13"/><polygon class="cls-2" points="1568.29 580.22 1574.55 520.66 1526.23 478.48 1467.11 484.13 1424.3 405.03 1361.13 430.53 1355.49 483.27 1303.99 499.39 1406.11 539.73 1422.55 653.97 1476.29 645.2 1596.04 674.43 1669.56 638.04 1568.29 580.22"/><path class="cls-2" d="M1244,709.35l.75,18.68c2.52,20.12,11.25,38.3,24.22,52.56l42.67-42.7v-123.68l-67.64-33.55v128.69Z"/><polygon class="cls-2" points="1267.09 514.13 1244 516.04 1244 539.11 1336.75 586.89 1349.01 700.51 1384.44 665.04 1375.64 564.96 1267.09 514.13"/><polygon class="cls-5" points="2672.29 580.22 2678.55 520.66 2630.23 478.48 2571.11 484.13 2528.3 405.03 2465.13 430.53 2459.49 483.27 2407.99 499.39 2510.11 539.73 2526.55 653.97 2580.29 645.2 2700.04 674.43 2773.56 638.04 2672.29 580.22"/><path class="cls-5" d="M2348,709.35l.75,18.68c2.52,20.12,11.25,38.3,24.22,52.56l42.67-42.7v-123.68l-67.64-33.55v128.69Z"/><polygon class="cls-5" points="2371.09 514.13 2348 516.04 2348 539.11 2440.75 586.89 2453.01 700.51 2488.44 665.04 2479.64 564.96 2371.09 514.13"/><polygon class="cls-4" points="464.29 1132.22 470.55 1072.66 422.23 1030.48 363.11 1036.13 320.3 957.03 257.13 982.53 251.49 1035.27 199.99 1051.39 302.11 1091.73 318.55 1205.97 372.29 1197.2 492.04 1226.43 565.56 1190.04 464.29 1132.22"/><path class="cls-4" d="M140,1261.35l.75,18.68c2.52,20.12,11.25,38.3,24.22,52.56l42.67-42.7v-123.68l-67.64-33.55v128.69Z"/><polygon class="cls-4" points="163.09 1066.13 140 1068.04 140 1091.11 232.75 1138.89 245.01 1252.51 280.44 1217.04 271.64 1116.96 163.09 1066.13"/><polygon class="cls-2" points="1016.29 1132.22 1022.55 1072.66 974.23 1030.48 915.11 1036.13 872.3 957.03 809.13 982.53 803.49 1035.27 751.99 1051.39 854.11 1091.73 870.55 1205.97 924.29 1197.2 1044.04 1226.43 1117.56 1190.04 1016.29 1132.22"/><path class="cls-2" d="M692,1261.35l.75,18.68c2.52,20.12,11.25,38.3,24.22,52.56l42.67-42.7v-123.68l-67.64-33.55v128.69Z"/><polygon class="cls-2" points="715.09 1066.13 692 1068.04 692 1091.11 784.75 1138.89 797.01 1252.51 832.44 1217.04 823.64 1116.96 715.09 1066.13"/><polygon class="cls-2" points="1568.29 1132.22 1574.55 1072.66 1526.23 1030.48 1467.11 1036.13 1424.3 957.03 1361.13 982.53 1355.49 1035.27 1303.99 1051.39 1406.11 1091.73 1422.55 1205.97 1476.29 1197.2 1596.04 1226.43 1669.56 1190.04 1568.29 1132.22"/><path class="cls-2" d="M1244,1261.35l.75,18.68c2.52,20.12,11.25,38.3,24.22,52.56l42.67-42.7v-123.68l-67.64-33.55v128.69Z"/><polygon class="cls-2" points="1267.09 1066.13 1244 1068.04 1244 1091.11 1336.75 1138.89 1349.01 1252.51 1384.44 1217.04 1375.64 1116.96 1267.09 1066.13"/><polygon class="cls-5" points="2672.29 1132.22 2678.55 1072.66 2630.23 1030.48 2571.11 1036.13 2528.3 957.03 2465.13 982.53 2459.49 1035.27 2407.99 1051.39 2510.11 1091.73 2526.55 1205.97 2580.29 1197.2 2700.04 1226.43 2773.56 1190.04 2672.29 1132.22"/><path class="cls-5" d="M2348,1261.35l.75,18.68c2.52,20.12,11.25,38.3,24.22,52.56l42.67-42.7v-123.68l-67.64-33.55v128.69Z"/><polygon class="cls-5" points="2371.09 1066.13 2348 1068.04 2348 1091.11 2440.75 1138.89 2453.01 1252.51 2488.44 1217.04 2479.64 1116.96 2371.09 1066.13"/><polygon class="cls-3" points="464.29 1684.22 470.55 1624.66 422.23 1582.48 363.11 1588.13 320.3 1509.03 257.13 1534.53 251.49 1587.27 199.99 1603.39 302.11 1643.73 318.55 1757.97 372.29 1749.2 492.04 1778.43 565.56 1742.04 464.29 1684.22"/><path class="cls-3" d="M140,1813.35l.75,18.68c2.52,20.12,11.25,38.3,24.22,52.56l42.67-42.7v-123.68l-67.64-33.55v128.69Z"/><polygon class="cls-3" points="163.09 1618.13 140 1620.04 140 1643.11 232.75 1690.89 245.01 1804.51 280.44 1769.04 271.64 1668.96 163.09 1618.13"/><polygon class="cls-2" points="1016.29 1684.22 1022.55 1624.66 974.23 1582.48 915.11 1588.13 872.3 1509.03 809.13 1534.53 803.49 1587.27 751.99 1603.39 854.11 1643.73 870.55 1757.97 924.29 1749.2 1044.04 1778.43 1117.56 1742.04 1016.29 1684.22"/><path class="cls-2" d="M692,1813.35l.75,18.68c2.52,20.12,11.25,38.3,24.22,52.56l42.67-42.7v-123.68l-67.64-33.55v128.69Z"/><polygon class="cls-2" points="715.09 1618.13 692 1620.04 692 1643.11 784.75 1690.89 797.01 1804.51 832.44 1769.04 823.64 1668.96 715.09 1618.13"/><polygon class="cls-2" points="1568.29 1684.22 1574.55 1624.66 1526.23 1582.48 1467.11 1588.13 1424.3 1509.03 1361.13 1534.53 1355.49 1587.27 1303.99 1603.39 1406.11 1643.73 1422.55 1757.97 1476.29 1749.2 1596.04 1778.43 1669.56 1742.04 1568.29 1684.22"/><path class="cls-2" d="M1244,1813.35l.75,18.68c2.52,20.12,11.25,38.3,24.22,52.56l42.67-42.7v-123.68l-67.64-33.55v128.69Z"/><polygon class="cls-2" points="1267.09 1618.13 1244 1620.04 1244 1643.11 1336.75 1690.89 1349.01 1804.51 1384.44 1769.04 1375.64 1668.96 1267.09 1618.13"/><polygon class="cls-5" points="2672.29 1684.22 2678.55 1624.66 2630.23 1582.48 2571.11 1588.13 2528.3 1509.03 2465.13 1534.53 2459.49 1587.27 2407.99 1603.39 2510.11 1643.73 2526.55 1757.97 2580.29 1749.2 2700.04 1778.43 2773.56 1742.04 2672.29 1684.22"/><path class="cls-5" d="M2348,1813.35l.75,18.68c2.52,20.12,11.25,38.3,24.22,52.56l42.67-42.7v-123.68l-67.64-33.55v128.69Z"/><polygon class="cls-5" points="2371.09 1618.13 2348 1620.04 2348 1643.11 2440.75 1690.89 2453.01 1804.51 2488.44 1769.04 2479.64 1668.96 2371.09 1618.13"/><polygon class="cls-1" points="464.29 2236.22 470.55 2176.66 422.23 2134.48 363.11 2140.13 320.3 2061.03 257.13 2086.53 251.49 2139.27 199.99 2155.39 302.11 2195.73 318.55 2309.97 372.29 2301.2 492.04 2330.43 565.56 2294.04 464.29 2236.22"/><path class="cls-1" d="M140,2365.35l.75,18.68c2.52,20.12,11.25,38.3,24.22,52.56l42.67-42.7v-123.68l-67.64-33.55v128.69Z"/><polygon class="cls-1" points="163.09 2170.13 140 2172.04 140 2195.11 232.75 2242.89 245.01 2356.51 280.44 2321.04 271.64 2220.96 163.09 2170.13"/><polygon class="cls-2" points="1016.29 2236.22 1022.55 2176.66 974.23 2134.48 915.11 2140.13 872.3 2061.03 809.13 2086.53 803.49 2139.27 751.99 2155.39 854.11 2195.73 870.55 2309.97 924.29 2301.2 1044.04 2330.43 1117.56 2294.04 1016.29 2236.22"/><path class="cls-2" d="M692,2365.35l.75,18.68c2.52,20.12,11.25,38.3,24.22,52.56l42.67-42.7v-123.68l-67.64-33.55v128.69Z"/><polygon class="cls-2" points="715.09 2170.13 692 2172.04 692 2195.11 784.75 2242.89 797.01 2356.51 832.44 2321.04 823.64 2220.96 715.09 2170.13"/><polygon class="cls-4" points="1568.29 2236.22 1574.55 2176.66 1526.23 2134.48 1467.11 2140.13 1424.3 2061.03 1361.13 2086.53 1355.49 2139.27 1303.99 2155.39 1406.11 2195.73 1422.55 2309.97 1476.29 2301.2 1596.04 2330.43 1669.56 2294.04 1568.29 2236.22"/><path class="cls-4" d="M1244,2365.35l.75,18.68c2.52,20.12,11.25,38.3,24.22,52.56l42.67-42.7v-123.68l-67.64-33.55v128.69Z"/><polygon class="cls-4" points="1267.09 2170.13 1244 2172.04 1244 2195.11 1336.75 2242.89 1349.01 2356.51 1384.44 2321.04 1375.64 2220.96 1267.09 2170.13"/><polygon class="cls-1" points="2120.29 2236.22 2126.55 2176.66 2078.23 2134.48 2019.11 2140.13 1976.3 2061.03 1913.13 2086.53 1907.49 2139.27 1855.99 2155.39 1958.11 2195.73 1974.55 2309.97 2028.29 2301.2 2148.04 2330.43 2221.56 2294.04 2120.29 2236.22"/><path class="cls-1" d="M1796,2365.35l.75,18.68c2.52,20.12,11.25,38.3,24.22,52.56l42.67-42.7v-123.68l-67.64-33.55v128.69Z"/><polygon class="cls-1" points="1819.09 2170.13 1796 2172.04 1796 2195.11 1888.75 2242.89 1901.01 2356.51 1936.44 2321.04 1927.64 2220.96 1819.09 2170.13"/><path class="cls-1" d="M1803.41,753.04c-.42-.99-.81-2-1.19-3.01.38,1.01.78,2.01,1.19,3.01Z"/><path class="cls-1" d="M1802.03,749.55c-.39-1.05-.76-2.1-1.12-3.16.35,1.06.73,2.12,1.12,3.16Z"/><path class="cls-1" d="M1799.75,742.62c-.31-1.09-.61-2.19-.88-3.29.28,1.1.57,2.2.88,3.29Z"/><path class="cls-1" d="M1800.79,746c-.33-1.01-.65-2.04-.95-3.06.3,1.03.62,2.05.95,3.06Z"/><path class="cls-1" d="M1796.75,728.03l-.75-18.68v6.63c0,5.29.43,10.47,1.26,15.53-.19-1.15-.36-2.31-.51-3.48Z"/><path class="cls-1" d="M2211.93,300.05h-319.86c-53.06,0-96.07,43.01-96.07,96.07v119.93l23.09-1.91,108.55,50.82,8.8,100.09-35.43,35.47-12.25-113.62-92.75-47.78v41.55l67.64,33.55v123.68l-42.67,42.7c-.73-.8-1.44-1.62-2.14-2.44,17.62,20.74,43.89,33.9,73.24,33.9h319.86c53.06,0,96.07-43.01,96.07-96.07v-319.86c0-53.06-43.01-96.07-96.07-96.07ZM2148.04,674.43l-119.74-29.23-53.74,8.77-16.44-114.24-102.13-40.35,51.51-16.12,5.64-52.74,63.17-25.49,42.81,79.09,59.11-5.65,48.32,42.18-6.26,59.56,101.26,57.82-73.52,36.39Z"/><path class="cls-1" d="M1798.74,738.83c-.54-2.23-1.01-4.49-1.4-6.78.39,2.29.85,4.55,1.4,6.78Z"/><path class="cls-1" d="M1814.01,771.98c-.62-.87-1.23-1.74-1.83-2.63.59.89,1.2,1.77,1.83,2.63Z"/><path class="cls-1" d="M1816.15,774.85c-.61-.78-1.21-1.58-1.79-2.38.59.8,1.18,1.6,1.79,2.38Z"/><path class="cls-1" d="M1818.39,777.62c-.69-.82-1.36-1.65-2.02-2.49.66.84,1.34,1.67,2.02,2.49Z"/><path class="cls-1" d="M1811.88,768.88c-.55-.83-1.08-1.66-1.6-2.51.52.85,1.06,1.68,1.6,2.51Z"/><path class="cls-1" d="M1804.82,756.24c-.47-1.01-.92-2.02-1.35-3.05.43,1.03.88,2.04,1.35,3.05Z"/><path class="cls-1" d="M1810.05,766.03c-.56-.92-1.11-1.86-1.64-2.8.53.94,1.08,1.88,1.64,2.8Z"/><path class="cls-1" d="M1808.11,762.68c-1.07-1.93-2.08-3.89-3.02-5.9.94,2,1.95,3.97,3.02,5.9Z"/><path class="cls-4" d="M1803.41,1305.04c-.42-.99-.81-2-1.19-3.01.38,1.01.78,2.01,1.19,3.01Z"/><path class="cls-4" d="M1802.03,1301.55c-.39-1.05-.76-2.1-1.12-3.16.35,1.06.73,2.12,1.12,3.16Z"/><path class="cls-4" d="M1799.75,1294.62c-.31-1.09-.61-2.19-.88-3.29.28,1.1.57,2.2.88,3.29Z"/><path class="cls-4" d="M1800.79,1298c-.33-1.01-.65-2.04-.95-3.06.3,1.03.62,2.05.95,3.06Z"/><path class="cls-4" d="M1796.75,1280.03l-.75-18.68v6.63c0,5.29.43,10.47,1.26,15.53-.19-1.15-.36-2.31-.51-3.48Z"/><path class="cls-4" d="M2211.93,852.05h-319.86c-53.06,0-96.07,43.01-96.07,96.07v119.93l23.09-1.91,108.55,50.82,8.8,100.09-35.43,35.47-12.25-113.62-92.75-47.78v41.55l67.64,33.55v123.68l-42.67,42.7c-.73-.8-1.44-1.62-2.14-2.44,17.62,20.74,43.89,33.9,73.24,33.9h319.86c53.06,0,96.07-43.01,96.07-96.07v-319.86c0-53.06-43.01-96.07-96.07-96.07ZM2148.04,1226.43l-119.74-29.23-53.74,8.77-16.44-114.24-102.13-40.35,51.51-16.12,5.64-52.74,63.17-25.49,42.81,79.09,59.11-5.65,48.32,42.18-6.26,59.56,101.26,57.82-73.52,36.39Z"/><path class="cls-4" d="M1798.74,1290.83c-.54-2.23-1.01-4.49-1.4-6.78.39,2.29.85,4.55,1.4,6.78Z"/><path class="cls-4" d="M1814.01,1323.98c-.62-.87-1.23-1.74-1.83-2.63.59.89,1.2,1.77,1.83,2.63Z"/><path class="cls-4" d="M1816.15,1326.85c-.61-.78-1.21-1.58-1.79-2.38.59.8,1.18,1.6,1.79,2.38Z"/><path class="cls-4" d="M1818.39,1329.62c-.69-.82-1.36-1.65-2.02-2.49.66.84,1.34,1.67,2.02,2.49Z"/><path class="cls-4" d="M1811.88,1320.88c-.55-.83-1.08-1.66-1.6-2.51.52.85,1.06,1.68,1.6,2.51Z"/><path class="cls-4" d="M1804.82,1308.24c-.47-1.01-.92-2.02-1.35-3.05.43,1.03.88,2.04,1.35,3.05Z"/><path class="cls-4" d="M1810.05,1318.03c-.56-.92-1.11-1.86-1.64-2.8.53.94,1.08,1.88,1.64,2.8Z"/><path class="cls-4" d="M1808.11,1314.68c-1.07-1.93-2.08-3.89-3.02-5.9.94,2,1.95,3.97,3.02,5.9Z"/><path class="cls-3" d="M1803.41,1857.04c-.42-.99-.81-2-1.19-3.01.38,1.01.78,2.01,1.19,3.01Z"/><path class="cls-3" d="M1802.03,1853.55c-.39-1.05-.76-2.1-1.12-3.16.35,1.06.73,2.12,1.12,3.16Z"/><path class="cls-3" d="M1799.75,1846.62c-.31-1.09-.61-2.19-.88-3.29.28,1.1.57,2.2.88,3.29Z"/><path class="cls-3" d="M1800.79,1850c-.33-1.01-.65-2.04-.95-3.06.3,1.03.62,2.05.95,3.06Z"/><path class="cls-3" d="M1796.75,1832.03l-.75-18.68v6.63c0,5.29.43,10.47,1.26,15.53-.19-1.15-.36-2.31-.51-3.48Z"/><path class="cls-3" d="M2211.93,1404.05h-319.86c-53.06,0-96.07,43.01-96.07,96.07v119.93l23.09-1.91,108.55,50.82,8.8,100.09-35.43,35.47-12.25-113.62-92.75-47.78v41.55l67.64,33.55v123.68l-42.67,42.7c-.73-.8-1.44-1.62-2.14-2.44,17.62,20.74,43.89,33.9,73.24,33.9h319.86c53.06,0,96.07-43.01,96.07-96.07v-319.86c0-53.06-43.01-96.07-96.07-96.07ZM2148.04,1778.43l-119.74-29.23-53.74,8.77-16.44-114.24-102.13-40.35,51.51-16.12,5.64-52.74,63.17-25.49,42.81,79.09,59.11-5.65,48.32,42.18-6.26,59.56,101.26,57.82-73.52,36.39Z"/><path class="cls-3" d="M1798.74,1842.83c-.54-2.23-1.01-4.49-1.4-6.78.39,2.29.85,4.55,1.4,6.78Z"/><path class="cls-3" d="M1814.01,1875.98c-.62-.87-1.23-1.74-1.83-2.63.59.89,1.2,1.77,1.83,2.63Z"/><path class="cls-3" d="M1816.15,1878.85c-.61-.78-1.21-1.58-1.79-2.38.59.8,1.18,1.6,1.79,2.38Z"/><path class="cls-3" d="M1818.39,1881.62c-.69-.82-1.36-1.65-2.02-2.49.66.84,1.34,1.67,2.02,2.49Z"/><path class="cls-3" d="M1811.88,1872.88c-.55-.83-1.08-1.66-1.6-2.51.52.85,1.06,1.68,1.6,2.51Z"/><path class="cls-3" d="M1804.82,1860.24c-.47-1.01-.92-2.02-1.35-3.05.43,1.03.88,2.04,1.35,3.05Z"/><path class="cls-3" d="M1810.05,1870.03c-.56-.92-1.11-1.86-1.64-2.8.53.94,1.08,1.88,1.64,2.8Z"/><path class="cls-3" d="M1808.11,1866.68c-1.07-1.93-2.08-3.89-3.02-5.9.94,2,1.95,3.97,3.02,5.9Z"/><path class="cls-2" d="M2763.93,1956.05h-319.86c-53.06,0-96.07,43.01-96.07,96.07v119.93l23.09-1.91,108.55,50.82,8.8,100.09-35.43,35.47-12.25-113.62-92.75-47.78v41.55l67.64,33.55v123.68l-42.67,42.7c-.73-.8-1.44-1.62-2.14-2.44,17.62,20.74,43.89,33.9,73.24,33.9h319.86c53.06,0,96.07-43.01,96.07-96.07v-319.86c0-53.06-43.01-96.07-96.07-96.07ZM2700.04,2330.43l-119.74-29.23-53.74,8.77-16.44-114.24-102.13-40.35,51.51-16.12,5.64-52.74,63.17-25.49,42.81,79.09,59.11-5.65,48.32,42.18-6.26,59.56,101.26,57.82-73.52,36.39Z"/></svg>