<?xml version="1.0" encoding="UTF-8"?><svg id="Calque_1" xmlns="http://www.w3.org/2000/svg" viewBox="0 0 3000 2768.1"><defs><style>.cls-1{fill:#91130b;}.cls-1,.cls-2,.cls-3,.cls-4,.cls-5{stroke-width:0px;}.cls-2{fill:#000;}.cls-3{fill:#7f7f7f;}.cls-4{fill:#00fcfb;}.cls-5{fill:#fff;}</style></defs><path class="cls-1" d="M2692.74,345.95c-28.09-11.88-57.95-17.91-88.74-17.91s-60.65,6.02-88.74,17.91c-27.15,11.48-51.53,27.93-72.48,48.87-20.95,20.95-37.39,45.33-48.87,72.48-11.88,28.09-17.91,57.95-17.91,88.74s6.02,60.65,17.91,88.74c11.48,27.15,27.93,51.53,48.87,72.48,20.95,20.95,45.33,37.39,72.48,48.87,28.09,11.88,57.95,17.91,88.74,17.91s60.65-6.02,88.74-17.91c27.15-11.48,51.53-27.93,72.48-48.87,20.95-20.95,37.39-45.33,48.87-72.48,11.88-28.09,17.91-57.95,17.91-88.74s-6.02-60.65-17.91-88.74c-11.48-27.15-27.93-51.53-48.87-72.48-20.95-20.95-45.33-37.39-72.48-48.87Z"/><path class="cls-1" d="M1176,556.05c0-30.79-6.02-60.65-17.91-88.74-11.48-27.15-27.93-51.53-48.87-72.48s-45.33-37.39-72.48-48.87c-28.09-11.88-57.95-17.91-88.74-17.91s-60.65,6.02-88.74,17.91c-27.15,11.48-51.53,27.93-72.48,48.87s-37.39,45.33-48.87,72.48c-11.88,28.09-17.91,57.95-17.91,88.74s6.02,60.65,17.91,88.74c11.48,27.15,27.93,51.53,48.87,72.48s45.33,37.39,72.48,48.87c28.09,11.88,57.95,17.91,88.74,17.91s60.65-6.02,88.74-17.91c27.15-11.48,51.53-27.93,72.48-48.87s37.39-45.33,48.87-72.48c11.88-28.09,17.91-57.95,17.91-88.74Z"/><path class="cls-2" d="M948,328.05c30.79,0,60.65,6.02,88.74,17.91,27.15,11.48,51.53,27.93,72.48,48.87s37.39,45.33,48.87,72.48c11.88,28.09,17.91,57.95,17.91,88.74s-6.02,60.65-17.91,88.74c-11.48,27.15-27.93,51.53-48.87,72.48-20.95,20.95-45.33,37.39-72.48,48.87-28.09,11.88-57.95,17.91-88.74,17.91s-60.65-6.02-88.74-17.91c-27.15-11.48-51.53-27.93-72.48-48.87-20.95-20.95-37.39-45.33-48.87-72.48-11.88-28.09-17.91-57.95-17.91-88.74s6.02-60.65,17.91-88.74c11.48-27.15,27.93-51.53,48.87-72.48,20.95-20.95,45.33-37.39,72.48-48.87,28.09-11.88,57.95-17.91,88.74-17.91M948,300.05h0c-141.38,0-256,114.61-256,256h0c0,141.39,114.61,256,256,256h0c141.38,0,256-114.61,256-256h0c0-141.39-114.61-256-256-256h0Z"/><path class="cls-2" d="M624,556.05c0-30.79-6.02-60.65-17.91-88.74-11.48-27.15-27.93-51.53-48.87-72.48s-45.33-37.39-72.48-48.87c-28.09-11.88-57.95-17.91-88.74-17.91s-60.65,6.02-88.74,17.91c-27.15,11.48-51.53,27.93-72.48,48.87-20.95,20.95-37.39,45.33-48.87,72.48-11.88,28.09-17.91,57.95-17.91,88.74s6.02,60.65,17.91,88.74c11.48,27.15,27.93,51.53,48.87,72.48,20.95,20.95,45.33,37.39,72.48,48.87,28.09,11.88,57.95,17.91,88.74,17.91s60.65-6.02,88.74-17.91c27.15-11.48,51.53-27.93,72.48-48.87s37.39-45.33,48.87-72.48c11.88-28.09,17.91-57.95,17.91-88.74Z"/><rect class="cls-1" x="1244" y="300.05" width="512" height="512" rx="256" ry="256"/><path class="cls-1" d="M396,328.05c30.79,0,60.65,6.02,88.74,17.91,27.15,11.48,51.53,27.93,72.48,48.87s37.39,45.33,48.87,72.48c11.88,28.09,17.91,57.95,17.91,88.74s-6.02,60.65-17.91,88.74c-11.48,27.15-27.93,51.53-48.87,72.48-20.95,20.95-45.33,37.39-72.48,48.87-28.09,11.88-57.95,17.91-88.74,17.91s-60.65-6.02-88.74-17.91c-27.15-11.48-51.53-27.93-72.48-48.87-20.95-20.95-37.39-45.33-48.87-72.48-11.88-28.09-17.91-57.95-17.91-88.74s6.02-60.65,17.91-88.74c11.48-27.15,27.93-51.53,48.87-72.48,20.95-20.95,45.33-37.39,72.48-48.87,28.09-11.88,57.95-17.91,88.74-17.91M396,300.05h0c-141.38,0-256,114.61-256,256h0c0,141.39,114.61,256,256,256h0c141.38,0,256-114.61,256-256h0c0-141.39-114.61-256-256-256h0Z"/><path class="cls-5" d="M2604,328.05c30.79,0,60.65,6.02,88.74,17.91,27.15,11.48,51.53,27.93,72.48,48.87,20.95,20.95,37.39,45.33,48.87,72.48,11.88,28.09,17.91,57.95,17.91,88.74s-6.02,60.65-17.91,88.74c-11.48,27.15-27.93,51.53-48.87,72.48-20.95,20.95-45.33,37.39-72.48,48.87-28.09,11.88-57.95,17.91-88.74,17.91s-60.65-6.02-88.74-17.91c-27.15-11.48-51.53-27.93-72.48-48.87-20.95-20.95-37.39-45.33-48.87-72.48-11.88-28.09-17.91-57.95-17.91-88.74s6.02-60.65,17.91-88.74c11.48-27.15,27.93-51.53,48.87-72.48,20.95-20.95,45.33-37.39,72.48-48.87,28.09-11.88,57.95-17.91,88.74-17.91M2604,300.05h0c-141.38,0-256,114.61-256,256h0c0,141.39,114.61,256,256,256h0c141.38,0,256-114.61,256-256h0c0-141.39-114.61-256-256-256h0Z"/><path class="cls-4" d="M2692.74,897.95c-28.09-11.88-57.95-17.91-88.74-17.91s-60.65,6.02-88.74,17.91c-27.15,11.48-51.53,27.93-72.48,48.87-20.95,20.95-37.39,45.33-48.87,72.48-11.88,28.09-17.91,57.95-17.91,88.74s6.02,60.65,17.91,88.74c11.48,27.15,27.93,51.53,48.87,72.48,20.95,20.95,45.33,37.39,72.48,48.87,28.09,11.88,57.95,17.91,88.74,17.91s60.65-6.02,88.74-17.91c27.15-11.48,51.53-27.93,72.48-48.87,20.95-20.95,37.39-45.33,48.87-72.48,11.88-28.09,17.91-57.95,17.91-88.74s-6.02-60.65-17.91-88.74c-11.48-27.15-27.93-51.53-48.87-72.48-20.95-20.95-45.33-37.39-72.48-48.87Z"/><path class="cls-4" d="M1176,1108.05c0-30.79-6.02-60.65-17.91-88.74-11.48-27.15-27.93-51.53-48.87-72.48s-45.33-37.39-72.48-48.87c-28.09-11.88-57.95-17.91-88.74-17.91s-60.65,6.02-88.74,17.91c-27.15,11.48-51.53,27.93-72.48,48.87s-37.39,45.33-48.87,72.48c-11.88,28.09-17.91,57.95-17.91,88.74s6.02,60.65,17.91,88.74c11.48,27.15,27.93,51.53,48.87,72.48s45.33,37.39,72.48,48.87c28.09,11.88,57.95,17.91,88.74,17.91s60.65-6.02,88.74-17.91c27.15-11.48,51.53-27.93,72.48-48.87s37.39-45.33,48.87-72.48c11.88-28.09,17.91-57.95,17.91-88.74Z"/><path class="cls-2" d="M948,880.05c30.79,0,60.65,6.02,88.74,17.91,27.15,11.48,51.53,27.93,72.48,48.87s37.39,45.33,48.87,72.48c11.88,28.09,17.91,57.95,17.91,88.74s-6.02,60.65-17.91,88.74c-11.48,27.15-27.93,51.53-48.87,72.48-20.95,20.95-45.33,37.39-72.48,48.87-28.09,11.88-57.95,17.91-88.74,17.91s-60.65-6.02-88.74-17.91c-27.15-11.48-51.53-27.93-72.48-48.87-20.95-20.95-37.39-45.33-48.87-72.48-11.88-28.09-17.91-57.95-17.91-88.74s6.02-60.65,17.91-88.74c11.48-27.15,27.93-51.53,48.87-72.48,20.95-20.95,45.33-37.39,72.48-48.87,28.09-11.88,57.95-17.91,88.74-17.91M948,852.05h0c-141.38,0-256,114.61-256,256h0c0,141.39,114.61,256,256,256h0c141.38,0,256-114.61,256-256h0c0-141.39-114.61-256-256-256h0Z"/><path class="cls-2" d="M624,1108.05c0-30.79-6.02-60.65-17.91-88.74-11.48-27.15-27.93-51.53-48.87-72.48s-45.33-37.39-72.48-48.87c-28.09-11.88-57.95-17.91-88.74-17.91s-60.65,6.02-88.74,17.91c-27.15,11.48-51.53,27.93-72.48,48.87-20.95,20.95-37.39,45.33-48.87,72.48-11.88,28.09-17.91,57.95-17.91,88.74s6.02,60.65,17.91,88.74c11.48,27.15,27.93,51.53,48.87,72.48,20.95,20.95,45.33,37.39,72.48,48.87,28.09,11.88,57.95,17.91,88.74,17.91s60.65-6.02,88.74-17.91c27.15-11.48,51.53-27.93,72.48-48.87s37.39-45.33,48.87-72.48c11.88-28.09,17.91-57.95,17.91-88.74Z"/><rect class="cls-4" x="1244" y="852.05" width="512" height="512" rx="256" ry="256"/><path class="cls-4" d="M396,880.05c30.79,0,60.65,6.02,88.74,17.91,27.15,11.48,51.53,27.93,72.48,48.87s37.39,45.33,48.87,72.48c11.88,28.09,17.91,57.95,17.91,88.74s-6.02,60.65-17.91,88.74c-11.48,27.15-27.93,51.53-48.87,72.48-20.95,20.95-45.33,37.39-72.48,48.87-28.09,11.88-57.95,17.91-88.74,17.91s-60.65-6.02-88.74-17.91c-27.15-11.48-51.53-27.93-72.48-48.87-20.95-20.95-37.39-45.33-48.87-72.48-11.88-28.09-17.91-57.95-17.91-88.74s6.02-60.65,17.91-88.74c11.48-27.15,27.93-51.53,48.87-72.48,20.95-20.95,45.33-37.39,72.48-48.87,28.09-11.88,57.95-17.91,88.74-17.91M396,852.05h0c-141.38,0-256,114.61-256,256h0c0,141.39,114.61,256,256,256h0c141.38,0,256-114.61,256-256h0c0-141.39-114.61-256-256-256h0Z"/><path class="cls-5" d="M2604,880.05c30.79,0,60.65,6.02,88.74,17.91,27.15,11.48,51.53,27.93,72.48,48.87,20.95,20.95,37.39,45.33,48.87,72.48,11.88,28.09,17.91,57.95,17.91,88.74s-6.02,60.65-17.91,88.74c-11.48,27.15-27.93,51.53-48.87,72.48-20.95,20.95-45.33,37.39-72.48,48.87-28.09,11.88-57.95,17.91-88.74,17.91s-60.65-6.02-88.74-17.91c-27.15-11.48-51.53-27.93-72.48-48.87-20.95-20.95-37.39-45.33-48.87-72.48-11.88-28.09-17.91-57.95-17.91-88.74s6.02-60.65,17.91-88.74c11.48-27.15,27.93-51.53,48.87-72.48,20.95-20.95,45.33-37.39,72.48-48.87,28.09-11.88,57.95-17.91,88.74-17.91M2604,852.05h0c-141.38,0-256,114.61-256,256h0c0,141.39,114.61,256,256,256h0c141.38,0,256-114.61,256-256h0c0-141.39-114.61-256-256-256h0Z"/><path class="cls-3" d="M2692.74,1449.95c-28.09-11.88-57.95-17.91-88.74-17.91s-60.65,6.02-88.74,17.91c-27.15,11.48-51.53,27.93-72.48,48.87-20.95,20.95-37.39,45.33-48.87,72.48-11.88,28.09-17.91,57.95-17.91,88.74s6.02,60.65,17.91,88.74c11.48,27.15,27.93,51.53,48.87,72.48,20.95,20.95,45.33,37.39,72.48,48.87,28.09,11.88,57.95,17.91,88.74,17.91s60.65-6.02,88.74-17.91c27.15-11.48,51.53-27.93,72.48-48.87,20.95-20.95,37.39-45.33,48.87-72.48,11.88-28.09,17.91-57.95,17.91-88.74s-6.02-60.65-17.91-88.74c-11.48-27.15-27.93-51.53-48.87-72.48-20.95-20.95-45.33-37.39-72.48-48.87Z"/><path class="cls-3" d="M1176,1660.05c0-30.79-6.02-60.65-17.91-88.74-11.48-27.15-27.93-51.53-48.87-72.48s-45.33-37.39-72.48-48.87c-28.09-11.88-57.95-17.91-88.74-17.91s-60.65,6.02-88.74,17.91c-27.15,11.48-51.53,27.93-72.48,48.87s-37.39,45.33-48.87,72.48c-11.88,28.09-17.91,57.95-17.91,88.74s6.02,60.65,17.91,88.74c11.48,27.15,27.93,51.53,48.87,72.48s45.33,37.39,72.48,48.87c28.09,11.88,57.95,17.91,88.74,17.91s60.65-6.02,88.74-17.91c27.15-11.48,51.53-27.93,72.48-48.87s37.39-45.33,48.87-72.48c11.88-28.09,17.91-57.95,17.91-88.74Z"/><path class="cls-2" d="M948,1432.05c30.79,0,60.65,6.02,88.74,17.91,27.15,11.48,51.53,27.93,72.48,48.87s37.39,45.33,48.87,72.48c11.88,28.09,17.91,57.95,17.91,88.74s-6.02,60.65-17.91,88.74c-11.48,27.15-27.93,51.53-48.87,72.48-20.95,20.95-45.33,37.39-72.48,48.87-28.09,11.88-57.95,17.91-88.74,17.91s-60.65-6.02-88.74-17.91c-27.15-11.48-51.53-27.93-72.48-48.87-20.95-20.95-37.39-45.33-48.87-72.48-11.88-28.09-17.91-57.95-17.91-88.74s6.02-60.65,17.91-88.74c11.48-27.15,27.93-51.53,48.87-72.48,20.95-20.95,45.33-37.39,72.48-48.87,28.09-11.88,57.95-17.91,88.74-17.91M948,1404.05h0c-141.38,0-256,114.61-256,256h0c0,141.39,114.61,256,256,256h0c141.38,0,256-114.61,256-256h0c0-141.39-114.61-256-256-256h0Z"/><path class="cls-2" d="M624,1660.05c0-30.79-6.02-60.65-17.91-88.74-11.48-27.15-27.93-51.53-48.87-72.48s-45.33-37.39-72.48-48.87c-28.09-11.88-57.95-17.91-88.74-17.91s-60.65,6.02-88.74,17.91c-27.15,11.48-51.53,27.93-72.48,48.87-20.95,20.95-37.39,45.33-48.87,72.48-11.88,28.09-17.91,57.95-17.91,88.74s6.02,60.65,17.91,88.74c11.48,27.15,27.93,51.53,48.87,72.48,20.95,20.95,45.33,37.39,72.48,48.87,28.09,11.88,57.95,17.91,88.74,17.91s60.65-6.02,88.74-17.91c27.15-11.48,51.53-27.93,72.48-48.87s37.39-45.33,48.87-72.48c11.88-28.09,17.91-57.95,17.91-88.74Z"/><rect class="cls-3" x="1244" y="1404.05" width="512" height="512" rx="256" ry="256"/><path class="cls-3" d="M396,1432.05c30.79,0,60.65,6.02,88.74,17.91,27.15,11.48,51.53,27.93,72.48,48.87s37.39,45.33,48.87,72.48c11.88,28.09,17.91,57.95,17.91,88.74s-6.02,60.65-17.91,88.74c-11.48,27.15-27.93,51.53-48.87,72.48-20.95,20.95-45.33,37.39-72.48,48.87-28.09,11.88-57.95,17.91-88.74,17.91s-60.65-6.02-88.74-17.91c-27.15-11.48-51.53-27.93-72.48-48.87-20.95-20.95-37.39-45.33-48.87-72.48-11.88-28.09-17.91-57.95-17.91-88.74s6.02-60.65,17.91-88.74c11.48-27.15,27.93-51.53,48.87-72.48,20.95-20.95,45.33-37.39,72.48-48.87,28.09-11.88,57.95-17.91,88.74-17.91M396,1404.05h0c-141.38,0-256,114.61-256,256h0c0,141.39,114.61,256,256,256h0c141.38,0,256-114.61,256-256h0c0-141.39-114.61-256-256-256h0Z"/><path class="cls-5" d="M2604,1432.05c30.79,0,60.65,6.02,88.74,17.91,27.15,11.48,51.53,27.93,72.48,48.87,20.95,20.95,37.39,45.33,48.87,72.48,11.88,28.09,17.91,57.95,17.91,88.74s-6.02,60.65-17.91,88.74c-11.48,27.15-27.93,51.53-48.87,72.48-20.95,20.95-45.33,37.39-72.48,48.87-28.09,11.88-57.95,17.91-88.74,17.91s-60.65-6.02-88.74-17.91c-27.15-11.48-51.53-27.93-72.48-48.87-20.95-20.95-37.39-45.33-48.87-72.48-11.88-28.09-17.91-57.95-17.91-88.74s6.02-60.65,17.91-88.74c11.48-27.15,27.93-51.53,48.87-72.48,20.95-20.95,45.33-37.39,72.48-48.87,28.09-11.88,57.95-17.91,88.74-17.91M2604,1404.05h0c-141.38,0-256,114.61-256,256h0c0,141.39,114.61,256,256,256h0c141.38,0,256-114.61,256-256h0c0-141.39-114.61-256-256-256h0Z"/><path class="cls-1" d="M1176,2212.05c0-30.79-6.02-60.65-17.91-88.74-11.48-27.15-27.93-51.53-48.87-72.48s-45.33-37.39-72.48-48.87c-28.09-11.88-57.95-17.91-88.74-17.91s-60.65,6.02-88.74,17.91c-27.15,11.48-51.53,27.93-72.48,48.87s-37.39,45.33-48.87,72.48c-11.88,28.09-17.91,57.95-17.91,88.74s6.02,60.65,17.91,88.74c11.48,27.15,27.93,51.53,48.87,72.48,20.95,20.95,45.33,37.39,72.48,48.87,28.09,11.88,57.95,17.91,88.74,17.91s60.65-6.02,88.74-17.91c27.15-11.48,51.53-27.93,72.48-48.87,20.95-20.95,37.39-45.33,48.87-72.48,11.88-28.09,17.91-57.95,17.91-88.74Z"/><path class="cls-2" d="M948,1984.05c30.79,0,60.65,6.02,88.74,17.91,27.15,11.48,51.53,27.93,72.48,48.87s37.39,45.33,48.87,72.48c11.88,28.09,17.91,57.95,17.91,88.74s-6.02,60.65-17.91,88.74c-11.48,27.15-27.93,51.53-48.87,72.48-20.95,20.95-45.33,37.39-72.48,48.87-28.09,11.88-57.95,17.91-88.74,17.91s-60.65-6.02-88.74-17.91c-27.15-11.48-51.53-27.93-72.48-48.87-20.95-20.95-37.39-45.33-48.87-72.48-11.88-28.09-17.91-57.95-17.91-88.74s6.02-60.65,17.91-88.74c11.48-27.15,27.93-51.53,48.87-72.48,20.95-20.95,45.33-37.39,72.48-48.87,28.09-11.88,57.95-17.91,88.74-17.91M948,1956.05h0c-141.38,0-256,114.61-256,256h0c0,141.39,114.61,256,256,256h0c141.38,0,256-114.61,256-256h0c0-141.39-114.61-256-256-256h0Z"/><path class="cls-2" d="M624,2212.05c0-30.79-6.02-60.65-17.91-88.74-11.48-27.15-27.93-51.53-48.87-72.48s-45.33-37.39-72.48-48.87c-28.09-11.88-57.95-17.91-88.74-17.91s-60.65,6.02-88.74,17.91c-27.15,11.48-51.53,27.93-72.48,48.87-20.95,20.95-37.39,45.33-48.87,72.48-11.88,28.09-17.91,57.95-17.91,88.74s6.02,60.65,17.91,88.74c11.48,27.15,27.93,51.53,48.87,72.48,20.95,20.95,45.33,37.39,72.48,48.87,28.09,11.88,57.95,17.91,88.74,17.91s60.65-6.02,88.74-17.91c27.15-11.48,51.53-27.93,72.48-48.87,20.95-20.95,37.39-45.33,48.87-72.48,11.88-28.09,17.91-57.95,17.91-88.74Z"/><path class="cls-1" d="M1728,2212.05c0-30.79-6.02-60.65-17.91-88.74-11.48-27.15-27.93-51.53-48.87-72.48s-45.33-37.39-72.48-48.87c-28.09-11.88-57.95-17.91-88.74-17.91s-60.65,6.02-88.74,17.91c-27.15,11.48-51.53,27.93-72.48,48.87s-37.39,45.33-48.87,72.48c-11.88,28.09-17.91,57.95-17.91,88.74s6.02,60.65,17.91,88.74c11.48,27.15,27.93,51.53,48.87,72.48,20.95,20.95,45.33,37.39,72.48,48.87,28.09,11.88,57.95,17.91,88.74,17.91s60.65-6.02,88.74-17.91c27.15-11.48,51.53-27.93,72.48-48.87,20.95-20.95,37.39-45.33,48.87-72.48,11.88-28.09,17.91-57.95,17.91-88.74Z"/><path class="cls-2" d="M2280,2212.05c0-30.79-6.02-60.65-17.91-88.74-11.48-27.15-27.93-51.53-48.87-72.48s-45.33-37.39-72.48-48.87c-28.09-11.88-57.95-17.91-88.74-17.91s-60.65,6.02-88.74,17.91c-27.15,11.48-51.53,27.93-72.48,48.87s-37.39,45.33-48.87,72.48c-11.88,28.09-17.91,57.95-17.91,88.74s6.02,60.65,17.91,88.74c11.48,27.15,27.93,51.53,48.87,72.48,20.95,20.95,45.33,37.39,72.48,48.87,28.09,11.88,57.95,17.91,88.74,17.91s60.65-6.02,88.74-17.91c27.15-11.48,51.53-27.93,72.48-48.87,20.95-20.95,37.39-45.33,48.87-72.48,11.88-28.09,17.91-57.95,17.91-88.74Z"/><path class="cls-4" d="M1500,1984.05c30.79,0,60.65,6.02,88.74,17.91,27.15,11.48,51.53,27.93,72.48,48.87s37.39,45.33,48.87,72.48c11.88,28.09,17.91,57.95,17.91,88.74s-6.02,60.65-17.91,88.74c-11.48,27.15-27.93,51.53-48.87,72.48-20.95,20.95-45.33,37.39-72.48,48.87-28.09,11.88-57.95,17.91-88.74,17.91s-60.65-6.02-88.74-17.91c-27.15-11.48-51.53-27.93-72.48-48.87-20.95-20.95-37.39-45.33-48.87-72.48-11.88-28.09-17.91-57.95-17.91-88.74s6.02-60.65,17.91-88.74c11.48-27.15,27.93-51.53,48.87-72.48,20.95-20.95,45.33-37.39,72.48-48.87,28.09-11.88,57.95-17.91,88.74-17.91M1500,1956.05h0c-141.38,0-256,114.61-256,256h0c0,141.39,114.61,256,256,256h0c141.38,0,256-114.61,256-256h0c0-141.39-114.61-256-256-256h0Z"/><path class="cls-2" d="M2052,1984.05c30.79,0,60.65,6.02,88.74,17.91,27.15,11.48,51.53,27.93,72.48,48.87s37.39,45.33,48.87,72.48c11.88,28.09,17.91,57.95,17.91,88.74s-6.02,60.65-17.91,88.74c-11.48,27.15-27.93,51.53-48.87,72.48-20.95,20.95-45.33,37.39-72.48,48.87-28.09,11.88-57.95,17.91-88.74,17.91s-60.65-6.02-88.74-17.91c-27.15-11.48-51.53-27.93-72.48-48.87-20.95-20.95-37.39-45.33-48.87-72.48-11.88-28.09-17.91-57.95-17.91-88.74s6.02-60.65,17.91-88.74c11.48-27.15,27.93-51.53,48.87-72.48,20.95-20.95,45.33-37.39,72.48-48.87,28.09-11.88,57.95-17.91,88.74-17.91M2052,1956.05h0c-141.38,0-256,114.61-256,256h0c0,141.39,114.61,256,256,256h0c141.38,0,256-114.61,256-256h0c0-141.39-114.61-256-256-256h0Z"/><polygon class="cls-1" points="329.46 642.86 380.8 634.48 495.2 662.41 565.44 627.64 468.69 572.4 474.67 515.5 428.51 475.2 372.03 480.6 331.13 405.03 270.78 429.39 265.4 479.78 216.19 495.18 313.75 533.72 329.46 642.86"/><path class="cls-1" d="M212.2,734.34l11.3-11.31v-118.16l-83.5-41.42c1.89,66.39,29.04,126.44,72.2,170.89Z"/><path class="cls-1" d="M143.37,513.81c-.65,3.89-1.21,7.81-1.68,11.76h2.51l103.28,53.21,11.71,108.55,33.85-33.88-8.41-95.62-103.71-48.55-31.88,2.64-5.69,1.91Z"/><polygon class="cls-2" points="881.46 642.86 932.8 634.48 1047.2 662.41 1117.44 627.64 1020.69 572.4 1026.67 515.5 980.51 475.2 924.03 480.6 883.13 405.03 822.78 429.39 817.4 479.78 768.19 495.18 865.75 533.72 881.46 642.86"/><path class="cls-2" d="M764.2,734.34l11.3-11.31v-118.16l-83.5-41.42c1.89,66.39,29.04,126.44,72.2,170.89Z"/><path class="cls-2" d="M695.37,513.81c-.65,3.89-1.21,7.81-1.68,11.76h2.51l103.28,53.21,11.71,108.55,33.85-33.88-8.41-95.62-103.71-48.55-31.88,2.64-5.69,1.91Z"/><polygon class="cls-2" points="1433.46 642.86 1484.8 634.48 1599.2 662.41 1669.44 627.64 1572.69 572.4 1578.67 515.5 1532.51 475.2 1476.03 480.6 1435.13 405.03 1374.78 429.39 1369.4 479.78 1320.19 495.18 1417.75 533.72 1433.46 642.86"/><path class="cls-2" d="M1316.2,734.34l11.3-11.31v-118.16l-83.5-41.42c1.89,66.39,29.04,126.44,72.2,170.89Z"/><path class="cls-2" d="M1247.37,513.81c-.65,3.89-1.21,7.81-1.68,11.76h2.51l103.28,53.21,11.71,108.55,33.85-33.88-8.41-95.62-103.71-48.55-31.88,2.64-5.69,1.91Z"/><polygon class="cls-1" points="1985.46 642.86 2036.8 634.48 2151.2 662.41 2221.44 627.64 2124.69 572.4 2130.67 515.5 2084.51 475.2 2028.03 480.6 1987.13 405.03 1926.78 429.39 1921.4 479.78 1872.19 495.18 1969.75 533.72 1985.46 642.86"/><path class="cls-1" d="M1868.2,734.34l11.3-11.31v-118.16l-83.5-41.42c1.89,66.39,29.04,126.44,72.2,170.89Z"/><path class="cls-1" d="M1799.37,513.81c-.65,3.89-1.21,7.81-1.68,11.76h2.51l103.28,53.21,11.71,108.55,33.85-33.88-8.41-95.62-103.71-48.55-31.88,2.64-5.69,1.91Z"/><polygon class="cls-5" points="2537.46 642.86 2588.8 634.48 2703.2 662.41 2773.44 627.64 2676.69 572.4 2682.67 515.5 2636.51 475.2 2580.03 480.6 2539.13 405.03 2478.78 429.39 2473.4 479.78 2424.19 495.18 2521.75 533.72 2537.46 642.86"/><path class="cls-5" d="M2420.2,734.34l11.3-11.31v-118.16l-83.5-41.42c1.89,66.39,29.04,126.44,72.2,170.89Z"/><path class="cls-5" d="M2351.37,513.81c-.65,3.89-1.21,7.81-1.68,11.76h2.51l103.28,53.21,11.71,108.55,33.85-33.88-8.41-95.62-103.71-48.55-31.88,2.64-5.69,1.91Z"/><polygon class="cls-4" points="329.46 1194.86 380.8 1186.48 495.2 1214.41 565.44 1179.64 468.69 1124.4 474.67 1067.5 428.51 1027.2 372.03 1032.6 331.13 957.03 270.78 981.39 265.4 1031.78 216.19 1047.18 313.75 1085.72 329.46 1194.86"/><path class="cls-4" d="M212.2,1286.34l11.3-11.31v-118.16l-83.5-41.42c1.89,66.39,29.04,126.44,72.2,170.89Z"/><path class="cls-4" d="M143.37,1065.81c-.65,3.89-1.21,7.81-1.68,11.76h2.51l103.28,53.21,11.71,108.55,33.85-33.88-8.41-95.62-103.71-48.55-31.88,2.64-5.69,1.91Z"/><polygon class="cls-2" points="881.46 1194.86 932.8 1186.48 1047.2 1214.41 1117.44 1179.64 1020.69 1124.4 1026.67 1067.5 980.51 1027.2 924.03 1032.6 883.13 957.03 822.78 981.39 817.4 1031.78 768.19 1047.18 865.75 1085.72 881.46 1194.86"/><path class="cls-2" d="M764.2,1286.34l11.3-11.31v-118.16l-83.5-41.42c1.89,66.39,29.04,126.44,72.2,170.89Z"/><path class="cls-2" d="M695.37,1065.81c-.65,3.89-1.21,7.81-1.68,11.76h2.51l103.28,53.21,11.71,108.55,33.85-33.88-8.41-95.62-103.71-48.55-31.88,2.64-5.69,1.91Z"/><polygon class="cls-2" points="1433.46 1194.86 1484.8 1186.48 1599.2 1214.41 1669.44 1179.64 1572.69 1124.4 1578.67 1067.5 1532.51 1027.2 1476.03 1032.6 1435.13 957.03 1374.78 981.39 1369.4 1031.78 1320.19 1047.18 1417.75 1085.72 1433.46 1194.86"/><path class="cls-2" d="M1316.2,1286.34l11.3-11.31v-118.16l-83.5-41.42c1.89,66.39,29.04,126.44,72.2,170.89Z"/><path class="cls-2" d="M1247.37,1065.81c-.65,3.89-1.21,7.81-1.68,11.76h2.51l103.28,53.21,11.71,108.55,33.85-33.88-8.41-95.62-103.71-48.55-31.88,2.64-5.69,1.91Z"/><polygon class="cls-5" points="2537.46 1194.86 2588.8 1186.48 2703.2 1214.41 2773.44 1179.64 2676.69 1124.4 2682.67 1067.5 2636.51 1027.2 2580.03 1032.6 2539.13 957.03 2478.78 981.39 2473.4 1031.78 2424.19 1047.18 2521.75 1085.72 2537.46 1194.86"/><path class="cls-5" d="M2420.2,1286.34l11.3-11.31v-118.16l-83.5-41.42c1.89,66.39,29.04,126.44,72.2,170.89Z"/><path class="cls-5" d="M2351.37,1065.81c-.65,3.89-1.21,7.81-1.68,11.76h2.51l103.28,53.21,11.71,108.55,33.85-33.88-8.41-95.62-103.71-48.55-31.88,2.64-5.69,1.91Z"/><polygon class="cls-3" points="329.46 1746.86 380.8 1738.48 495.2 1766.41 565.44 1731.64 468.69 1676.4 474.67 1619.5 428.51 1579.2 372.03 1584.6 331.13 1509.03 270.78 1533.39 265.4 1583.78 216.19 1599.18 313.75 1637.72 329.46 1746.86"/><path class="cls-3" d="M212.2,1838.34l11.3-11.31v-118.16l-83.5-41.42c1.89,66.39,29.04,126.44,72.2,170.89Z"/><path class="cls-3" d="M143.37,1617.81c-.65,3.89-1.21,7.81-1.68,11.76h2.51l103.28,53.21,11.71,108.55,33.85-33.88-8.41-95.62-103.71-48.55-31.88,2.64-5.69,1.91Z"/><polygon class="cls-2" points="881.46 1746.86 932.8 1738.48 1047.2 1766.41 1117.44 1731.64 1020.69 1676.4 1026.67 1619.5 980.51 1579.2 924.03 1584.6 883.13 1509.03 822.78 1533.39 817.4 1583.78 768.19 1599.18 865.75 1637.72 881.46 1746.86"/><path class="cls-2" d="M764.2,1838.34l11.3-11.31v-118.16l-83.5-41.42c1.89,66.39,29.04,126.44,72.2,170.89Z"/><path class="cls-2" d="M695.37,1617.81c-.65,3.89-1.21,7.81-1.68,11.76h2.51l103.28,53.21,11.71,108.55,33.85-33.88-8.41-95.62-103.71-48.55-31.88,2.64-5.69,1.91Z"/><polygon class="cls-2" points="1433.46 1746.86 1484.8 1738.48 1599.2 1766.41 1669.44 1731.64 1572.69 1676.4 1578.67 1619.5 1532.51 1579.2 1476.03 1584.6 1435.13 1509.03 1374.78 1533.39 1369.4 1583.78 1320.19 1599.18 1417.75 1637.72 1433.46 1746.86"/><path class="cls-2" d="M1316.2,1838.34l11.3-11.31v-118.16l-83.5-41.42c1.89,66.39,29.04,126.44,72.2,170.89Z"/><path class="cls-2" d="M1247.37,1617.81c-.65,3.89-1.21,7.81-1.68,11.76h2.51l103.28,53.21,11.71,108.55,33.85-33.88-8.41-95.62-103.71-48.55-31.88,2.64-5.69,1.91Z"/><polygon class="cls-5" points="2537.46 1746.86 2588.8 1738.48 2703.2 1766.41 2773.44 1731.64 2676.69 1676.4 2682.67 1619.5 2636.51 1579.2 2580.03 1584.6 2539.13 1509.03 2478.78 1533.39 2473.4 1583.78 2424.19 1599.18 2521.75 1637.72 2537.46 1746.86"/><path class="cls-5" d="M2420.2,1838.34l11.3-11.31v-118.16l-83.5-41.42c1.89,66.39,29.04,126.44,72.2,170.89Z"/><path class="cls-5" d="M2351.37,1617.81c-.65,3.89-1.21,7.81-1.68,11.76h2.51l103.28,53.21,11.71,108.55,33.85-33.88-8.41-95.62-103.71-48.55-31.88,2.64-5.69,1.91Z"/><polygon class="cls-5" points="329.46 2298.86 380.8 2290.48 495.2 2318.41 565.44 2283.64 468.69 2228.4 474.67 2171.5 428.51 2131.2 372.03 2136.6 331.13 2061.03 270.78 2085.39 265.4 2135.78 216.19 2151.18 313.75 2189.72 329.46 2298.86"/><path class="cls-5" d="M212.2,2390.34l11.3-11.31v-118.16l-83.5-41.42c1.89,66.39,29.04,126.44,72.2,170.89Z"/><path class="cls-5" d="M143.37,2169.81c-.65,3.89-1.21,7.81-1.68,11.76h2.51l103.28,53.21,11.71,108.55,33.85-33.88-8.41-95.62-103.71-48.55-31.88,2.64-5.69,1.91Z"/><polygon class="cls-2" points="881.46 2298.86 932.8 2290.48 1047.2 2318.41 1117.44 2283.64 1020.69 2228.4 1026.67 2171.5 980.51 2131.2 924.03 2136.6 883.13 2061.03 822.78 2085.39 817.4 2135.78 768.19 2151.18 865.75 2189.72 881.46 2298.86"/><path class="cls-2" d="M764.2,2390.34l11.3-11.31v-118.16l-83.5-41.42c1.89,66.39,29.04,126.44,72.2,170.89Z"/><path class="cls-2" d="M695.37,2169.81c-.65,3.89-1.21,7.81-1.68,11.76h2.51l103.28,53.21,11.71,108.55,33.85-33.88-8.41-95.62-103.71-48.55-31.88,2.64-5.69,1.91Z"/><polygon class="cls-4" points="1433.46 2298.86 1484.8 2290.48 1599.2 2318.41 1669.44 2283.64 1572.69 2228.4 1578.67 2171.5 1532.51 2131.2 1476.03 2136.6 1435.13 2061.03 1374.78 2085.39 1369.4 2135.78 1320.19 2151.18 1417.75 2189.72 1433.46 2298.86"/><path class="cls-4" d="M1316.2,2390.34l11.3-11.31v-118.16l-83.5-41.42c1.89,66.39,29.04,126.44,72.2,170.89Z"/><path class="cls-4" d="M1247.37,2169.81c-.65,3.89-1.21,7.81-1.68,11.76h2.51l103.28,53.21,11.71,108.55,33.85-33.88-8.41-95.62-103.71-48.55-31.88,2.64-5.69,1.91Z"/><polygon class="cls-1" points="1985.46 2298.86 2036.8 2290.48 2151.2 2318.41 2221.44 2283.64 2124.69 2228.4 2130.67 2171.5 2084.51 2131.2 2028.03 2136.6 1987.13 2061.03 1926.78 2085.39 1921.4 2135.78 1872.19 2151.18 1969.75 2189.72 1985.46 2298.86"/><path class="cls-1" d="M1868.2,2390.34l11.3-11.31v-118.16l-83.5-41.42c1.89,66.39,29.04,126.44,72.2,170.89Z"/><path class="cls-1" d="M1799.37,2169.81c-.65,3.89-1.21,7.81-1.68,11.76h2.51l103.28,53.21,11.71,108.55,33.85-33.88-8.41-95.62-103.71-48.55-31.88,2.64-5.69,1.91Z"/><path class="cls-2" d="M2604,1956.05h0c-126.98,0-232.35,92.46-252.5,213.72l5.56-1.86,31.88-2.64,103.71,48.55,8.41,95.62-33.85,33.88-11.71-108.55-103.28-53.21h-2.4c-1.19,10-1.81,20.16-1.81,30.48h0c0,2.5.05,4.98.12,7.46l83.38,41.36v118.16l-11.24,11.25c46.53,47.96,111.65,77.77,183.74,77.77h0c141.38,0,256-114.61,256-256h0c0-141.39-114.61-256-256-256ZM2703.2,2318.41l-114.4-27.92-51.34,8.37-15.7-109.14-97.57-38.54,49.21-15.4,5.39-50.39,60.35-24.35,40.9,75.56,56.47-5.4,46.17,40.3-5.98,56.9,96.74,55.24-70.24,34.77Z"/><path class="cls-3" d="M2052,1404.05h0c-126.98,0-232.35,92.46-252.5,213.72l5.56-1.86,31.88-2.64,103.71,48.55,8.41,95.62-33.85,33.88-11.71-108.55-103.28-53.21h-2.4c-1.19,10-1.81,20.16-1.81,30.48h0c0,2.5.05,4.98.12,7.46l83.38,41.36v118.16l-11.24,11.25c46.53,47.96,111.65,77.77,183.74,77.77h0c141.38,0,256-114.61,256-256h0c0-141.39-114.61-256-256-256ZM2151.2,1766.41l-114.4-27.92-51.34,8.37-15.7-109.14-97.57-38.54,49.21-15.4,5.39-50.39,60.35-24.35,40.9,75.56,56.47-5.4,46.17,40.3-5.98,56.9,96.74,55.24-70.24,34.77Z"/><path class="cls-4" d="M2052,852.05h0c-126.98,0-232.35,92.46-252.5,213.72l5.56-1.86,31.88-2.64,103.71,48.55,8.41,95.62-33.85,33.88-11.71-108.55-103.28-53.21h-2.4c-1.19,10-1.81,20.16-1.81,30.48h0c0,2.5.05,4.98.12,7.46l83.38,41.36v118.16l-11.24,11.25c46.53,47.96,111.65,77.77,183.74,77.77h0c141.38,0,256-114.61,256-256h0c0-141.39-114.61-256-256-256ZM2151.2,1214.41l-114.4-27.92-51.34,8.37-15.7-109.14-97.57-38.54,49.21-15.4,5.39-50.39,60.35-24.35,40.9,75.56,56.47-5.4,46.17,40.3-5.98,56.9,96.74,55.24-70.24,34.77Z"/><path class="cls-1" d="M396,1984.05c30.79,0,60.65,6.02,88.74,17.91,27.15,11.48,51.53,27.93,72.48,48.87s37.39,45.33,48.87,72.48c11.88,28.09,17.91,57.95,17.91,88.74s-6.02,60.65-17.91,88.74c-11.48,27.15-27.93,51.53-48.87,72.48-20.95,20.95-45.33,37.39-72.48,48.87-28.09,11.88-57.95,17.91-88.74,17.91s-60.65-6.02-88.74-17.91c-27.15-11.48-51.53-27.93-72.48-48.87-20.95-20.95-37.39-45.33-48.87-72.48-11.88-28.09-17.91-57.95-17.91-88.74s6.02-60.65,17.91-88.74c11.48-27.15,27.93-51.53,48.87-72.48,20.95-20.95,45.33-37.39,72.48-48.87,28.09-11.88,57.95-17.91,88.74-17.91M396,1956.05h0c-141.38,0-256,114.61-256,256h0c0,141.39,114.61,256,256,256h0c141.38,0,256-114.61,256-256h0c0-141.39-114.61-256-256-256h0Z"/></svg>