<?xml version="1.0" encoding="UTF-8"?><svg id="Calque_1" xmlns="http://www.w3.org/2000/svg" viewBox="0 0 3000 2768.1"><defs><style>.cls-1{fill:#91130b;}.cls-1,.cls-2,.cls-3,.cls-4,.cls-5{stroke-width:0px;}.cls-2{fill:#000;}.cls-3{fill:#7f7f7f;}.cls-4{fill:#00fcfb;}.cls-5{fill:#fff;}</style></defs><path class="cls-2" d="M236.07,312.55h319.86c46.12,0,83.57,37.45,83.57,83.57v319.86c0,46.12-37.45,83.57-83.57,83.57H236.07c-46.12,0-83.57-37.45-83.57-83.57v-319.86c0-46.12,37.45-83.57,83.57-83.57Z"/><path class="cls-1" d="M555.93,325.05c39.19,0,71.07,31.88,71.07,71.07v319.86c0,39.19-31.88,71.07-71.07,71.07H236.07c-39.19,0-71.07-31.88-71.07-71.07v-319.86c0-39.19,31.88-71.07,71.07-71.07h319.86M555.93,300.05H236.07c-53.06,0-96.07,43.01-96.07,96.07v319.86c0,53.06,43.01,96.07,96.07,96.07h319.86c53.06,0,96.07-43.01,96.07-96.07v-319.86c0-53.06-43.01-96.07-96.07-96.07h0Z"/><path class="cls-1" d="M788.07,312.55h319.86c46.12,0,83.57,37.45,83.57,83.57v319.86c0,46.12-37.45,83.57-83.57,83.57h-319.86c-46.12,0-83.57-37.45-83.57-83.57v-319.86c0-46.12,37.45-83.57,83.57-83.57Z"/><path class="cls-2" d="M1107.93,325.05c39.19,0,71.07,31.88,71.07,71.07v319.86c0,39.19-31.88,71.07-71.07,71.07h-319.86c-39.19,0-71.07-31.88-71.07-71.07v-319.86c0-39.19,31.88-71.07,71.07-71.07h319.86M1107.93,300.05h-319.86c-53.06,0-96.07,43.01-96.07,96.07v319.86c0,53.06,43.01,96.07,96.07,96.07h319.86c53.06,0,96.07-43.01,96.07-96.07v-319.86c0-53.06-43.01-96.07-96.07-96.07h0Z"/><rect class="cls-1" x="1244" y="300.05" width="512" height="512" rx="96.07" ry="96.07"/><rect class="cls-1" x="2360.5" y="312.55" width="487" height="487" rx="83.57" ry="83.57"/><path class="cls-5" d="M2763.93,325.05c39.19,0,71.07,31.88,71.07,71.07v319.86c0,39.19-31.88,71.07-71.07,71.07h-319.86c-39.19,0-71.07-31.88-71.07-71.07v-319.86c0-39.19,31.88-71.07,71.07-71.07h319.86M2763.93,300.05h-319.86c-53.06,0-96.07,43.01-96.07,96.07v319.86c0,53.06,43.01,96.07,96.07,96.07h319.86c53.06,0,96.07-43.01,96.07-96.07v-319.86c0-53.06-43.01-96.07-96.07-96.07h0Z"/><path class="cls-2" d="M236.07,864.55h319.86c46.12,0,83.57,37.45,83.57,83.57v319.86c0,46.12-37.45,83.57-83.57,83.57H236.07c-46.12,0-83.57-37.45-83.57-83.57v-319.86c0-46.12,37.45-83.57,83.57-83.57Z"/><path class="cls-4" d="M555.93,877.05c39.19,0,71.07,31.88,71.07,71.07v319.86c0,39.19-31.88,71.07-71.07,71.07H236.07c-39.19,0-71.07-31.88-71.07-71.07v-319.86c0-39.19,31.88-71.07,71.07-71.07h319.86M555.93,852.05H236.07c-53.06,0-96.07,43.01-96.07,96.07v319.86c0,53.06,43.01,96.07,96.07,96.07h319.86c53.06,0,96.07-43.01,96.07-96.07v-319.86c0-53.06-43.01-96.07-96.07-96.07h0Z"/><path class="cls-4" d="M788.07,864.55h319.86c46.12,0,83.57,37.45,83.57,83.57v319.86c0,46.12-37.45,83.57-83.57,83.57h-319.86c-46.12,0-83.57-37.45-83.57-83.57v-319.86c0-46.12,37.45-83.57,83.57-83.57Z"/><path class="cls-2" d="M1107.93,877.05c39.19,0,71.07,31.88,71.07,71.07v319.86c0,39.19-31.88,71.07-71.07,71.07h-319.86c-39.19,0-71.07-31.88-71.07-71.07v-319.86c0-39.19,31.88-71.07,71.07-71.07h319.86M1107.93,852.05h-319.86c-53.06,0-96.07,43.01-96.07,96.07v319.86c0,53.06,43.01,96.07,96.07,96.07h319.86c53.06,0,96.07-43.01,96.07-96.07v-319.86c0-53.06-43.01-96.07-96.07-96.07h0Z"/><rect class="cls-4" x="1244" y="852.05" width="512" height="512" rx="96.07" ry="96.07"/><path class="cls-2" d="M236.07,1416.55h319.86c46.12,0,83.57,37.45,83.57,83.57v319.86c0,46.12-37.45,83.57-83.57,83.57H236.07c-46.12,0-83.57-37.45-83.57-83.57v-319.86c0-46.12,37.45-83.57,83.57-83.57Z"/><path class="cls-3" d="M555.93,1429.05c39.19,0,71.07,31.88,71.07,71.07v319.86c0,39.19-31.88,71.07-71.07,71.07H236.07c-39.19,0-71.07-31.88-71.07-71.07v-319.86c0-39.19,31.88-71.07,71.07-71.07h319.86M555.93,1404.05H236.07c-53.06,0-96.07,43.01-96.07,96.07v319.86c0,53.06,43.01,96.07,96.07,96.07h319.86c53.06,0,96.07-43.01,96.07-96.07v-319.86c0-53.06-43.01-96.07-96.07-96.07h0Z"/><path class="cls-3" d="M788.07,1416.55h319.86c46.12,0,83.57,37.45,83.57,83.57v319.86c0,46.12-37.45,83.57-83.57,83.57h-319.86c-46.12,0-83.57-37.45-83.57-83.57v-319.86c0-46.12,37.45-83.57,83.57-83.57Z"/><path class="cls-2" d="M1107.93,1429.05c39.19,0,71.07,31.88,71.07,71.07v319.86c0,39.19-31.88,71.07-71.07,71.07h-319.86c-39.19,0-71.07-31.88-71.07-71.07v-319.86c0-39.19,31.88-71.07,71.07-71.07h319.86M1107.93,1404.05h-319.86c-53.06,0-96.07,43.01-96.07,96.07v319.86c0,53.06,43.01,96.07,96.07,96.07h319.86c53.06,0,96.07-43.01,96.07-96.07v-319.86c0-53.06-43.01-96.07-96.07-96.07h0Z"/><rect class="cls-3" x="1244" y="1404.05" width="512" height="512" rx="96.07" ry="96.07"/><path class="cls-2" d="M236.07,1968.55h319.86c46.12,0,83.57,37.45,83.57,83.57v319.86c0,46.12-37.45,83.57-83.57,83.57H236.07c-46.12,0-83.57-37.45-83.57-83.57v-319.86c0-46.12,37.45-83.57,83.57-83.57Z"/><path class="cls-1" d="M555.93,1981.05c39.19,0,71.07,31.88,71.07,71.07v319.86c0,39.19-31.88,71.07-71.07,71.07H236.07c-39.19,0-71.07-31.88-71.07-71.07v-319.86c0-39.19,31.88-71.07,71.07-71.07h319.86M555.93,1956.05H236.07c-53.06,0-96.07,43.01-96.07,96.07v319.86c0,53.06,43.01,96.07,96.07,96.07h319.86c53.06,0,96.07-43.01,96.07-96.07v-319.86c0-53.06-43.01-96.07-96.07-96.07h0Z"/><path class="cls-1" d="M788.07,1968.55h319.86c46.12,0,83.57,37.45,83.57,83.57v319.86c0,46.12-37.45,83.57-83.57,83.57h-319.86c-46.12,0-83.57-37.45-83.57-83.57v-319.86c0-46.12,37.45-83.57,83.57-83.57Z"/><path class="cls-2" d="M1107.93,1981.05c39.19,0,71.07,31.88,71.07,71.07v319.86c0,39.19-31.88,71.07-71.07,71.07h-319.86c-39.19,0-71.07-31.88-71.07-71.07v-319.86c0-39.19,31.88-71.07,71.07-71.07h319.86M1107.93,1956.05h-319.86c-53.06,0-96.07,43.01-96.07,96.07v319.86c0,53.06,43.01,96.07,96.07,96.07h319.86c53.06,0,96.07-43.01,96.07-96.07v-319.86c0-53.06-43.01-96.07-96.07-96.07h0Z"/><path class="cls-1" d="M1340.07,1968.55h319.86c46.12,0,83.57,37.45,83.57,83.57v319.86c0,46.12-37.45,83.57-83.57,83.57h-319.86c-46.12,0-83.57-37.45-83.57-83.57v-319.86c0-46.12,37.45-83.57,83.57-83.57Z"/><path class="cls-4" d="M1659.93,1981.05c39.19,0,71.07,31.88,71.07,71.07v319.86c0,39.19-31.88,71.07-71.07,71.07h-319.86c-39.19,0-71.07-31.88-71.07-71.07v-319.86c0-39.19,31.88-71.07,71.07-71.07h319.86M1659.93,1956.05h-319.86c-53.06,0-96.07,43.01-96.07,96.07v319.86c0,53.06,43.01,96.07,96.07,96.07h319.86c53.06,0,96.07-43.01,96.07-96.07v-319.86c0-53.06-43.01-96.07-96.07-96.07h0Z"/><rect class="cls-2" x="1796" y="1956.05" width="512" height="512" rx="96.07" ry="96.07"/><polygon class="cls-1" points="376.28 490.52 405.08 501.28 421.72 474.78 431.95 460.25 424.93 445.07 382.04 464.12 376.28 490.52"/><polygon class="cls-1" points="479.69 563.41 492.56 603.28 529.68 603.28 542.05 529.33 517.31 523.55 479.69 563.41"/><path class="cls-1" d="M578.13,639.4h0c1.75-26.46.6-28.56,2.4-57.85-4.34,32.2-4.1,34.28-8.14,66.51l4.16-2.18c25.17-13.12,75.46-39.46,75.46-39.46v-7.83s-49.26,27.18-73.87,40.82Z"/><path class="cls-1" d="M343.94,389.49h0c23.7-29.76,47.32-59.57,70.84-89.44h-10.53c-23.79,31.52-47.49,63.11-71.13,94.75,26.19-.97,27.78-2.28,53.97-3.6-22.44-1.13-24.02-1.05-43.15-1.71Z"/><path class="cls-1" d="M577.67,524.19l74.28-11.98v-116.09c0-53.06-43.01-96.07-96.07-96.07h-88.92l-22.76,98.58,8.88,66.04-49.44,79.69-66.17,59.51-83.09,35.75,3.53,1.93,82.37-25.66,49.26-33.47,3.78-.33-22.16,62.63,5.85,89.5,4.29,1.39,2.41-89.07,32.72-66.7,111.4-96.07,49.84,40.41Z"/><polygon class="cls-2" points="928.28 490.52 957.08 501.28 973.72 474.78 983.95 460.25 976.93 445.07 934.04 464.12 928.28 490.52"/><polygon class="cls-2" points="1031.69 563.41 1044.56 603.28 1081.68 603.28 1094.05 529.33 1069.31 523.55 1031.69 563.41"/><path class="cls-2" d="M1130.13,639.4h0c1.75-26.46.6-28.56,2.4-57.85-4.34,32.2-4.1,34.28-8.14,66.51l4.16-2.18c25.17-13.12,75.46-39.46,75.46-39.46v-7.83s-49.26,27.18-73.87,40.82Z"/><path class="cls-2" d="M895.94,389.49h0c23.7-29.76,47.32-59.57,70.84-89.44h-10.53c-23.79,31.52-47.49,63.11-71.13,94.75,26.19-.97,27.78-2.28,53.97-3.6-22.44-1.13-24.02-1.05-43.15-1.71Z"/><path class="cls-2" d="M1129.67,524.19l74.28-11.98v-116.09c0-53.06-43.01-96.07-96.07-96.07h-88.92l-22.76,98.58,8.88,66.04-49.44,79.69-66.17,59.51-83.09,35.75,3.53,1.93,82.37-25.66,49.26-33.47,3.78-.33-22.16,62.63,5.85,89.5,4.29,1.39,2.41-89.07,32.72-66.7,111.4-96.07,49.84,40.41Z"/><polygon class="cls-2" points="1480.28 490.52 1509.08 501.28 1525.72 474.78 1535.95 460.25 1528.93 445.07 1486.04 464.12 1480.28 490.52"/><polygon class="cls-2" points="1583.69 563.41 1596.56 603.28 1633.68 603.28 1646.05 529.33 1621.31 523.55 1583.69 563.41"/><path class="cls-2" d="M1682.13,639.4h0c1.75-26.46.6-28.56,2.4-57.85-4.34,32.2-4.1,34.28-8.14,66.51l4.16-2.18c25.17-13.12,75.46-39.46,75.46-39.46v-7.83s-49.26,27.18-73.87,40.82Z"/><path class="cls-2" d="M1447.94,389.49h0c23.7-29.76,47.32-59.57,70.84-89.44h-10.53c-23.79,31.52-47.49,63.11-71.13,94.75,26.19-.97,27.78-2.28,53.97-3.6-22.44-1.13-24.02-1.05-43.15-1.71Z"/><path class="cls-2" d="M1681.67,524.19l74.28-11.98v-116.09c0-53.06-43.01-96.07-96.07-96.07h-88.92l-22.76,98.58,8.88,66.04-49.44,79.69-66.17,59.51-83.09,35.75,3.53,1.93,82.37-25.66,49.26-33.47,3.78-.33-22.16,62.63,5.85,89.5,4.29,1.39,2.41-89.07,32.72-66.7,111.4-96.07,49.84,40.41Z"/><path class="cls-1" d="M2307.95,512.2l-74.28,11.98-49.84-40.41-111.4,96.07-32.72,66.7-2.41,89.07-4.29-1.39-5.85-89.5,22.16-62.63-3.78.33-49.26,33.47-82.37,25.66-3.53-1.93,83.09-35.75,66.17-59.51,49.44-79.69-8.88-66.04,22.76-98.58h-52.18c-23.53,29.88-47.14,59.69-70.84,89.43h0c19.13.67,20.71.59,43.15,1.72-26.19,1.31-27.78,2.63-53.97,3.6,23.64-31.64,47.34-63.22,71.13-94.75h-168.18c-53.06,0-96.07,43.01-96.07,96.07v319.86c0,53.06,43.01,96.07,96.07,96.07h319.86c53.06,0,96.07-43.01,96.07-96.07v-109.56s-50.29,26.34-75.46,39.46l-4.16,2.18c4.04-32.23,3.8-34.31,8.14-66.51-1.79,29.29-.65,31.4-2.4,57.85h0c24.61-13.64,73.87-40.82,73.87-40.82M2038.04,464.12l42.89-19.05,7.02,15.18-10.23,14.53-16.64,26.49-28.81-10.76,5.76-26.4ZM2185.68,603.28h-37.12l-12.87-39.87,37.61-39.87,24.74,5.78-12.37,73.96Z"/><polygon class="cls-5" points="2584.28 490.52 2613.08 501.28 2629.72 474.78 2639.95 460.25 2632.93 445.07 2590.04 464.12 2584.28 490.52"/><polygon class="cls-5" points="2687.69 563.41 2700.56 603.28 2737.68 603.28 2750.05 529.33 2725.31 523.55 2687.69 563.41"/><path class="cls-5" d="M2786.13,639.4h0c1.75-26.46.6-28.56,2.4-57.85-4.34,32.2-4.1,34.28-8.14,66.51l4.16-2.18c25.17-13.12,75.46-39.46,75.46-39.46v-7.83s-49.26,27.18-73.87,40.82Z"/><path class="cls-5" d="M2551.94,389.49h0c23.7-29.76,47.32-59.57,70.84-89.44h-10.53c-23.79,31.52-47.49,63.11-71.13,94.75,26.19-.97,27.78-2.28,53.97-3.6-22.44-1.13-24.02-1.05-43.15-1.71Z"/><path class="cls-5" d="M2785.67,524.19l74.28-11.98v-116.09c0-53.06-43.01-96.07-96.07-96.07h-88.92l-22.76,98.58,8.88,66.04-49.44,79.69-66.17,59.51-83.09,35.75,3.53,1.93,82.37-25.66,49.26-33.47,3.78-.33-22.16,62.63,5.85,89.5,4.29,1.39,2.41-89.07,32.72-66.7,111.4-96.07,49.84,40.41Z"/><polygon class="cls-4" points="376.28 1042.52 405.08 1053.28 421.72 1026.78 431.95 1012.25 424.93 997.07 382.04 1016.12 376.28 1042.52"/><polygon class="cls-4" points="479.69 1115.41 492.56 1155.28 529.68 1155.28 542.05 1081.33 517.31 1075.55 479.69 1115.41"/><path class="cls-4" d="M578.13,1191.4h0c1.75-26.46.6-28.56,2.4-57.85-4.34,32.2-4.1,34.28-8.14,66.51l4.16-2.18c25.17-13.12,75.46-39.46,75.46-39.46v-7.83s-49.26,27.18-73.87,40.82Z"/><path class="cls-4" d="M343.94,941.49h0c23.7-29.76,47.32-59.57,70.84-89.44h-10.53c-23.79,31.52-47.49,63.11-71.13,94.75,26.19-.97,27.78-2.28,53.97-3.6-22.44-1.13-24.02-1.05-43.15-1.71Z"/><path class="cls-4" d="M577.67,1076.19l74.28-11.98v-116.09c0-53.06-43.01-96.07-96.07-96.07h-88.92l-22.76,98.58,8.88,66.04-49.44,79.69-66.17,59.51-83.09,35.75,3.53,1.93,82.37-25.66,49.26-33.47,3.78-.33-22.16,62.63,5.85,89.5,4.29,1.39,2.41-89.07,32.72-66.7,111.4-96.07,49.84,40.41Z"/><polygon class="cls-2" points="928.28 1042.52 957.08 1053.28 973.72 1026.78 983.95 1012.25 976.93 997.07 934.04 1016.12 928.28 1042.52"/><polygon class="cls-2" points="1031.69 1115.41 1044.56 1155.28 1081.68 1155.28 1094.05 1081.33 1069.31 1075.55 1031.69 1115.41"/><path class="cls-2" d="M1130.13,1191.4h0c1.75-26.46.6-28.56,2.4-57.85-4.34,32.2-4.1,34.28-8.14,66.51l4.16-2.18c25.17-13.12,75.46-39.46,75.46-39.46v-7.83s-49.26,27.18-73.87,40.82Z"/><path class="cls-2" d="M895.94,941.49h0c23.7-29.76,47.32-59.57,70.84-89.44h-10.53c-23.79,31.52-47.49,63.11-71.13,94.75,26.19-.97,27.78-2.28,53.97-3.6-22.44-1.13-24.02-1.05-43.15-1.71Z"/><path class="cls-2" d="M1129.67,1076.19l74.28-11.98v-116.09c0-53.06-43.01-96.07-96.07-96.07h-88.92l-22.76,98.58,8.88,66.04-49.44,79.69-66.17,59.51-83.09,35.75,3.53,1.93,82.37-25.66,49.26-33.47,3.78-.33-22.16,62.63,5.85,89.5,4.29,1.39,2.41-89.07,32.72-66.7,111.4-96.07,49.84,40.41Z"/><polygon class="cls-2" points="1480.28 1042.52 1509.08 1053.28 1525.72 1026.78 1535.95 1012.25 1528.93 997.07 1486.04 1016.12 1480.28 1042.52"/><polygon class="cls-2" points="1583.69 1115.41 1596.56 1155.28 1633.68 1155.28 1646.05 1081.33 1621.31 1075.55 1583.69 1115.41"/><path class="cls-2" d="M1682.13,1191.4h0c1.75-26.46.6-28.56,2.4-57.85-4.34,32.2-4.1,34.28-8.14,66.51l4.16-2.18c25.17-13.12,75.46-39.46,75.46-39.46v-7.83s-49.26,27.18-73.87,40.82Z"/><path class="cls-2" d="M1447.94,941.49h0c23.7-29.76,47.32-59.57,70.84-89.44h-10.53c-23.79,31.52-47.49,63.11-71.13,94.75,26.19-.97,27.78-2.28,53.97-3.6-22.44-1.13-24.02-1.05-43.15-1.71Z"/><path class="cls-2" d="M1681.67,1076.19l74.28-11.98v-116.09c0-53.06-43.01-96.07-96.07-96.07h-88.92l-22.76,98.58,8.88,66.04-49.44,79.69-66.17,59.51-83.09,35.75,3.53,1.93,82.37-25.66,49.26-33.47,3.78-.33-22.16,62.63,5.85,89.5,4.29,1.39,2.41-89.07,32.72-66.7,111.4-96.07,49.84,40.41Z"/><polygon class="cls-3" points="376.28 1594.52 405.08 1605.28 421.72 1578.78 431.95 1564.25 424.93 1549.07 382.04 1568.12 376.28 1594.52"/><polygon class="cls-3" points="479.69 1667.41 492.56 1707.28 529.68 1707.28 542.05 1633.33 517.31 1627.55 479.69 1667.41"/><path class="cls-3" d="M578.13,1743.4h0c1.75-26.46.6-28.56,2.4-57.85-4.34,32.2-4.1,34.28-8.14,66.51l4.16-2.18c25.17-13.12,75.46-39.46,75.46-39.46v-7.83s-49.26,27.18-73.87,40.82Z"/><path class="cls-3" d="M343.94,1493.49h0c23.7-29.76,47.32-59.57,70.84-89.44h-10.53c-23.79,31.52-47.49,63.11-71.13,94.75,26.19-.97,27.78-2.28,53.97-3.6-22.44-1.13-24.02-1.05-43.15-1.71Z"/><path class="cls-3" d="M577.67,1628.19l74.28-11.98v-116.09c0-53.06-43.01-96.07-96.07-96.07h-88.92l-22.76,98.58,8.88,66.04-49.44,79.69-66.17,59.51-83.09,35.75,3.53,1.93,82.37-25.66,49.26-33.47,3.78-.33-22.16,62.63,5.85,89.5,4.29,1.39,2.41-89.07,32.72-66.7,111.4-96.07,49.84,40.41Z"/><polygon class="cls-2" points="928.28 1594.52 957.08 1605.28 973.72 1578.78 983.95 1564.25 976.93 1549.07 934.04 1568.12 928.28 1594.52"/><polygon class="cls-2" points="1031.69 1667.41 1044.56 1707.28 1081.68 1707.28 1094.05 1633.33 1069.31 1627.55 1031.69 1667.41"/><path class="cls-2" d="M1130.13,1743.4h0c1.75-26.46.6-28.56,2.4-57.85-4.34,32.2-4.1,34.28-8.14,66.51l4.16-2.18c25.17-13.12,75.46-39.46,75.46-39.46v-7.83s-49.26,27.18-73.87,40.82Z"/><path class="cls-2" d="M895.94,1493.49h0c23.7-29.76,47.32-59.57,70.84-89.44h-10.53c-23.79,31.52-47.49,63.11-71.13,94.75,26.19-.97,27.78-2.28,53.97-3.6-22.44-1.13-24.02-1.05-43.15-1.71Z"/><path class="cls-2" d="M1129.67,1628.19l74.28-11.98v-116.09c0-53.06-43.01-96.07-96.07-96.07h-88.92l-22.76,98.58,8.88,66.04-49.44,79.69-66.17,59.51-83.09,35.75,3.53,1.93,82.37-25.66,49.26-33.47,3.78-.33-22.16,62.63,5.85,89.5,4.29,1.39,2.41-89.07,32.72-66.7,111.4-96.07,49.84,40.41Z"/><polygon class="cls-2" points="1480.28 1594.52 1509.08 1605.28 1525.72 1578.78 1535.95 1564.25 1528.93 1549.07 1486.04 1568.12 1480.28 1594.52"/><polygon class="cls-2" points="1583.69 1667.41 1596.56 1707.28 1633.68 1707.28 1646.05 1633.33 1621.31 1627.55 1583.69 1667.41"/><path class="cls-2" d="M1682.13,1743.4h0c1.75-26.46.6-28.56,2.4-57.85-4.34,32.2-4.1,34.28-8.14,66.51l4.16-2.18c25.17-13.12,75.46-39.46,75.46-39.46v-7.83s-49.26,27.18-73.87,40.82Z"/><path class="cls-2" d="M1447.94,1493.49h0c23.7-29.76,47.32-59.57,70.84-89.44h-10.53c-23.79,31.52-47.49,63.11-71.13,94.75,26.19-.97,27.78-2.28,53.97-3.6-22.44-1.13-24.02-1.05-43.15-1.71Z"/><path class="cls-2" d="M1681.67,1628.19l74.28-11.98v-116.09c0-53.06-43.01-96.07-96.07-96.07h-88.92l-22.76,98.58,8.88,66.04-49.44,79.69-66.17,59.51-83.09,35.75,3.53,1.93,82.37-25.66,49.26-33.47,3.78-.33-22.16,62.63,5.85,89.5,4.29,1.39,2.41-89.07,32.72-66.7,111.4-96.07,49.84,40.41Z"/><polygon class="cls-1" points="376.28 2146.52 405.08 2157.28 421.72 2130.78 431.95 2116.25 424.93 2101.07 382.04 2120.12 376.28 2146.52"/><polygon class="cls-1" points="479.69 2219.41 492.56 2259.28 529.68 2259.28 542.05 2185.33 517.31 2179.55 479.69 2219.41"/><path class="cls-1" d="M578.13,2295.4h0c1.75-26.46.6-28.56,2.4-57.85-4.34,32.2-4.1,34.28-8.14,66.51l4.16-2.18c25.17-13.12,75.46-39.46,75.46-39.46v-7.83s-49.26,27.18-73.87,40.82Z"/><path class="cls-1" d="M343.94,2045.49h0c23.7-29.76,47.32-59.57,70.84-89.44h-10.53c-23.79,31.52-47.49,63.11-71.13,94.75,26.19-.97,27.78-2.28,53.97-3.6-22.44-1.13-24.02-1.05-43.15-1.71Z"/><path class="cls-1" d="M577.67,2180.19l74.28-11.98v-116.09c0-53.06-43.01-96.07-96.07-96.07h-88.92l-22.76,98.58,8.88,66.04-49.44,79.69-66.17,59.51-83.09,35.75,3.53,1.93,82.37-25.66,49.26-33.47,3.78-.33-22.16,62.63,5.85,89.5,4.29,1.39,2.41-89.07,32.72-66.7,111.4-96.07,49.84,40.41Z"/><polygon class="cls-2" points="928.28 2146.52 957.08 2157.28 973.72 2130.78 983.95 2116.25 976.93 2101.07 934.04 2120.12 928.28 2146.52"/><polygon class="cls-2" points="1031.69 2219.41 1044.56 2259.28 1081.68 2259.28 1094.05 2185.33 1069.31 2179.55 1031.69 2219.41"/><path class="cls-2" d="M1130.13,2295.4h0c1.75-26.46.6-28.56,2.4-57.85-4.34,32.2-4.1,34.28-8.14,66.51l4.16-2.18c25.17-13.12,75.46-39.46,75.46-39.46v-7.83s-49.26,27.18-73.87,40.82Z"/><path class="cls-2" d="M895.94,2045.49h0c23.7-29.76,47.32-59.57,70.84-89.44h-10.53c-23.79,31.52-47.49,63.11-71.13,94.75,26.19-.97,27.78-2.28,53.97-3.6-22.44-1.13-24.02-1.05-43.15-1.71Z"/><path class="cls-2" d="M1129.67,2180.19l74.28-11.98v-116.09c0-53.06-43.01-96.07-96.07-96.07h-88.92l-22.76,98.58,8.88,66.04-49.44,79.69-66.17,59.51-83.09,35.75,3.53,1.93,82.37-25.66,49.26-33.47,3.78-.33-22.16,62.63,5.85,89.5,4.29,1.39,2.41-89.07,32.72-66.7,111.4-96.07,49.84,40.41Z"/><polygon class="cls-4" points="1480.28 2146.52 1509.08 2157.28 1525.72 2130.78 1535.95 2116.25 1528.93 2101.07 1486.04 2120.12 1480.28 2146.52"/><polygon class="cls-4" points="1583.69 2219.41 1596.56 2259.28 1633.68 2259.28 1646.05 2185.33 1621.31 2179.55 1583.69 2219.41"/><path class="cls-4" d="M1682.13,2295.4h0c1.75-26.46.6-28.56,2.4-57.85-4.34,32.2-4.1,34.28-8.14,66.51l4.16-2.18c25.17-13.12,75.46-39.46,75.46-39.46v-7.83s-49.26,27.18-73.87,40.82Z"/><path class="cls-4" d="M1447.94,2045.49h0c23.7-29.76,47.32-59.57,70.84-89.44h-10.53c-23.79,31.52-47.49,63.11-71.13,94.75,26.19-.97,27.78-2.28,53.97-3.6-22.44-1.13-24.02-1.05-43.15-1.71Z"/><path class="cls-4" d="M1681.67,2180.19l74.28-11.98v-116.09c0-53.06-43.01-96.07-96.07-96.07h-88.92l-22.76,98.58,8.88,66.04-49.44,79.69-66.17,59.51-83.09,35.75,3.53,1.93,82.37-25.66,49.26-33.47,3.78-.33-22.16,62.63,5.85,89.5,4.29,1.39,2.41-89.07,32.72-66.7,111.4-96.07,49.84,40.41Z"/><polygon class="cls-1" points="2032.28 2146.52 2061.08 2157.28 2077.72 2130.78 2087.95 2116.25 2080.93 2101.07 2038.04 2120.12 2032.28 2146.52"/><polygon class="cls-1" points="2135.69 2219.41 2148.56 2259.28 2185.68 2259.28 2198.05 2185.33 2173.31 2179.55 2135.69 2219.41"/><path class="cls-1" d="M2234.13,2295.4h0c1.75-26.46.6-28.56,2.4-57.85-4.34,32.2-4.1,34.28-8.14,66.51l4.16-2.18c25.17-13.12,75.46-39.46,75.46-39.46v-7.83s-49.26,27.18-73.87,40.82Z"/><path class="cls-1" d="M1999.94,2045.49h0c23.7-29.76,47.32-59.57,70.84-89.44h-10.53c-23.79,31.52-47.49,63.11-71.13,94.75,26.19-.97,27.78-2.28,53.97-3.6-22.44-1.13-24.02-1.05-43.15-1.71Z"/><path class="cls-1" d="M2233.67,2180.19l74.28-11.98v-116.09c0-53.06-43.01-96.07-96.07-96.07h-88.92l-22.76,98.58,8.88,66.04-49.44,79.69-66.17,59.51-83.09,35.75,3.53,1.93,82.37-25.66,49.26-33.47,3.78-.33-22.16,62.63,5.85,89.5,4.29,1.39,2.41-89.07,32.72-66.7,111.4-96.07,49.84,40.41Z"/><path class="cls-5" d="M2763.93,325.05c39.19,0,71.07,31.88,71.07,71.07v319.86c0,39.19-31.88,71.07-71.07,71.07h-319.86c-39.19,0-71.07-31.88-71.07-71.07v-319.86c0-39.19,31.88-71.07,71.07-71.07h319.86M2763.93,300.05h-319.86c-53.06,0-96.07,43.01-96.07,96.07v319.86c0,53.06,43.01,96.07,96.07,96.07h319.86c53.06,0,96.07-43.01,96.07-96.07v-319.86c0-53.06-43.01-96.07-96.07-96.07h0Z"/><path class="cls-4" d="M2307.95,1064.2l-74.28,11.98-49.84-40.41-111.4,96.07-32.72,66.7-2.41,89.07-4.29-1.39-5.85-89.5,22.16-62.63-3.78.33-49.26,33.47-82.37,25.66-3.53-1.93,83.09-35.75,66.17-59.51,49.44-79.69-8.88-66.04,22.76-98.58h-52.18c-23.53,29.88-47.14,59.69-70.84,89.43h0c19.13.67,20.71.59,43.15,1.72-26.19,1.31-27.78,2.63-53.97,3.6,23.64-31.64,47.34-63.22,71.13-94.75h-168.18c-53.06,0-96.07,43.01-96.07,96.07v319.86c0,53.06,43.01,96.07,96.07,96.07h319.86c53.06,0,96.07-43.01,96.07-96.07v-109.56s-50.29,26.34-75.46,39.46l-4.16,2.18c4.04-32.23,3.8-34.31,8.14-66.51-1.79,29.29-.65,31.4-2.4,57.85h0c24.61-13.64,73.87-40.82,73.87-40.82M2038.04,1016.12l42.89-19.05,7.02,15.18-10.23,14.53-16.64,26.49-28.81-10.76,5.76-26.4ZM2185.68,1155.28h-37.12l-12.87-39.87,37.61-39.87,24.74,5.78-12.37,73.96Z"/><path class="cls-3" d="M2307.95,1616.2l-74.28,11.98-49.84-40.41-111.4,96.07-32.72,66.7-2.41,89.07-4.29-1.39-5.85-89.5,22.16-62.63-3.78.33-49.26,33.47-82.37,25.66-3.53-1.93,83.09-35.75,66.17-59.51,49.44-79.69-8.88-66.04,22.76-98.58h-52.18c-23.53,29.88-47.14,59.69-70.84,89.43h0c19.13.67,20.71.59,43.15,1.72-26.19,1.31-27.78,2.63-53.97,3.6,23.64-31.64,47.34-63.22,71.13-94.75h-168.18c-53.06,0-96.07,43.01-96.07,96.07v319.86c0,53.06,43.01,96.07,96.07,96.07h319.86c53.06,0,96.07-43.01,96.07-96.07v-109.56s-50.29,26.34-75.46,39.46l-4.16,2.18c4.04-32.23,3.8-34.31,8.14-66.51-1.79,29.29-.65,31.4-2.4,57.85h0c24.61-13.64,73.87-40.82,73.87-40.82M2038.04,1568.12l42.89-19.05,7.02,15.18-10.23,14.53-16.64,26.49-28.81-10.76,5.76-26.4ZM2185.68,1707.28h-37.12l-12.87-39.87,37.61-39.87,24.74,5.78-12.37,73.96Z"/><path class="cls-2" d="M2859.95,2168.2l-74.28,11.98-49.84-40.41-111.4,96.07-32.72,66.7-2.41,89.07-4.29-1.39-5.85-89.5,22.16-62.63-3.78.33-49.26,33.47-82.37,25.66-3.53-1.93,83.09-35.75,66.17-59.51,49.44-79.69-8.88-66.04,22.76-98.58h-52.18c-23.53,29.88-47.14,59.69-70.84,89.43h0c19.13.67,20.71.59,43.15,1.72-26.19,1.31-27.78,2.63-53.97,3.6,23.64-31.64,47.34-63.22,71.13-94.75h-168.18c-53.06,0-96.07,43.01-96.07,96.07v319.86c0,53.06,43.01,96.07,96.07,96.07h319.86c53.06,0,96.07-43.01,96.07-96.07v-109.56s-50.29,26.34-75.46,39.46l-4.16,2.18c4.04-32.23,3.8-34.31,8.14-66.51-1.79,29.29-.65,31.4-2.4,57.85h0c24.61-13.64,73.87-40.82,73.87-40.82M2590.04,2120.12l42.89-19.05,7.02,15.18-10.23,14.53-16.64,26.49-28.81-10.76,5.76-26.4ZM2737.68,2259.28h-37.12l-12.87-39.87,37.61-39.87,24.74,5.78-12.37,73.96Z"/><rect class="cls-1" x="2360.5" y="864.55" width="487" height="487" rx="83.57" ry="83.57"/><path class="cls-5" d="M2763.93,877.05c39.19,0,71.07,31.88,71.07,71.07v319.86c0,39.19-31.88,71.07-71.07,71.07h-319.86c-39.19,0-71.07-31.88-71.07-71.07v-319.86c0-39.19,31.88-71.07,71.07-71.07h319.86M2763.93,852.05h-319.86c-53.06,0-96.07,43.01-96.07,96.07v319.86c0,53.06,43.01,96.07,96.07,96.07h319.86c53.06,0,96.07-43.01,96.07-96.07v-319.86c0-53.06-43.01-96.07-96.07-96.07h0Z"/><polygon class="cls-5" points="2584.28 1042.52 2613.08 1053.28 2629.72 1026.78 2639.95 1012.25 2632.93 997.07 2590.04 1016.12 2584.28 1042.52"/><polygon class="cls-5" points="2687.69 1115.41 2700.56 1155.28 2737.68 1155.28 2750.05 1081.33 2725.31 1075.55 2687.69 1115.41"/><path class="cls-5" d="M2786.13,1191.4h0c1.75-26.46.6-28.56,2.4-57.85-4.34,32.2-4.1,34.28-8.14,66.51l4.16-2.18c25.17-13.12,75.46-39.46,75.46-39.46v-7.83s-49.26,27.18-73.87,40.82Z"/><path class="cls-5" d="M2551.94,941.49h0c23.7-29.76,47.32-59.57,70.84-89.44h-10.53c-23.79,31.52-47.49,63.11-71.13,94.75,26.19-.97,27.78-2.28,53.97-3.6-22.44-1.13-24.02-1.05-43.15-1.71Z"/><path class="cls-5" d="M2785.67,1076.19l74.28-11.98v-116.09c0-53.06-43.01-96.07-96.07-96.07h-88.92l-22.76,98.58,8.88,66.04-49.44,79.69-66.17,59.51-83.09,35.75,3.53,1.93,82.37-25.66,49.26-33.47,3.78-.33-22.16,62.63,5.85,89.5,4.29,1.39,2.41-89.07,32.72-66.7,111.4-96.07,49.84,40.41Z"/><path class="cls-5" d="M2763.93,877.05c39.19,0,71.07,31.88,71.07,71.07v319.86c0,39.19-31.88,71.07-71.07,71.07h-319.86c-39.19,0-71.07-31.88-71.07-71.07v-319.86c0-39.19,31.88-71.07,71.07-71.07h319.86M2763.93,852.05h-319.86c-53.06,0-96.07,43.01-96.07,96.07v319.86c0,53.06,43.01,96.07,96.07,96.07h319.86c53.06,0,96.07-43.01,96.07-96.07v-319.86c0-53.06-43.01-96.07-96.07-96.07h0Z"/><rect class="cls-3" x="2360.5" y="1416.55" width="487" height="487" rx="83.57" ry="83.57"/><path class="cls-5" d="M2763.93,1429.05c39.19,0,71.07,31.88,71.07,71.07v319.86c0,39.19-31.88,71.07-71.07,71.07h-319.86c-39.19,0-71.07-31.88-71.07-71.07v-319.86c0-39.19,31.88-71.07,71.07-71.07h319.86M2763.93,1404.05h-319.86c-53.06,0-96.07,43.01-96.07,96.07v319.86c0,53.06,43.01,96.07,96.07,96.07h319.86c53.06,0,96.07-43.01,96.07-96.07v-319.86c0-53.06-43.01-96.07-96.07-96.07h0Z"/><polygon class="cls-5" points="2584.28 1594.52 2613.08 1605.28 2629.72 1578.78 2639.95 1564.25 2632.93 1549.07 2590.04 1568.12 2584.28 1594.52"/><polygon class="cls-5" points="2687.69 1667.41 2700.56 1707.28 2737.68 1707.28 2750.05 1633.33 2725.31 1627.55 2687.69 1667.41"/><path class="cls-5" d="M2786.13,1743.4h0c1.75-26.46.6-28.56,2.4-57.85-4.34,32.2-4.1,34.28-8.14,66.51l4.16-2.18c25.17-13.12,75.46-39.46,75.46-39.46v-7.83s-49.26,27.18-73.87,40.82Z"/><path class="cls-5" d="M2551.94,1493.49h0c23.7-29.76,47.32-59.57,70.84-89.44h-10.53c-23.79,31.52-47.49,63.11-71.13,94.75,26.19-.97,27.78-2.28,53.97-3.6-22.44-1.13-24.02-1.05-43.15-1.71Z"/><path class="cls-5" d="M2785.67,1628.19l74.28-11.98v-116.09c0-53.06-43.01-96.07-96.07-96.07h-88.92l-22.76,98.58,8.88,66.04-49.44,79.69-66.17,59.51-83.09,35.75,3.53,1.93,82.37-25.66,49.26-33.47,3.78-.33-22.16,62.63,5.85,89.5,4.29,1.39,2.41-89.07,32.72-66.7,111.4-96.07,49.84,40.41Z"/><path class="cls-5" d="M2763.93,1429.05c39.19,0,71.07,31.88,71.07,71.07v319.86c0,39.19-31.88,71.07-71.07,71.07h-319.86c-39.19,0-71.07-31.88-71.07-71.07v-319.86c0-39.19,31.88-71.07,71.07-71.07h319.86M2763.93,1404.05h-319.86c-53.06,0-96.07,43.01-96.07,96.07v319.86c0,53.06,43.01,96.07,96.07,96.07h319.86c53.06,0,96.07-43.01,96.07-96.07v-319.86c0-53.06-43.01-96.07-96.07-96.07h0Z"/></svg>