<?xml version="1.0" encoding="UTF-8"?><svg id="Calque_1" xmlns="http://www.w3.org/2000/svg" viewBox="0 0 369.15 49.73"><defs><style>.cls-1{fill:#91130b;stroke-width:0px;}</style></defs><polygon class="cls-1" points="9.76 48.97 0 48.97 0 .76 9.76 .76 9.76 25.93 19.12 15.27 31.43 15.27 18.98 29.17 31.98 48.97 20.08 48.97 12.04 36.18 9.76 38.66 9.76 48.97"/><path class="cls-1" d="M44.92,38.45c0,.87.39,1.59,1.17,2.17.78.57,1.79.86,3.03.86,2.2,0,4.22-.69,6.05-2.07v-3.85c-1.74-.41-3.26-.62-4.54-.62-1.79,0-3.19.3-4.2.92-1.01.63-1.51,1.48-1.51,2.59M46.77,49.73c-3.53,0-6.37-.99-8.49-2.96-2.13-1.97-3.2-4.54-3.2-7.7,0-3.49,1.28-6.16,3.85-8.05,2.57-1.88,5.73-2.82,9.49-2.82,2.2,0,4.45.32,6.74.97v-.56c0-1.65-.5-2.98-1.52-3.99-1.01-1-2.38-1.51-4.12-1.51-3.12,0-5.53,1.31-7.22,3.92l-6.19-5.91c3.72-4.45,8.42-6.67,14.1-6.67,4.22,0,7.75,1.21,10.59,3.64,2.8,2.39,4.2,5.66,4.2,9.83v21.05h-9.7v-2.2c-2.25,1.97-5.09,2.96-8.53,2.96"/><path class="cls-1" d="M76.07,47.94c-1.1-1.15-1.65-2.55-1.65-4.2s.55-3.05,1.65-4.2c1.15-1.15,2.55-1.72,4.2-1.72s3.05.57,4.2,1.72c1.19,1.15,1.79,2.54,1.79,4.2s-.59,3.05-1.79,4.2c-1.15,1.15-2.55,1.72-4.2,1.72s-3.05-.57-4.2-1.72M76.07,24.9c-1.1-1.15-1.65-2.54-1.65-4.2s.55-3.05,1.65-4.2c1.15-1.15,2.55-1.72,4.2-1.72s3.05.57,4.2,1.72c1.19,1.15,1.79,2.55,1.79,4.2s-.59,3.05-1.79,4.2c-1.15,1.15-2.55,1.72-4.2,1.72s-3.05-.57-4.2-1.72"/><path class="cls-1" d="M110.46,37.21l-4.47-1.1c-7.34-1.83-11-5.5-11-11,0-3.21,1.26-5.78,3.78-7.7,2.52-1.97,5.62-2.95,9.29-2.95,5.09,0,9.61,1.76,13.55,5.3l-5.98,6.32c-2.71-2.2-5.37-3.3-7.98-3.3-.96,0-1.73.2-2.3.58-.57.39-.86.86-.86,1.41,0,.82.8,1.42,2.41,1.79l5.02,1.16c7.39,1.74,11.08,5.46,11.08,11.15,0,3.21-1.28,5.82-3.85,7.84-2.57,2.02-5.98,3.03-10.25,3.03-3.03,0-5.88-.63-8.57-1.86-2.68-1.23-4.75-2.8-6.22-4.68l5.98-6.12c3.07,2.98,6.28,4.47,9.63,4.47,1.01,0,1.89-.21,2.65-.63.76-.41,1.14-.94,1.14-1.57,0-.92-1.01-1.63-3.03-2.14"/><path class="cls-1" d="M144.1,23.05c-1.7,0-3.11.46-4.23,1.37-1.12.92-1.84,2.14-2.16,3.65h12.1c-.09-1.42-.66-2.61-1.72-3.58-1.06-.97-2.38-1.44-3.99-1.44M160.12,31.71l-.07,2.89h-22.84c.28,1.83,1.09,3.33,2.44,4.47,1.35,1.15,3.06,1.72,5.13,1.72,3.44,0,6.19-1.31,8.25-3.92l6.46,6.05c-3.62,4.54-8.44,6.82-14.44,6.82-5.09,0-9.33-1.58-12.72-4.75-3.35-3.21-5.02-7.43-5.02-12.66s1.54-9.44,4.61-12.79c3.12-3.39,7.11-5.08,11.97-5.08,5.14,0,9.13,1.72,11.97,5.15,2.85,3.49,4.27,7.52,4.27,12.11"/><path class="cls-1" d="M176.63,32.12v16.86h-9.76V15.27h9.63v2.33c2.16-2.11,4.82-3.16,7.98-3.16,4.22,0,7.56,1.31,10.04,3.95,2.48,2.63,3.71,6.29,3.71,10.97v19.6h-9.83v-18.85c0-2.01-.47-3.61-1.41-4.81-.94-1.19-2.33-1.79-4.16-1.79-4.13,0-6.19,2.87-6.19,8.6"/><rect class="cls-1" x="228.42" y=".76" width="5.09" height="48.21"/><path class="cls-1" d="M250.85,48.97h-5.09V15.27h5.09v33.7ZM245.55,6.53c-.73-.78-1.1-1.69-1.1-2.75s.37-1.95,1.1-2.68C246.33.37,247.25,0,248.3,0s1.95.37,2.68,1.1c.78.73,1.17,1.63,1.17,2.68s-.39,1.97-1.17,2.75c-.73.73-1.63,1.1-2.68,1.1s-1.97-.37-2.75-1.1"/><path class="cls-1" d="M263.15,15.27h4.95v4.12c1.15-1.47,2.69-2.66,4.64-3.58,1.95-.91,3.95-1.37,6.02-1.37,4.31,0,7.62,1.29,9.94,3.88,2.32,2.6,3.47,6.27,3.47,11.04v19.6h-5.16v-20.01c0-3.12-.76-5.53-2.27-7.23-1.51-1.69-3.62-2.54-6.33-2.54-3.26,0-5.77,1.16-7.53,3.47-1.77,2.32-2.65,5.52-2.65,9.6v16.71h-5.09V15.27Z"/><path class="cls-1" d="M330.7,48.97h-4.89v-4.27c-2.61,3.36-6.17,5.03-10.66,5.03-8.44,0-12.66-4.96-12.66-14.86V15.27h5.09v19.81c0,6.56,2.75,9.83,8.25,9.83,3.21,0,5.64-1.11,7.29-3.33,1.65-2.23,2.48-5.43,2.48-9.6V15.27h5.09v33.7Z"/><polygon class="cls-1" points="362.2 15.27 353.81 27.86 345.49 15.27 339.36 15.27 350.65 31.64 338.54 48.97 344.66 48.97 353.81 35.36 363.03 48.97 369.15 48.97 357.04 31.64 368.32 15.27 362.2 15.27"/></svg>