<?xml version="1.0" encoding="UTF-8"?><svg id="Calque_1" xmlns="http://www.w3.org/2000/svg" viewBox="0 0 198.23 9.32"><defs><style>.cls-1{fill:#00fcfb;stroke-width:0px;}</style></defs><rect class="cls-1" x="0" y=".14" width="1.53" height="9.03"/><polygon class="cls-1" points="6.56 2.81 6.56 9.17 5.02 9.17 5.02 .14 6.56 .14 11.04 6.53 11.04 .14 12.59 .14 12.59 9.17 11.04 9.17 6.56 2.81"/><polygon class="cls-1" points="16.07 9.17 16.07 .14 21.99 .14 21.99 1.53 17.61 1.53 17.61 3.87 21.69 3.87 21.69 5.27 17.61 5.27 17.61 9.17 16.07 9.17"/><path class="cls-1" d="M26.35,1.53v3.16h1.71c1.29,0,2.1-.43,2.1-1.58,0-1.1-.8-1.57-2.1-1.57h-1.71ZM28.22,6.09h-1.87v3.08h-1.53V.14h3.44c2.1,0,3.44,1.07,3.44,2.95,0,1.34-.68,2.31-1.84,2.74l2.07,3.34h-1.82l-1.89-3.08Z"/><path class="cls-1" d="M36.72,5.84h2.74l-1.38-3.61-1.37,3.61ZM42.39,9.17h-1.61l-.76-1.92h-3.85l-.75,1.92h-1.62L37.32.14h1.55l3.52,9.03Z"/><path class="cls-1" d="M47.26,5.26c-1.69-.3-2.71-1.2-2.71-2.68C44.56.98,46.03,0,47.74,0c1.6,0,2.62.68,3.34,1.44l-1.07,1.13c-.5-.61-1.22-1.18-2.33-1.18s-1.57.61-1.57,1.15c0,.62.4,1.06,1.49,1.22l.9.16c1.98.32,2.89,1.34,2.89,2.78s-1.28,2.62-3.45,2.62c-1.67,0-2.85-.79-3.59-1.73l1.04-1.06c.55.72,1.3,1.39,2.74,1.39,1.15,0,1.71-.53,1.71-1.2,0-.59-.37-1.1-1.48-1.29l-1.1-.18Z"/><polygon class="cls-1" points="60.81 .14 60.81 1.53 58.06 1.53 58.06 9.17 56.52 9.17 56.52 1.53 53.84 1.53 53.84 .14 60.81 .14"/><path class="cls-1" d="M65.1,1.53v3.16h1.71c1.29,0,2.1-.43,2.1-1.58,0-1.1-.8-1.57-2.1-1.57h-1.71ZM66.97,6.09h-1.87v3.08h-1.53V.14h3.44c2.1,0,3.44,1.07,3.44,2.95,0,1.34-.68,2.31-1.84,2.74l2.07,3.34h-1.82l-1.89-3.08Z"/><path class="cls-1" d="M78.88.14h1.55v5.02c0,2.76-1.47,4.15-3.65,4.15s-3.65-1.39-3.65-4.15V.14h1.55v5.04c0,1.66.58,2.74,2.1,2.74s2.1-1.08,2.1-2.76V.14Z"/><path class="cls-1" d="M91.23,7.61c-.8,1.01-1.89,1.7-3.59,1.7-2.71,0-4.72-1.88-4.72-4.64s2.01-4.68,4.66-4.68c1.6,0,2.76.67,3.52,1.7l-.99,1.03c-.53-.76-1.33-1.33-2.5-1.33-1.78,0-3.12,1.38-3.12,3.27s1.34,3.23,3.17,3.23c1.16,0,1.98-.53,2.6-1.35l.97,1.06Z"/><polygon class="cls-1" points="100.08 .14 100.08 1.53 97.32 1.53 97.32 9.17 95.79 9.17 95.79 1.53 93.11 1.53 93.11 .14 100.08 .14"/><path class="cls-1" d="M108.43.14h1.55v5.02c0,2.76-1.47,4.15-3.65,4.15s-3.65-1.39-3.65-4.15V.14h1.55v5.04c0,1.66.58,2.74,2.1,2.74s2.1-1.08,2.1-2.76V.14Z"/><path class="cls-1" d="M114.7,1.53v3.16h1.71c1.29,0,2.1-.43,2.1-1.58,0-1.1-.8-1.57-2.1-1.57h-1.71ZM116.56,6.09h-1.87v3.08h-1.53V.14h3.44c2.1,0,3.44,1.07,3.44,2.95,0,1.34-.68,2.31-1.84,2.74l2.07,3.34h-1.82l-1.89-3.08Z"/><polygon class="cls-1" points="123.03 .14 129.38 .14 129.38 1.53 124.56 1.53 124.56 3.86 129.16 3.86 129.16 5.27 124.56 5.27 124.56 7.78 129.38 7.78 129.38 9.17 123.03 9.17 123.03 .14"/><polygon class="cls-1" points="146.16 .14 147.81 .14 145.47 9.17 143.77 9.17 142.08 2.64 140.39 9.17 138.7 9.17 136.34 .14 137.98 .14 139.55 6.74 141.2 .14 142.97 .14 144.63 6.74 146.16 .14"/><path class="cls-1" d="M154.23,7.91c1.74,0,3-1.4,3-3.26s-1.26-3.23-3-3.23-3.04,1.42-3.04,3.23,1.26,3.26,3.04,3.26M154.18,0c2.59,0,4.6,2.02,4.6,4.65s-2.01,4.66-4.6,4.66-4.56-2.01-4.56-4.66,1.97-4.65,4.56-4.65"/><path class="cls-1" d="M163.22,1.53v3.16h1.71c1.29,0,2.1-.43,2.1-1.58,0-1.1-.8-1.57-2.1-1.57h-1.71ZM165.09,6.09h-1.87v3.08h-1.53V.14h3.44c2.1,0,3.44,1.07,3.44,2.95,0,1.34-.68,2.31-1.84,2.74l2.08,3.34h-1.82l-1.89-3.08Z"/><polygon class="cls-1" points="171.55 .14 173.09 .14 173.09 4.34 176.46 .14 178.37 .14 175.32 3.95 178.67 9.17 176.82 9.17 174.26 5.26 173.09 6.69 173.09 9.17 171.55 9.17 171.55 .14"/><polygon class="cls-1" points="181.42 .14 187.77 .14 187.77 1.53 182.95 1.53 182.95 3.86 187.55 3.86 187.55 5.27 182.95 5.27 182.95 7.78 187.77 7.78 187.77 9.17 181.42 9.17 181.42 .14"/><path class="cls-1" d="M192.65,1.53v3.16h1.72c1.29,0,2.1-.43,2.1-1.58,0-1.1-.8-1.57-2.1-1.57h-1.72ZM194.52,6.09h-1.87v3.08h-1.53V.14h3.44c2.1,0,3.44,1.07,3.44,2.95,0,1.34-.68,2.31-1.84,2.74l2.07,3.34h-1.82l-1.89-3.08Z"/></svg>