<svg width="6622" height="2011" viewBox="0 0 6622 2011" fill="none" xmlns="http://www.w3.org/2000/svg">
<path d="M2690.74 784.971L2423.03 1073.33L2426.59 1046.99L2428.01 1116.05V1181.55H2301.28V945.883V604.123H2428.01V822.707L2422.32 968.667L2407.37 950.867L2544.07 784.971H2690.74ZM2458.63 1015.66L2542.65 926.659L2700 1181.55H2556.89L2458.63 1015.66ZM2844.95 1187.25C2818.84 1187.25 2796.06 1181.91 2776.6 1171.23C2757.37 1160.31 2742.42 1145.36 2731.74 1126.37C2721.3 1107.15 2716.08 1085.2 2716.08 1060.51C2716.08 1037.26 2722.37 1017.08 2734.95 999.995C2747.76 982.669 2765.21 969.379 2787.28 960.123C2803.18 953.24 2820.51 948.137 2839.25 944.815C2858 941.255 2876.75 938.881 2895.5 937.695C2914.49 936.508 2932.29 935.915 2948.9 935.915L2967.41 958.699L2948.9 997.859C2940.6 998.096 2931.93 998.808 2922.91 999.995C2914.13 1000.94 2905.83 1002.37 2897.99 1004.27C2890.16 1005.93 2883.87 1007.83 2879.13 1009.96C2871.77 1013.05 2864.77 1017.68 2858.12 1023.85C2851.71 1029.78 2848.51 1039.87 2848.51 1054.11C2848.51 1072.86 2853.61 1086.5 2863.82 1095.05C2874.26 1103.35 2886.01 1107.51 2899.06 1107.51C2905.95 1107.51 2912.71 1106.68 2919.35 1105.01C2926.24 1103.35 2932.29 1101.34 2937.51 1098.96C2942.73 1096.35 2946.53 1093.74 2948.9 1091.13L2969.55 1117.47L2955.31 1148.09C2944.39 1157.58 2929.92 1166.48 2911.88 1174.79C2894.08 1183.1 2871.77 1187.25 2844.95 1187.25ZM3077.06 1181.55H2955.31V1122.46H2948.9V912.419C2948.9 894.856 2944.04 883.345 2934.31 877.887C2924.81 872.428 2911.17 869.699 2893.37 869.699C2878.18 869.699 2862.28 870.885 2845.66 873.259C2829.29 875.632 2813.39 878.955 2797.96 883.227C2782.53 887.261 2769 892.008 2757.37 897.467L2731.03 821.995C2740.76 816.061 2754.76 809.772 2773.04 803.127C2791.55 796.244 2812.32 790.429 2835.34 785.683C2858.36 780.936 2881.74 778.563 2905.47 778.563C2947 778.563 2980.35 783.428 3005.51 793.159C3030.66 802.889 3048.82 818.672 3059.97 840.507C3071.37 862.341 3077.06 891.533 3077.06 928.083V1181.55ZM3246.65 1189.39C3225.29 1189.39 3207.97 1182.39 3194.68 1168.38C3181.39 1154.14 3174.74 1136.7 3174.74 1116.05C3174.74 1102.05 3178.06 1089.11 3184.71 1077.25C3191.59 1065.14 3200.85 1055.41 3212.48 1048.05C3224.34 1040.7 3237.63 1037.02 3252.35 1037.02C3274.18 1037.02 3291.51 1044.02 3304.32 1058.02C3317.14 1071.79 3323.55 1088.99 3323.55 1109.64C3323.55 1123.65 3320.11 1136.7 3313.22 1148.8C3306.58 1160.91 3297.44 1170.76 3285.81 1178.35C3274.18 1185.71 3261.13 1189.39 3246.65 1189.39ZM3246.65 933.779C3225.29 933.779 3207.97 926.777 3194.68 912.775C3181.39 898.535 3174.74 881.091 3174.74 860.443C3174.74 846.44 3178.06 833.505 3184.71 821.639C3191.59 809.535 3200.85 799.804 3212.48 792.447C3224.34 785.089 3237.63 781.411 3252.35 781.411C3274.18 781.411 3291.51 788.412 3304.32 802.415C3317.14 816.18 3323.55 833.387 3323.55 854.035C3323.55 868.037 3320.11 881.091 3313.22 893.195C3306.58 905.299 3297.44 915.148 3285.81 922.743C3274.18 930.1 3261.13 933.779 3246.65 933.779ZM3403.4 1155.21L3416.21 1066.21C3420.01 1069.53 3427.84 1074.04 3439.71 1079.74C3451.81 1085.2 3466.05 1090.18 3482.43 1094.69C3498.81 1098.96 3515.66 1101.1 3532.98 1101.1C3553.63 1101.34 3568.34 1099.2 3577.13 1094.69C3586.14 1089.94 3590.65 1082.59 3590.65 1072.62C3590.65 1065.74 3587.45 1059.8 3581.04 1054.82C3574.63 1049.6 3565.97 1044.73 3555.05 1040.22C3544.14 1035.71 3532.03 1031.09 3518.74 1026.34C3489.79 1015.9 3466.77 1004.39 3449.68 991.807C3432.83 979.228 3420.72 965.107 3413.37 949.443C3406.01 933.541 3402.45 915.504 3402.69 895.331C3402.69 869.699 3410.04 848.339 3424.76 831.251C3439.71 814.163 3459.65 801.347 3484.57 792.803C3509.49 784.259 3537.02 779.987 3567.16 779.987C3599.67 779.987 3626.85 782.835 3648.68 788.531C3670.52 793.989 3685.82 799.211 3694.61 804.195L3683.21 894.619C3678.47 890.347 3670.99 885.837 3660.79 881.091C3650.58 876.344 3639.07 872.309 3626.25 868.987C3613.44 865.664 3600.62 864.003 3587.81 864.003C3565.73 864.003 3550.07 866.257 3540.81 870.767C3531.8 875.276 3527.29 882.04 3527.29 891.059C3527.29 901.739 3532.15 909.571 3541.88 914.555C3551.61 919.539 3566.92 925.947 3587.81 933.779C3619.13 945.171 3644.29 956.681 3663.28 968.311C3682.5 979.94 3696.39 993.112 3704.93 1007.83C3713.71 1022.54 3718.1 1040.34 3718.1 1061.23C3718.1 1102.52 3702.79 1133.85 3672.18 1155.21C3641.8 1176.57 3601.33 1187.25 3550.78 1187.25C3528.95 1187.25 3508.18 1185.47 3488.48 1181.91C3468.78 1178.59 3451.46 1174.43 3436.51 1169.45C3421.79 1164.47 3410.76 1159.72 3403.4 1155.21ZM3973.46 1187.25C3909.38 1187.25 3860.49 1169.09 3826.79 1132.78C3793.09 1096.23 3776.24 1045.8 3776.24 981.483C3776.24 943.035 3784.07 908.621 3799.73 878.243C3815.4 847.864 3837.94 823.893 3867.37 806.331C3897.04 788.768 3932.88 779.987 3974.88 779.987C3996.01 779.987 4016.42 782.479 4036.12 787.463C4055.81 792.209 4073.5 800.635 4089.16 812.739C4104.82 824.605 4117.4 840.981 4126.9 861.867C4136.39 882.752 4141.25 909.096 4141.49 940.899C4141.49 955.139 4141.02 968.667 4140.07 981.483C4139.36 994.299 4138.41 1004.98 4137.22 1013.52H3842.45L3849.57 949.443H4021.88C4023.06 930.219 4022.11 914.199 4019.03 901.383C4016.18 888.329 4010.84 878.599 4003.01 872.191C3995.41 865.783 3985.09 862.579 3972.04 862.579C3957.08 862.579 3944.39 866.732 3933.94 875.039C3923.74 883.108 3916.02 897.111 3910.8 917.047C3905.58 936.983 3903.21 964.632 3903.68 999.995C3904.16 1023.02 3908.31 1041.65 3916.14 1055.89C3924.21 1069.89 3935.6 1080.09 3950.32 1086.5C3965.03 1092.91 3982.72 1096.11 4003.36 1096.11C4016.18 1096.11 4029.59 1095.17 4043.59 1093.27C4057.59 1091.37 4070.53 1088.88 4082.4 1085.79C4094.5 1082.71 4103.76 1079.5 4110.16 1076.18L4130.1 1144.53C4121.32 1151.65 4109.1 1158.53 4093.43 1165.18C4078 1171.59 4059.97 1176.93 4039.32 1181.2C4018.91 1185.23 3996.96 1187.25 3973.46 1187.25ZM4228.86 1181.55V784.971H4346.34L4349.18 831.251C4357.49 822.944 4368.41 814.875 4381.94 807.043C4395.46 799.211 4410.53 792.684 4427.15 787.463C4443.76 782.241 4460.97 779.512 4478.77 779.275C4519.11 778.563 4549.37 789.599 4569.55 812.383C4589.72 834.929 4599.81 874.683 4599.81 931.643V1181.55H4470.94V955.139C4470.94 926.184 4467.26 906.367 4459.9 895.687C4452.54 884.769 4439.37 879.667 4420.38 880.379C4414.21 880.379 4407.33 881.328 4399.74 883.227C4392.14 885.125 4384.55 887.973 4376.95 891.771C4369.59 895.568 4362.95 900.315 4357.02 906.011V1181.55H4228.86ZM4990.41 1181.55V602.699H5048.8V1181.55H4990.41ZM5193.66 1181.55V785.683H5251.33V1181.55H5193.66ZM5219.29 698.819C5209.09 698.819 5200.19 695.377 5192.59 688.495C5185.24 681.612 5181.56 672 5181.56 659.659C5181.56 650.877 5183.69 643.164 5187.96 636.519C5192.24 629.636 5197.58 624.296 5203.98 620.499C5210.63 616.701 5217.39 614.803 5224.28 614.803C5237.09 614.803 5246.59 618.6 5252.76 626.195C5258.93 633.552 5262.01 642.808 5262.01 653.963C5262.01 667.491 5257.62 678.408 5248.84 686.715C5240.3 694.784 5230.45 698.819 5219.29 698.819ZM5396.83 1181.55V785.683H5448.8V836.235C5458.29 829.115 5470.75 821.283 5486.18 812.739C5501.85 803.957 5519.05 796.363 5537.8 789.955C5556.55 783.309 5575.54 779.749 5594.76 779.275C5637.96 778.563 5668.57 790.073 5686.61 813.807C5704.65 837.303 5713.67 878.243 5713.67 936.627V1181.55H5655.28V935.915C5655.28 896.755 5649.7 868.631 5638.55 851.543C5627.39 834.217 5604.73 826.267 5570.55 827.691C5558.21 827.928 5545.04 830.42 5531.04 835.167C5517.03 839.913 5503.39 845.965 5490.1 853.323C5476.81 860.68 5465.18 868.275 5455.21 876.107V1181.55H5396.83ZM5957.04 1187.25C5931.64 1187.25 5911.23 1183.22 5895.8 1175.15C5880.38 1166.84 5868.75 1155.21 5860.92 1140.26C5853.08 1125.07 5847.74 1107.15 5844.9 1086.5C5842.29 1065.85 5840.98 1042.95 5840.98 1017.79V784.971H5898.65V1019.93C5898.65 1053.16 5901.14 1078.31 5906.13 1095.4C5911.35 1112.49 5919.89 1124 5931.76 1129.93C5943.63 1135.87 5959.88 1138.83 5980.53 1138.83C5993.82 1138.83 6007.47 1136.94 6021.47 1133.14C6035.47 1129.34 6048.41 1124.59 6060.28 1118.9C6072.38 1113.2 6082.11 1107.51 6089.47 1101.81V784.971H6147.85V1185.83H6125.07C6115.81 1185.83 6108.57 1184.4 6103.35 1181.55C6098.37 1178.94 6095.88 1172.54 6095.88 1162.33V1130.29L6096.59 1140.26C6084.25 1149.04 6070.24 1156.99 6054.58 1164.11C6038.92 1171.23 6022.66 1176.93 6005.81 1181.2C5988.96 1185.23 5972.7 1187.25 5957.04 1187.25ZM6233.05 1181.55L6380.43 972.227L6381.14 990.739L6233.05 784.971H6298.55L6393.25 923.811L6417.46 962.971H6397.52L6418.88 921.675L6513.58 784.971H6578.37L6429.56 990.027V970.091L6579.79 1181.55H6512.86L6416.74 1039.87L6390.4 997.859L6413.9 998.571L6390.4 1042.71L6299.26 1181.55H6233.05ZM2323.29 1495.55V1370.73H2395.7V1385.85H2343.11V1425.33H2382.43V1440.45H2343.11V1495.55H2323.29ZM2486.21 1496.9C2474.62 1497.12 2464.6 1494.49 2456.14 1489C2447.69 1483.46 2441.22 1475.79 2436.74 1465.99C2432.26 1456.13 2430.16 1444.87 2430.44 1432.22C2430.72 1418.27 2433.46 1406.65 2438.67 1397.36C2443.93 1388.06 2450.91 1381.09 2459.59 1376.44C2468.32 1371.79 2478.04 1369.44 2488.73 1369.39C2499.82 1369.33 2509.48 1371.93 2517.71 1377.2C2525.95 1382.41 2532.27 1389.8 2536.7 1399.37C2541.18 1408.95 2543.28 1420.18 2543 1433.06C2542.72 1447 2540.09 1458.68 2535.1 1468.09C2530.12 1477.44 2523.4 1484.52 2514.94 1489.34C2506.49 1494.15 2496.91 1496.67 2486.21 1496.9ZM2486.72 1481.78C2497.81 1481.78 2506.63 1477.61 2513.18 1469.26C2519.73 1460.86 2523.01 1448.51 2523.01 1432.22C2523.01 1423.59 2521.69 1415.67 2519.06 1408.45C2516.48 1401.17 2512.59 1395.34 2507.38 1390.97C2502.23 1386.55 2495.79 1384.34 2488.06 1384.34C2481.29 1384.34 2475.04 1386.07 2469.33 1389.55C2463.62 1393.02 2459.03 1398.37 2455.55 1405.59C2452.14 1412.81 2450.43 1422.08 2450.43 1433.39C2450.43 1441.96 2451.77 1449.94 2454.46 1457.33C2457.21 1464.67 2461.27 1470.58 2466.64 1475.06C2472.02 1479.54 2478.71 1481.78 2486.72 1481.78ZM2614.01 1495.55H2594.18V1370.73C2595.19 1370.73 2596.17 1370.73 2597.12 1370.73C2598.07 1370.73 2599.03 1370.73 2599.98 1370.73C2600.93 1370.73 2601.91 1370.73 2602.92 1370.73C2606.89 1370.73 2611.6 1370.51 2617.03 1370.06C2622.46 1369.61 2628.45 1369.39 2635.01 1369.39C2641.28 1369.39 2647.02 1370.06 2652.23 1371.4C2657.43 1372.69 2661.94 1374.76 2665.75 1377.62C2669.61 1380.42 2672.58 1384.09 2674.65 1388.62C2676.78 1393.1 2677.85 1398.56 2677.85 1405C2677.85 1412.51 2676.59 1418.83 2674.07 1423.99C2671.55 1429.14 2667.93 1433.2 2663.23 1436.17C2658.58 1439.13 2653.04 1441.12 2646.6 1442.13C2644.3 1442.47 2641.92 1442.75 2639.46 1442.97C2637.05 1443.14 2633.89 1443.28 2629.97 1443.39C2626.05 1443.45 2620.73 1443.47 2614.01 1443.47V1495.55ZM2614.01 1429.36C2615.18 1429.53 2616.97 1429.67 2619.38 1429.78C2621.85 1429.84 2624.34 1429.87 2626.86 1429.87C2629.38 1429.87 2631.37 1429.87 2632.82 1429.87C2640.89 1429.87 2647.1 1427.91 2651.47 1423.99C2655.84 1420.01 2658.02 1413.96 2658.02 1405.84C2658.02 1401.03 2657.21 1396.99 2655.59 1393.75C2653.96 1390.44 2651.25 1387.98 2647.44 1386.35C2643.69 1384.67 2638.59 1383.83 2632.15 1383.83C2628.9 1383.83 2625.68 1383.97 2622.49 1384.25C2619.35 1384.48 2616.53 1384.84 2614.01 1385.35V1429.36ZM2664.41 1495.55C2663.68 1494.43 2663.06 1493.29 2662.56 1492.11C2662.05 1490.93 2661.16 1489 2659.87 1486.31C2658.13 1482.56 2656.43 1478.33 2654.75 1473.63C2653.07 1468.87 2651.22 1464.25 2649.2 1459.77C2647.24 1455.29 2644.97 1451.51 2642.4 1448.43C2639.82 1445.29 2636.8 1443.47 2633.33 1442.97L2640.89 1437.09L2652.65 1438.1C2655.95 1439.5 2658.89 1442.02 2661.47 1445.66C2664.1 1449.3 2666.51 1453.53 2668.69 1458.34C2670.93 1463.1 2673.06 1467.95 2675.07 1472.87C2677.15 1477.8 2679.3 1482.28 2681.54 1486.31C2682.38 1487.88 2683.22 1489.45 2684.06 1491.02C2684.9 1492.53 2685.74 1494.04 2686.58 1495.55H2664.41ZM2793.54 1495.55V1370.73H2802.11C2807.26 1370.73 2812.36 1370.51 2817.4 1370.06C2822.44 1369.61 2827.76 1369.39 2833.36 1369.39C2842.43 1369.39 2850.24 1370.81 2856.8 1373.67C2863.35 1376.47 2868.39 1380.89 2871.92 1386.94C2875.44 1392.93 2877.21 1400.75 2877.21 1410.38C2877.21 1423.99 2873.09 1434.6 2864.86 1442.21C2856.68 1449.77 2844.78 1453.55 2829.16 1453.55C2825.24 1453.55 2821.99 1453.53 2819.42 1453.47C2816.9 1453.41 2814.88 1453.39 2813.37 1453.39V1495.55H2793.54ZM2813.37 1438.27C2815.89 1438.6 2818.38 1438.83 2820.84 1438.94C2823.36 1439.05 2825.74 1439.11 2827.98 1439.11C2833.19 1439.11 2838.06 1438.38 2842.6 1436.92C2847.14 1435.41 2850.78 1432.61 2853.52 1428.52C2856.32 1424.38 2857.72 1418.33 2857.72 1410.38C2857.72 1400.8 2855.14 1393.86 2849.99 1389.55C2844.9 1385.18 2837.5 1383.16 2827.82 1383.5C2825.41 1383.55 2822.94 1383.69 2820.42 1383.92C2817.9 1384.14 2815.55 1384.51 2813.37 1385.01V1438.27ZM2946.44 1495.55H2926.61V1370.73C2927.62 1370.73 2928.6 1370.73 2929.55 1370.73C2930.5 1370.73 2931.46 1370.73 2932.41 1370.73C2933.36 1370.73 2934.34 1370.73 2935.35 1370.73C2939.32 1370.73 2944.03 1370.51 2949.46 1370.06C2954.89 1369.61 2960.88 1369.39 2967.44 1369.39C2973.71 1369.39 2979.45 1370.06 2984.66 1371.4C2989.86 1372.69 2994.37 1374.76 2998.18 1377.62C3002.04 1380.42 3005.01 1384.09 3007.08 1388.62C3009.21 1393.1 3010.28 1398.56 3010.28 1405C3010.28 1412.51 3009.02 1418.83 3006.5 1423.99C3003.98 1429.14 3000.36 1433.2 2995.66 1436.17C2991.01 1439.13 2985.47 1441.12 2979.03 1442.13C2976.73 1442.47 2974.35 1442.75 2971.89 1442.97C2969.48 1443.14 2966.32 1443.28 2962.4 1443.39C2958.48 1443.45 2953.16 1443.47 2946.44 1443.47V1495.55ZM2946.44 1429.36C2947.61 1429.53 2949.4 1429.67 2951.81 1429.78C2954.28 1429.84 2956.77 1429.87 2959.29 1429.87C2961.81 1429.87 2963.8 1429.87 2965.25 1429.87C2973.32 1429.87 2979.53 1427.91 2983.9 1423.99C2988.27 1420.01 2990.45 1413.96 2990.45 1405.84C2990.45 1401.03 2989.64 1396.99 2988.02 1393.75C2986.39 1390.44 2983.68 1387.98 2979.87 1386.35C2976.12 1384.67 2971.02 1383.83 2964.58 1383.83C2961.33 1383.83 2958.11 1383.97 2954.92 1384.25C2951.78 1384.48 2948.96 1384.84 2946.44 1385.35V1429.36ZM2996.84 1495.55C2996.11 1494.43 2995.49 1493.29 2994.99 1492.11C2994.48 1490.93 2993.59 1489 2992.3 1486.31C2990.56 1482.56 2988.86 1478.33 2987.18 1473.63C2985.5 1468.87 2983.65 1464.25 2981.63 1459.77C2979.67 1455.29 2977.4 1451.51 2974.83 1448.43C2972.25 1445.29 2969.23 1443.47 2965.76 1442.97L2973.32 1437.09L2985.08 1438.1C2988.38 1439.5 2991.32 1442.02 2993.9 1445.66C2996.53 1449.3 2998.94 1453.53 3001.12 1458.34C3003.36 1463.1 3005.49 1467.95 3007.5 1472.87C3009.58 1477.8 3011.73 1482.28 3013.97 1486.31C3014.81 1487.88 3015.65 1489.45 3016.49 1491.02C3017.33 1492.53 3018.17 1494.04 3019.01 1495.55H2996.84ZM3113.65 1496.9C3102.06 1497.12 3092.04 1494.49 3083.58 1489C3075.13 1483.46 3068.66 1475.79 3064.18 1465.99C3059.7 1456.13 3057.6 1444.87 3057.88 1432.22C3058.16 1418.27 3060.9 1406.65 3066.11 1397.36C3071.37 1388.06 3078.35 1381.09 3087.03 1376.44C3095.76 1371.79 3105.48 1369.44 3116.17 1369.39C3127.26 1369.33 3136.92 1371.93 3145.15 1377.2C3153.39 1382.41 3159.71 1389.8 3164.14 1399.37C3168.62 1408.95 3170.72 1420.18 3170.44 1433.06C3170.16 1447 3167.53 1458.68 3162.54 1468.09C3157.56 1477.44 3150.84 1484.52 3142.38 1489.34C3133.93 1494.15 3124.35 1496.67 3113.65 1496.9ZM3114.16 1481.78C3125.25 1481.78 3134.07 1477.61 3140.62 1469.26C3147.17 1460.86 3150.45 1448.51 3150.45 1432.22C3150.45 1423.59 3149.13 1415.67 3146.5 1408.45C3143.92 1401.17 3140.03 1395.34 3134.82 1390.97C3129.67 1386.55 3123.23 1384.34 3115.5 1384.34C3108.73 1384.34 3102.48 1386.07 3096.77 1389.55C3091.06 1393.02 3086.47 1398.37 3082.99 1405.59C3079.58 1412.81 3077.87 1422.08 3077.87 1433.39C3077.87 1441.96 3079.21 1449.94 3081.9 1457.33C3084.65 1464.67 3088.71 1470.58 3094.08 1475.06C3099.46 1479.54 3106.15 1481.78 3114.16 1481.78ZM3221.62 1495.55V1370.73H3294.03V1385.85H3241.45V1425.33H3280.76V1440.45H3241.45V1495.55H3221.62ZM3338.94 1495.55V1370.73H3411.52V1385.85H3358.76V1423.82H3397.91V1438.77H3358.76V1480.1H3417.4V1495.55H3338.94ZM3498.26 1496.9C3492.83 1496.9 3487.67 1496.48 3482.8 1495.64C3477.99 1494.85 3473.84 1493.9 3470.37 1492.78C3466.9 1491.66 3464.41 1490.63 3462.89 1489.67L3467.01 1473.63C3469.14 1474.86 3471.8 1476.07 3474.99 1477.24C3478.18 1478.42 3481.68 1479.4 3485.49 1480.18C3489.3 1480.91 3493.16 1481.27 3497.08 1481.27C3504.75 1481.27 3510.61 1479.99 3514.64 1477.41C3518.67 1474.83 3520.69 1470.63 3520.69 1464.81C3520.69 1460.89 3519.68 1457.61 3517.66 1454.98C3515.65 1452.29 3512.62 1449.77 3508.59 1447.42C3504.61 1445.07 3499.63 1442.47 3493.64 1439.61C3488.54 1437.09 3483.59 1434.07 3478.77 1430.54C3474.01 1427.01 3470.09 1422.87 3467.01 1418.11C3463.93 1413.35 3462.39 1407.89 3462.39 1401.73C3462.39 1395.68 3463.57 1390.61 3465.92 1386.52C3468.33 1382.38 3471.55 1379.05 3475.58 1376.53C3479.61 1374.01 3484.09 1372.19 3489.02 1371.07C3494 1369.95 3499.1 1369.39 3504.31 1369.39C3511.92 1369.39 3518.22 1370.14 3523.21 1371.65C3528.19 1373.11 3531.77 1374.57 3533.96 1376.02L3530.09 1391.56C3527.24 1389.77 3523.88 1388.17 3520.01 1386.77C3516.21 1385.32 3510.97 1384.59 3504.31 1384.59C3500.22 1384.59 3496.44 1385.12 3492.97 1386.19C3489.49 1387.25 3486.69 1388.87 3484.57 1391.06C3482.44 1393.24 3481.37 1396.04 3481.37 1399.46C3481.37 1403.32 3482.16 1406.57 3483.73 1409.2C3485.35 1411.78 3487.95 1414.21 3491.54 1416.51C3495.12 1418.75 3499.83 1421.38 3505.65 1424.41C3509.85 1426.59 3513.99 1428.91 3518.08 1431.38C3522.17 1433.79 3525.87 1436.47 3529.17 1439.44C3532.53 1442.41 3535.19 1445.83 3537.15 1449.69C3539.17 1453.5 3540.17 1457.87 3540.17 1462.79C3540.17 1470.41 3538.38 1476.77 3534.8 1481.86C3531.27 1486.9 3526.34 1490.68 3520.01 1493.2C3513.74 1495.67 3506.49 1496.9 3498.26 1496.9ZM3621.81 1496.9C3616.38 1496.9 3611.23 1496.48 3606.35 1495.64C3601.54 1494.85 3597.39 1493.9 3593.92 1492.78C3590.45 1491.66 3587.96 1490.63 3586.45 1489.67L3590.56 1473.63C3592.69 1474.86 3595.35 1476.07 3598.54 1477.24C3601.73 1478.42 3605.23 1479.4 3609.04 1480.18C3612.85 1480.91 3616.71 1481.27 3620.63 1481.27C3628.31 1481.27 3634.16 1479.99 3638.19 1477.41C3642.22 1474.83 3644.24 1470.63 3644.24 1464.81C3644.24 1460.89 3643.23 1457.61 3641.21 1454.98C3639.2 1452.29 3636.17 1449.77 3632.14 1447.42C3628.17 1445.07 3623.18 1442.47 3617.19 1439.61C3612.09 1437.09 3607.14 1434.07 3602.32 1430.54C3597.56 1427.01 3593.64 1422.87 3590.56 1418.11C3587.48 1413.35 3585.94 1407.89 3585.94 1401.73C3585.94 1395.68 3587.12 1390.61 3589.47 1386.52C3591.88 1382.38 3595.1 1379.05 3599.13 1376.53C3603.16 1374.01 3607.64 1372.19 3612.57 1371.07C3617.55 1369.95 3622.65 1369.39 3627.86 1369.39C3635.47 1369.39 3641.77 1370.14 3646.76 1371.65C3651.74 1373.11 3655.33 1374.57 3657.51 1376.02L3653.65 1391.56C3650.79 1389.77 3647.43 1388.17 3643.57 1386.77C3639.76 1385.32 3634.52 1384.59 3627.86 1384.59C3623.77 1384.59 3619.99 1385.12 3616.52 1386.19C3613.05 1387.25 3610.25 1388.87 3608.12 1391.06C3605.99 1393.24 3604.93 1396.04 3604.93 1399.46C3604.93 1403.32 3605.71 1406.57 3607.28 1409.2C3608.9 1411.78 3611.51 1414.21 3615.09 1416.51C3618.67 1418.75 3623.38 1421.38 3629.2 1424.41C3633.4 1426.59 3637.55 1428.91 3641.63 1431.38C3645.72 1433.79 3649.42 1436.47 3652.72 1439.44C3656.08 1442.41 3658.74 1445.83 3660.7 1449.69C3662.72 1453.5 3663.73 1457.87 3663.73 1462.79C3663.73 1470.41 3661.93 1476.77 3658.35 1481.86C3654.82 1486.9 3649.89 1490.68 3643.57 1493.2C3637.29 1495.67 3630.04 1496.9 3621.81 1496.9ZM3715.96 1495.55V1370.73H3735.79V1495.55H3715.96ZM3845.12 1496.9C3833.53 1497.12 3823.51 1494.49 3815.05 1489C3806.6 1483.46 3800.13 1475.79 3795.65 1465.99C3791.17 1456.13 3789.07 1444.87 3789.35 1432.22C3789.63 1418.27 3792.37 1406.65 3797.58 1397.36C3802.84 1388.06 3809.82 1381.09 3818.5 1376.44C3827.23 1371.79 3836.95 1369.44 3847.64 1369.39C3858.73 1369.33 3868.39 1371.93 3876.62 1377.2C3884.86 1382.41 3891.18 1389.8 3895.61 1399.37C3900.09 1408.95 3902.19 1420.18 3901.91 1433.06C3901.63 1447 3899 1458.68 3894.01 1468.09C3889.03 1477.44 3882.31 1484.52 3873.85 1489.34C3865.4 1494.15 3855.82 1496.67 3845.12 1496.9ZM3845.63 1481.78C3856.72 1481.78 3865.54 1477.61 3872.09 1469.26C3878.64 1460.86 3881.92 1448.51 3881.92 1432.22C3881.92 1423.59 3880.6 1415.67 3877.97 1408.45C3875.39 1401.17 3871.5 1395.34 3866.29 1390.97C3861.14 1386.55 3854.7 1384.34 3846.97 1384.34C3840.2 1384.34 3833.95 1386.07 3828.24 1389.55C3822.53 1393.02 3817.94 1398.37 3814.46 1405.59C3811.05 1412.81 3809.34 1422.08 3809.34 1433.39C3809.34 1441.96 3810.68 1449.94 3813.37 1457.33C3816.12 1464.67 3820.18 1470.58 3825.55 1475.06C3830.93 1479.54 3837.62 1481.78 3845.63 1481.78ZM3953.09 1495.55V1370.73H3971.07L4023.32 1451.54L4039.95 1482.62H4034.07L4031.88 1447.67V1370.73H4050.2V1495.55H4031.38L3981.15 1417.77L3961.83 1382.66H3969.05L3971.07 1420.46V1495.55H3953.09ZM4115.53 1495.55H4094.7L4142.08 1369.39H4161.31L4208.02 1495.55H4186.6L4155.43 1401.73L4151.9 1389.71L4148.21 1401.73L4115.53 1495.55ZM4118.22 1464.89L4121.58 1450.36H4178.87L4182.4 1464.89H4118.22ZM4252.53 1495.55V1370.73H4272.19V1479.93H4321.24V1495.55H4252.53ZM4426.92 1495.55V1370.73H4446.75V1495.55H4426.92ZM4535.59 1495.55V1385.85H4497.12V1370.73H4593.8V1385.85H4555.41V1495.55H4535.59Z" fill="white"/>
<path d="M1764.49 76.5217C1766.28 77.4135 1767.95 77.5869 1769.51 77.0419C1787.41 70.8091 1805.79 66.4441 1824.65 63.947C1849.85 60.6027 1882.53 63.9321 1901.64 82.4671C1907.6 88.2639 1917.5 101.255 1919.4 109.355C1923.23 125.81 1913.31 145.34 1902.51 157.008C1901.24 158.366 1900.72 159.738 1900.93 161.126C1900.97 161.38 1901.07 161.621 1901.22 161.83C1901.37 162.039 1901.57 162.21 1901.8 162.33C1904.17 163.548 1906.43 165.154 1908.85 166.12C1918.22 169.91 1928.11 172.942 1937.08 177.297C1942.86 180.107 1949.08 182.737 1954.23 186.364C1960.91 191.076 1966.61 196.07 1972.87 201.213C1976.6 204.275 1979.74 207.317 1982.27 210.339C1988.16 217.355 1990.4 223.048 1994.79 230.286C2002.02 242.281 2000.78 255.109 2001.21 268.56C2001.62 281.804 1998.15 291.539 1991.23 301.558C1984.43 311.387 1975.87 318.933 1965.55 324.195C1959.28 327.386 1951.33 329.66 1941.71 331.017C1924.16 333.47 1910.91 333.068 1890.52 331.315C1876.42 330.096 1861.27 330.571 1847.49 327.777C1838.73 326.008 1829.65 326.618 1821.4 323.704C1814.29 321.207 1806.88 321.564 1799.54 319.647C1793.32 318.012 1786.96 317.789 1780.97 316.139C1773.73 314.147 1764.77 312.765 1759.07 311.516C1746.45 308.752 1733.84 305.922 1721.24 303.029C1717.09 302.078 1712.67 300.472 1708.21 299.328C1707.71 299.205 1707.29 298.9 1707.02 298.476C1706.75 298.052 1706.66 297.542 1706.77 297.054C1708.34 290.068 1711.46 283.439 1713.08 276.601C1714.35 271.31 1716 266.747 1716.69 261.113C1717.14 257.477 1717.95 252.859 1719.12 247.261C1721.43 236.187 1721.29 221.323 1718.14 209.046C1717.02 204.736 1716.66 200.098 1715.51 196.144C1712.93 187.276 1710.8 181.642 1709.11 179.244C1702.61 170.044 1697.43 160.605 1689.12 152.267C1683.08 146.203 1675.07 140.956 1668.28 134.951C1666.64 133.504 1662.7 131.294 1656.45 128.322C1636.59 118.898 1617.05 114.171 1595.15 111.481C1594.88 111.448 1594.63 111.355 1594.41 111.208C1594.18 111.062 1594 110.867 1593.86 110.639C1593.73 110.411 1593.66 110.156 1593.64 109.894C1593.63 109.633 1593.68 109.372 1593.79 109.133C1594.06 108.558 1594.46 108.087 1595.01 107.72C1595.42 107.443 1595.7 107.03 1595.81 106.561C1596.88 101.968 1597 97.8213 1598.96 93.377C1600.94 88.8436 1602.03 83.8049 1603.83 79.643C1609.12 67.3954 1614.38 53.5722 1622.45 42.692C1627.49 35.8844 1632.46 29.0323 1637.37 22.1355C1638.92 19.9506 1642.15 17.3494 1644.7 14.9118C1651.6 8.35194 1659.31 4.15047 1667.84 2.30738C1676.92 0.355284 1682.78 -0.358175 1685.43 0.167008C1696.15 2.30738 1705.42 2.69383 1715.07 9.63517C1724.71 16.5765 1735.03 22.8044 1741.52 32.9414C1750.16 46.4376 1756.7 61.0486 1763.49 75.4812C1763.7 75.937 1764.04 76.2838 1764.49 76.5217Z" fill="white"/>
<path d="M1588 177.94C1577.18 171.103 1564.95 167.655 1553.06 163.092C1550.33 162.041 1547.29 161.273 1543.95 160.788C1537.67 159.866 1531.83 157.845 1525.76 157.488C1520.69 157.191 1515.66 157.047 1510.69 157.057C1509.36 157.057 1509.17 156.611 1510.13 155.719C1514.16 151.899 1521.25 150.993 1524.89 149.64C1530.51 147.559 1534.74 146.306 1537.56 145.88C1544.09 144.884 1553.35 141.822 1562.03 141.42C1574.05 140.846 1586.08 140.801 1598.1 141.287C1606.32 141.614 1613.38 144.259 1621.36 146.221C1633.95 149.313 1645.42 154.223 1655.75 160.951C1663.24 165.841 1670.41 176.335 1675.08 183.916C1683.17 197.025 1687.19 212.9 1689.53 227.942C1690.18 232.118 1690.15 236.86 1690.44 241.319C1691.31 254.161 1689.92 266.201 1686.29 277.438C1683.5 286.044 1677.34 293.505 1672.07 300.803C1667.91 306.541 1662.57 308.949 1657.2 313.215C1657.02 313.36 1656.8 313.452 1656.56 313.481C1656.33 313.51 1656.09 313.475 1655.88 313.379C1655.67 313.282 1655.48 313.129 1655.36 312.937C1655.23 312.745 1655.16 312.522 1655.15 312.293C1654.94 304.039 1653.92 295.804 1652.11 287.59C1650.58 280.619 1651.26 273.752 1649.36 267.241C1646.1 256.049 1643.48 244.099 1638.62 234.036C1636.12 228.883 1633.37 223.864 1630.36 218.979C1625.14 210.492 1617.62 202.54 1610.8 194.603C1604.79 187.602 1595.79 182.875 1588 177.94Z" fill="white"/>
<path d="M1372.92 201.152C1381.6 194.999 1392.55 190.346 1402.5 186.482C1411.47 182.994 1423.7 179.758 1439.16 176.776C1450.66 174.576 1463.33 174.234 1475.54 172.926C1477.77 172.698 1480.14 172.713 1482.65 172.971C1491.11 173.863 1499.34 173.892 1507.79 174.442C1514.31 174.873 1520.66 176.82 1527.2 178.099C1530.29 178.713 1533.62 179.6 1537.16 180.759C1541.56 182.216 1546.23 183.167 1550.34 184.891C1561.14 189.41 1568.31 194.865 1577.25 200.498C1583.04 204.155 1590.48 210.789 1599.57 220.401C1605.13 226.287 1610.12 233.297 1614.53 241.433C1617.78 247.438 1619.69 254.587 1622.08 261.291C1627.35 276.035 1629.81 292.519 1629.19 308.929C1629.05 312.367 1628.21 318.536 1626.65 327.434C1625.75 332.597 1624.35 338.265 1622.45 344.438C1620.12 351.929 1617.97 360.149 1615.52 366.852C1608.56 385.888 1598.87 403.813 1586.45 420.629C1586.17 421.009 1585.8 421.311 1585.37 421.506C1584.1 422.081 1583.36 421.709 1583.14 420.391C1581.6 411.334 1580.35 402.243 1579.39 393.116C1578.31 382.727 1576.52 373.913 1574.35 364.296C1573.48 360.402 1571.46 356.76 1570.57 353.178C1566.64 337.502 1561.44 322.261 1554.97 307.457C1549.19 294.273 1539.91 281.862 1531.83 269.347C1529.66 265.973 1526.34 261.989 1523.36 259.165C1511.84 248.211 1502.21 237.568 1486.97 229.126C1471.81 220.743 1458.07 213.221 1441.06 209.669C1435.19 208.435 1429.87 206.518 1423.91 205.953C1406.69 204.303 1389.48 200.171 1372.37 203.605C1372.24 203.629 1372.11 203.618 1371.98 203.571C1371.86 203.525 1371.75 203.445 1371.67 203.342C1371.59 203.238 1371.54 203.115 1371.52 202.985C1371.51 202.856 1371.53 202.725 1371.59 202.609C1371.88 202.064 1372.32 201.578 1372.92 201.152Z" fill="white"/>
<path d="M1529.13 516.487C1524.48 525.732 1519.19 534.739 1513.26 543.509C1512.59 544.5 1511.88 544.525 1511.12 543.583C1510.8 543.177 1510.64 542.374 1510.66 541.175C1510.86 532.48 1508.92 523.725 1508.83 515.595C1508.72 506.276 1508.66 498.279 1506.61 488.781C1503.37 473.813 1500.94 458.756 1494.74 444.889C1485.95 425.269 1478.54 406.065 1465.65 387.574C1459.77 379.147 1453.96 369.247 1447.53 361.578C1442.54 355.632 1437.53 349.721 1432.47 343.845C1421.95 331.627 1410.66 320.123 1398.62 309.332C1395.04 306.136 1390.43 303.104 1386.47 299.789C1371.73 287.393 1354.14 280.303 1335.79 276.127C1321.47 272.871 1308.48 268.487 1292.69 268.754C1286.18 268.858 1278.69 267.253 1271.43 268.056C1261.94 269.096 1253.27 268.799 1244.16 269.839C1240.43 270.27 1237.24 272.188 1233.48 272.53C1227.33 273.094 1221.08 273.59 1214.73 274.016C1213.04 274.125 1212.76 273.535 1213.87 272.247C1217.05 268.561 1224.45 264.964 1228.79 262.526C1247.46 252.062 1261.11 245.146 1269.72 241.777C1278.47 238.348 1290.85 235.014 1306.86 231.773C1312.68 230.599 1318.65 230.51 1324.58 229.455C1341.82 226.378 1362.46 227.047 1379.01 227.314C1384.38 227.394 1390.19 227.973 1396.43 229.053C1404.17 230.391 1412.13 231.491 1419.44 233.483C1428.39 235.93 1437.2 238.784 1445.86 242.044C1451.91 244.333 1456.9 248.302 1462.44 251.468C1481.64 262.437 1497.53 276.781 1509.98 294.676C1515.97 303.287 1519.43 308.282 1520.35 309.659C1532.69 327.926 1538.59 352.08 1546.01 373.87C1547.54 378.314 1549.03 385.27 1551.09 390.815C1553.56 397.488 1553.46 405.53 1554.8 412.59C1555.31 415.265 1555.43 420.958 1555.15 429.668C1554.94 436.387 1553.18 444.413 1552.54 451.979C1552.28 455.249 1551.74 458.187 1550.94 460.793C1547.38 472.317 1544.89 479.694 1543.46 482.925C1538.59 493.968 1534.52 505.74 1529.13 516.487Z" fill="white"/>
<path d="M1422.29 666.493C1419.53 672.34 1417.03 677.151 1414.79 680.926C1406.49 694.957 1398.45 708.944 1389.37 722.544C1388.07 724.491 1385.87 726.84 1384.45 729.144C1379.29 737.616 1373.58 745.687 1367.3 753.357C1362.74 758.935 1358.27 764.564 1353.9 770.242C1349.51 775.949 1344.85 781.434 1339.91 786.696C1334.09 792.879 1326.86 801.619 1319.34 808.293C1305.59 820.491 1296.14 828.274 1290.99 831.643C1278.59 839.759 1266.41 849.183 1254.11 855.946C1235.7 866.073 1216.72 875.045 1197.18 882.864C1179.65 889.879 1155.38 897.252 1138.98 903.004C1129.35 906.363 1120.06 908.058 1110.49 911.03C1106.07 912.398 1101.68 912.844 1097.21 914.256C1094.61 915.068 1091.95 915.668 1089.24 916.054C1078.73 917.541 1068.38 919.889 1057.96 921.866C1054.18 922.594 1045.85 923.531 1039.92 925.136C1036.88 925.958 1034.16 926.528 1031.78 926.845C1022.73 928.064 1014.14 930.145 1004.95 931.527C997.251 932.687 960.326 940.356 974.769 919.086C976.144 917.055 976.99 915.46 977.306 914.3C981.448 898.946 970.306 887.234 956.704 881.511C953.402 880.134 949.011 878.979 943.529 878.048C936.544 876.874 930.217 875.134 923.095 876.978C921.098 877.493 918.805 877.899 916.217 878.196C900.169 879.98 884.183 890.845 874.141 902.811C869.638 908.181 865.073 913.498 860.447 918.759C854.257 925.82 848.22 933.787 842 941.293C828.565 957.464 808.926 964.733 791.212 975.435C774.293 985.661 757.007 994.207 739.4 1004.43C726.083 1012.17 712.042 1018.48 697.278 1023.37C693.152 1024.74 688.979 1024.97 684.761 1024.05C684.388 1023.97 684.037 1023.82 683.731 1023.6C683.425 1023.37 683.171 1023.09 682.986 1022.77C682.8 1022.44 682.689 1022.08 682.657 1021.71C682.626 1021.34 682.676 1020.97 682.805 1020.62C686.901 1009.5 695.994 998.8 703.529 989.689C706.413 986.211 709.714 981.826 713.433 976.534C719.363 968.062 727.632 959.917 733.103 952.827C743.894 938.825 754.684 924.839 764.817 910.391C770.258 902.632 774.522 893.744 779.55 885.673C781.537 882.492 784.013 877.201 785.572 873.039C790.687 859.275 794.146 845.387 795.95 831.376C797.05 822.805 798.095 815.467 799.083 809.363C800.489 800.653 800.092 792.418 802.17 783.559C804.478 773.69 803.79 764.207 806.679 754.367C807.983 749.928 808.788 745.404 809.094 740.797C809.598 733.082 811.967 726.483 812.945 719.007C813.638 713.745 814.331 709.697 815.024 706.863C819.762 687.629 824.23 670.675 828.428 656C830.812 647.646 835.321 638.668 838.026 631.251C840.884 623.389 843.757 615.6 847.349 607.856C849.978 602.188 852.606 596.52 855.235 590.852C857.039 586.987 859.739 581.954 863.336 575.751C867.172 569.136 870.656 561.541 874.141 555.581C884.565 537.734 892.609 525.358 898.274 518.451C903.577 512 908.071 505.104 913.68 499.084C918.785 493.614 923.767 488.04 928.627 482.362C936.499 473.162 945.76 465.001 954.182 456.039C958.482 451.461 962.944 447.215 967.57 443.3C976.251 435.958 984.841 427.59 993.125 420.916C1004.23 411.968 1015.46 403.173 1026.83 394.533C1035.2 388.171 1044.57 382.612 1052.99 376.206C1065.57 366.634 1078.56 360.123 1091.28 351.978C1099.27 346.865 1106.94 343.015 1115.1 338.69C1123.05 334.484 1131.61 331.154 1139.8 327.156C1145.7 324.272 1150.65 322.048 1154.66 320.482C1169.34 314.745 1180.05 311.172 1186.78 309.765C1192.68 308.532 1198.43 306.629 1203.08 305.767C1210.35 304.399 1217.24 302.616 1224.66 301.932C1234 301.08 1243.29 299.836 1252.52 298.201C1255.69 297.637 1258.86 297.602 1262.03 298.097C1271.35 299.554 1280.7 300.758 1290.09 301.709C1293.69 302.076 1297.38 302.74 1301.15 303.701C1306.1 304.964 1310.9 305.782 1315.61 307.551C1327.79 312.119 1337.59 316.37 1345.03 320.304C1349.94 322.92 1355.53 328.226 1360.32 331.347C1363.94 333.725 1367.74 335.925 1371.07 338.556C1386.28 350.536 1397.86 360.951 1405.81 369.8C1416.43 381.621 1422.87 389.36 1425.13 393.017C1429.42 399.953 1433.78 406.845 1438.22 413.692C1444.6 423.562 1447.8 433.253 1451.71 444.118C1454.33 451.357 1455.81 459.145 1457.84 466.859C1458.61 469.773 1459.23 473.062 1459.69 476.729C1461.19 488.679 1463.89 501.447 1463.95 515.226C1464 528.038 1460.99 542.59 1459.67 556.368C1459.31 560.124 1458.63 564.226 1457.64 568.675C1454.52 582.766 1451.77 596.262 1446.61 611.468C1440.46 629.557 1430.9 648.36 1422.29 666.493Z" fill="white"/>
<path d="M821.826 465.117C808.881 459.379 800.842 460.539 788.691 459.825C782.272 459.439 771.711 454.474 774.263 446.567C778.222 434.334 807.842 435.553 818.341 438.005C826.365 439.878 833.977 441.156 841.359 445.72C852.332 452.483 864.223 468.297 865.278 481.021C865.838 487.7 866.154 491.371 866.225 492.035C867.02 498.53 867.478 508.4 864.529 514.449C864.243 515.034 863.933 515.044 863.596 514.479C859.821 507.998 856.719 500.804 852.745 494.993C843.269 481.155 835.933 471.344 821.826 465.117Z" fill="white"/>
<path d="M803.346 583.229C782.53 556.222 757.128 537.107 721.196 533.466C714.196 532.752 707.655 531.653 700.563 532.128C682.203 533.377 663.816 534.105 645.405 534.313C642.266 534.343 639.984 534.135 638.558 533.689C634.309 532.381 630.121 528.516 632.383 523.686C633.835 520.579 641.14 517.621 644.518 515.704C651.702 511.616 660.123 509.119 667.795 505.909C669.945 505.007 672.762 504.08 676.247 503.129C680.16 502.044 683.767 500.409 687.649 499.606C694.863 498.12 701.328 496.054 708.862 495.37C714.742 494.845 720.575 493.968 726.362 492.739C729.541 492.066 737.061 492.056 748.921 492.71C753.506 492.957 758.555 494.419 764.067 497.095C779.183 504.422 792.189 518.929 800.305 533.154C809.597 549.444 814.381 565.304 816.292 583.542C816.76 588.1 816.719 592.584 816.169 596.993C816.164 597.058 816.138 597.12 816.096 597.171C816.054 597.221 815.997 597.259 815.933 597.278C815.869 597.297 815.801 597.297 815.736 597.278C815.672 597.259 815.615 597.222 815.573 597.172C811.37 592.564 807.274 588.328 803.346 583.229Z" fill="white"/>
<path d="M727.082 679.095C719.196 674.883 711.1 671.143 702.796 667.873C692.403 663.77 686.651 661.536 685.541 661.169C677.7 658.598 669.05 658.077 662.355 657.141C641.447 654.228 619.79 653.529 598.836 656.665C587.618 658.345 577.195 658.613 566.282 658.33C563.827 658.271 561.636 657.854 559.71 657.082C559.468 656.982 559.253 656.832 559.079 656.64C558.906 656.449 558.779 656.221 558.709 655.976C558.638 655.73 558.626 655.472 558.672 655.221C558.718 654.969 558.823 654.732 558.977 654.525C573.328 635.529 604.553 622.865 630.046 615.478C630.158 615.448 632.675 614.581 637.596 612.877C642.777 611.093 649.303 610.885 653.216 610.216C661.978 608.7 667.771 607.843 670.593 607.645C676.416 607.229 682.606 609.919 688.567 610.796C703.056 612.922 719.547 623.356 731.682 631.219C733.363 632.299 735.345 633.944 737.628 636.154C746.339 644.552 755.815 652.756 762.28 663.012C769.739 674.854 776.132 687.215 781.461 700.097C783.754 705.671 783.723 710.323 783.463 716.12C783.445 716.455 783.334 716.779 783.142 717.057C782.95 717.336 782.683 717.558 782.372 717.702C782.06 717.845 781.714 717.903 781.371 717.871C781.027 717.839 780.7 717.716 780.422 717.517C772.459 711.78 765.688 705.24 757.221 699.294C747.272 692.294 737.872 684.862 727.082 679.095Z" fill="white"/>
<path d="M1434.55 754.512C1437.38 753.026 1440.19 751.499 1442.97 749.934C1448.56 746.768 1453.67 741.714 1458.94 738.593C1470.01 732.023 1483.93 724.993 1497.24 720.92C1503.17 719.107 1509.1 716.758 1514.99 715.851C1525.24 714.266 1535.56 713.899 1545.95 714.752C1555.72 715.554 1562.8 718.928 1571.52 722.674C1581.4 726.895 1588.84 732.9 1595.84 740.525C1605.27 750.781 1611.54 758.807 1614.64 764.604C1620.43 775.47 1627.45 785.785 1631.77 797.156C1634.26 803.696 1636.74 810.231 1639.23 816.761C1640.86 821.056 1641.51 826.244 1643.39 830.941C1644.96 834.88 1644.76 838.625 1645.76 842.133C1648.38 851.349 1653.69 885.431 1640.54 886.888C1615.6 889.652 1582.97 821.889 1575.14 809.537C1570.72 802.561 1567.73 797.721 1566.17 795.015C1555.05 775.603 1541.35 753.858 1515.77 752.238C1502.38 751.395 1487.86 751.376 1472.22 752.178C1463.99 752.594 1456.24 754.438 1448.92 755.21C1443.92 755.746 1438.98 757.187 1433.91 756.593C1433.78 756.576 1433.66 756.528 1433.56 756.454C1433.46 756.38 1433.38 756.282 1433.33 756.168C1433.27 756.055 1433.25 755.931 1433.26 755.808C1433.27 755.684 1433.32 755.566 1433.39 755.463C1433.63 755.096 1434.02 754.779 1434.55 754.512Z" fill="white"/>
<path d="M740.425 753.37C746.477 754.915 750.965 756.744 753.89 758.854C759.759 763.09 766.774 772.261 762.571 779.381C756.09 790.38 742.396 797.975 731.056 802.509C710.402 810.783 690.885 815.069 672.504 815.366C661.653 815.544 652.89 814.662 646.216 812.72C634.799 809.406 626.057 797.425 623.673 785.207C622.022 776.691 620.234 767.847 619.638 759.508C618.975 750.154 619.179 742.529 620.249 736.633C621.686 728.726 628.624 728.74 635.655 730.048C643.419 731.475 651.046 731.936 658.764 733.66C665.901 735.251 673.329 736.053 680.1 737.763C690.172 740.319 699.266 742.266 710.041 745.596C717.265 747.835 724.621 749.584 732.11 750.843C734.739 751.289 737.735 752.671 740.425 753.37Z" fill="white"/>
<path d="M1355.55 830.48C1363.85 825.798 1373.83 821.086 1383.62 816.805C1388.61 814.635 1394.78 813.491 1400.5 811.529C1407.28 809.18 1414.79 809.626 1421.86 808.853C1425.21 808.497 1428.72 808.531 1432.39 808.957C1439.32 809.775 1445.95 809.284 1452.52 811.291C1461.84 814.125 1467.74 816.384 1470.24 818.069C1476.73 822.468 1483.27 826.789 1489.86 831.03C1502.52 839.145 1511.53 849.892 1521.82 860.445C1525.06 863.765 1529.34 869.646 1534.66 878.088C1540.53 887.393 1547.14 896.906 1551.78 906.18C1562.55 927.802 1569.81 950.524 1573.55 974.345C1575.22 984.884 1576.72 998.662 1564.77 1004.18C1564.3 1004.39 1563.82 1004.4 1563.35 1004.21C1556.05 1001.25 1551.24 997.176 1545.74 991.751C1538.57 984.705 1534.58 975.98 1528.85 967.939C1519.38 954.651 1510.3 941.125 1501.58 927.361C1499.41 923.933 1496.47 919.801 1492.76 914.965C1486.83 907.206 1481.55 897.901 1476.46 891.005C1472.34 885.426 1469.44 881.873 1467.76 880.347C1462.64 875.71 1457.78 870.062 1452.68 866.272C1442.54 858.75 1430.01 854.262 1418.36 852.344C1411.39 851.2 1404.5 849.297 1397.75 848.911C1386.62 848.301 1375.28 847.142 1364.08 847.246C1363.57 847.256 1359.51 847.633 1351.91 848.376C1346.96 848.861 1341.99 848.609 1336.99 847.618C1335.66 847.35 1334.81 846.993 1334.46 846.547C1333.85 845.794 1333.95 845.15 1334.78 844.615C1341.88 840.007 1349.19 834.077 1355.55 830.48Z" fill="white"/>
<path d="M775.316 859.97C771.434 874.224 759.07 885.535 746.537 892.194C734.188 898.779 717.819 905.556 703.911 900.072C695.545 896.782 689.992 890.361 687.252 880.808C684.883 872.589 686.762 867.669 690.476 860.742C692.056 857.819 694.302 855.545 697.217 853.92C707.793 848.034 712.821 846.964 722.542 845.79C730.352 844.853 737.963 846.756 745.62 847.975C749.614 848.609 753.644 849.649 757.709 851.096C763.318 853.073 770.532 854.544 774.934 858.632C775.331 859.008 775.459 859.454 775.316 859.97Z" fill="white"/>
<path d="M1284.14 940.057C1278.58 937.976 1273.13 938.021 1267.5 936.222C1262 934.468 1255.61 934.082 1250.61 933.011C1247 932.239 1243.35 931.609 1239.67 931.124C1229.34 929.771 1219.42 927.512 1209.15 926.367C1208.9 926.341 1208.66 926.238 1208.48 926.072C1208.29 925.907 1208.16 925.688 1208.11 925.446C1207.88 924.455 1208.31 923.756 1209.39 923.35C1214.67 921.373 1219.79 919.441 1225.27 918.044C1239.73 914.387 1250.47 912.351 1257.49 911.935C1265.25 911.469 1272.99 910.751 1280.71 909.78C1289.92 908.635 1299 908.724 1307.99 909.705C1319.22 910.924 1330.94 911.727 1341.41 914.045C1355.72 917.226 1368.98 921.18 1382.14 928.002C1395.51 934.929 1406.46 941.831 1414.97 948.707C1422.51 954.792 1432.52 964.77 1444.99 978.643C1453.81 988.453 1460.3 1001.5 1467.4 1012.62C1478.08 1029.36 1483.37 1048.1 1488.69 1064.81C1490.77 1071.36 1490.98 1077.71 1491.67 1084.44C1492.29 1090.34 1491.9 1096.78 1490.49 1103.78C1489.62 1108.13 1487.33 1111.21 1483.61 1113.01C1483.15 1113.23 1482.67 1113.28 1482.18 1113.16C1478.59 1112.31 1475.76 1110.69 1473.68 1108.3C1467.31 1100.97 1460.73 1092.48 1453.93 1082.84C1446.95 1072.92 1439.18 1064.48 1431.56 1055.29C1427.01 1049.81 1422.14 1044.34 1416.93 1038.9C1410.14 1031.8 1403.34 1024.1 1396.83 1017.48C1387.02 1007.51 1377.18 997.569 1367.32 987.65C1360.15 980.441 1352.77 970.795 1342.83 963.928C1336.55 959.588 1327.8 954.762 1316.59 949.451C1311.92 947.236 1306.55 946.21 1301.49 944.575C1296.07 942.822 1289.83 942.182 1284.14 940.057Z" fill="white"/>
<path d="M872.966 965.059C876.649 957.048 879.462 949.036 885.468 942.258C892.254 934.599 898.566 928.222 904.404 923.129C911.466 916.99 925.465 912.561 933.23 920.453C934.615 921.86 935.868 924.382 936.989 928.019C938.243 932.062 941.513 937.71 940.596 941.857C936.959 958.162 937.601 976.727 930.494 991.888C924.182 1005.35 918.466 1014.44 903.9 1018.97C894.409 1021.93 879.844 1019.22 873.638 1010.36C865.905 999.275 865.11 987.815 869.176 975.345C870.663 970.777 871.927 967.348 872.966 965.059Z" fill="white"/>
<path d="M1016.22 980.039C1014.94 972.444 1013.36 962.039 1016.45 956.034C1018.47 952.11 1024.55 948.186 1029.06 947.829C1037.1 947.19 1049.37 946.536 1058.45 949.078C1064.59 950.787 1069.83 951.099 1074.74 953.18C1079.11 955.033 1083.57 956.668 1088.11 958.085C1094.29 960.008 1106.57 964.462 1124.96 971.448C1134.96 975.253 1144.08 980.232 1152.12 984.082C1157.44 986.638 1164.33 989.046 1168.34 993.52C1171.5 997.073 1172.31 1002.54 1173.92 1007.14C1175.12 1010.58 1172.5 1015.68 1170.98 1018.95C1167.82 1025.76 1158.04 1034.28 1151.24 1037.74C1143.96 1041.46 1136.76 1045.29 1129.62 1049.23C1125.7 1051.4 1120.26 1054.92 1113.3 1059.8C1103.15 1066.89 1091.84 1073.35 1079.36 1079.18C1076.4 1080.56 1073.85 1080.37 1071.71 1078.61C1064.56 1072.73 1060.3 1063.63 1055.59 1055.95C1053.37 1052.31 1050.15 1047.44 1045.95 1041.34C1034.36 1024.53 1027.7 1007.06 1019.69 990.384C1017.92 986.698 1016.76 983.249 1016.22 980.039Z" fill="white"/>
<path d="M320.948 1235.62C338.784 1227.27 355.703 1219.58 373.417 1209.13C382.878 1203.56 393.179 1198.48 401.998 1193.01C419.742 1181.99 438.037 1171.38 454.864 1159.09C461.207 1154.48 468.68 1149.99 474.305 1145.96C496.772 1129.93 517.384 1114.03 536.143 1098.25C541.92 1093.39 547.896 1089.2 552.817 1084.73C564.173 1074.43 575.605 1065.51 587.419 1054.58C591.383 1050.91 596.508 1046.31 602.795 1040.8C608.526 1035.78 616.244 1026.06 624.421 1019.1C627.457 1016.52 630.158 1013.93 632.521 1011.36C646.751 995.886 660.75 980.145 675.407 965.073C678.24 962.17 680.95 959.162 683.538 956.051C687.91 950.834 692.143 947.831 697.951 953.361C703.468 958.593 688.857 972.743 685.602 976.667C678.281 985.54 668.408 993.938 660.277 1003.24C653.078 1011.51 644.84 1018.15 637.259 1025.97C633.286 1030.07 629.235 1033.81 625.109 1037.19C614.624 1045.75 605.485 1055.68 594.985 1064.05C580.48 1075.63 567.077 1088.28 552.511 1099.8C544.686 1106 532.108 1116.83 521.333 1123.97C513.813 1128.94 507.226 1133.93 501.571 1138.93C500.042 1140.28 497.536 1141.99 494.051 1144.06C477.575 1153.84 463.362 1165.54 446.076 1175.51C440.716 1178.61 434.552 1182.44 427.582 1187C415.249 1195.09 400.301 1202.73 389.312 1209.1C371.537 1219.43 356.529 1226.27 334.581 1236.42C318.992 1243.62 302.654 1249.96 286.545 1256.49C280.049 1259.12 267.96 1263.1 258.698 1267.68C258.392 1267.84 258.052 1267.91 257.708 1267.91C257.364 1267.91 257.025 1267.83 256.72 1267.67C256.416 1267.52 256.155 1267.29 255.959 1267.02C255.763 1266.74 255.638 1266.42 255.595 1266.09L255.503 1265.47C255.451 1265.06 255.537 1264.64 255.749 1264.29C255.962 1263.93 256.289 1263.65 256.68 1263.49C260.883 1261.78 265.01 1259.42 268.8 1257.93C279.519 1253.75 290.192 1249.46 300.82 1245.07C307.468 1242.33 314.208 1238.79 320.948 1235.62Z" fill="white"/>
<path d="M673.847 1493.37C672.64 1471.48 673.923 1448.11 674.26 1425.31C674.341 1419.28 674.871 1412.55 675.849 1405.11C677.255 1394.55 677.79 1383.61 679.487 1373.48C681.474 1361.58 683.369 1349.68 685.172 1337.77C685.478 1335.76 686.425 1331.42 688.015 1324.73C689.421 1318.81 689.574 1312.97 691.056 1307.16C692.952 1299.85 693.548 1292.18 695.489 1285.3C702.244 1261.32 708.144 1237.14 714.349 1213.03C716.641 1204.15 719.29 1195.37 722.296 1186.69C722.306 1186.63 723.015 1184.23 724.421 1179.5C725.491 1175.9 727.462 1172.38 728.563 1169.21C732.383 1158.01 736.153 1146.81 739.873 1135.59C745.558 1118.45 749.542 1107.32 751.824 1102.22C762.171 1079.03 768.484 1059.55 777.975 1038.66C782.794 1028.03 787.609 1017.4 792.418 1006.77C794.053 1003.14 798.378 999.647 802.444 1002.5C807.121 1005.77 807.228 1009.59 804.752 1014.56C796.539 1031.03 791.536 1041.67 789.743 1046.47C784.776 1059.74 777.272 1073.45 772.717 1085.11C770.048 1091.98 767.434 1098.86 764.877 1105.76C761.423 1115.07 757.765 1124.31 753.903 1133.48C746.46 1151.17 741.187 1166.67 735.547 1183.64C731.359 1196.26 726.27 1209.67 721.868 1222.8C720.625 1226.52 719.02 1232.21 717.054 1239.86C715.205 1247.04 712.255 1254.25 710.788 1261.46C709.106 1269.62 706.386 1277.32 704.46 1285.39C702.392 1294.05 700.787 1300.51 699.646 1304.78C694.113 1325.5 691.973 1341.07 688.504 1359.42C687.511 1364.67 687.679 1372.59 685.554 1379.86C684.8 1382.45 684.342 1385.04 684.179 1387.65C683.476 1398.66 681.29 1410.85 680.556 1420.39C678.998 1440.56 678.921 1458.98 678.478 1477.93C678.096 1494.01 679.517 1508.94 680.832 1524.5C681.749 1535.5 684.653 1544.62 683.139 1555.52C683.123 1555.64 683.082 1555.75 683.019 1555.85C682.956 1555.96 682.872 1556.05 682.773 1556.11C682.675 1556.18 682.563 1556.23 682.444 1556.26C682.326 1556.28 682.203 1556.29 682.085 1556.26C681.912 1556.22 681.769 1556.01 681.657 1555.64C677.821 1543.39 677.133 1530.01 675.299 1517.36C674.198 1509.71 674.305 1501.77 673.847 1493.37Z" fill="white"/>
<path d="M1137.83 1813.33L1206.02 1689.37L1168.77 1669.04L1131.52 1648.7L1099.13 1707.58L1066.73 1766.46L977.947 1717.99L889.16 1669.53L922.173 1610.99L955.186 1552.45L917.312 1531.77L880.059 1511.44L811.865 1635.39L743.67 1759.34L768.506 1772.9L793.341 1786.46L817.209 1743.08L841.217 1700.17L854.877 1707.63L868.536 1715.08L845.149 1758.33C822.645 1799.23 822.383 1801.91 832.317 1807.33C842.251 1812.75 844.376 1811.09 866.88 1770.19L890.888 1727.29L904.548 1734.74L918.207 1742.2L894.82 1785.44C872.316 1826.35 872.054 1829.02 881.988 1834.45C891.922 1839.87 894.047 1838.21 916.551 1797.3L940.559 1754.4L954.218 1761.86L967.878 1769.31L944.491 1812.55C921.987 1853.46 921.725 1856.14 931.659 1861.56C941.593 1866.98 943.718 1865.32 966.222 1824.42L990.23 1781.51L1003.89 1788.97L1017.55 1796.43L994.162 1839.67C971.658 1880.57 971.395 1883.25 981.33 1888.67C991.264 1894.1 993.389 1892.44 1015.89 1851.53L1039.9 1808.63L1053.56 1816.08L1067.22 1823.54L1043.83 1866.78L1019.96 1910.17L1044.8 1923.72L1069.64 1937.28L1137.83 1813.33Z" fill="white"/>
<path fill-rule="evenodd" clip-rule="evenodd" d="M1407.39 1236.78C1400 1259.74 1364.35 1370.03 1327.88 1481.08C1291.55 1592.61 1260.76 1683.79 1259.32 1684.21C1257.88 1684.63 1231.6 1671.5 1201.04 1654.41L1145.64 1623.77L1159.82 1597.26L1174 1570.75L1159.59 1549.99L1144.69 1529.37L1176.74 1471.11L1208.8 1412.85L1160.51 1386.89L1112.56 1360.32L1080.51 1418.57L1048.46 1476.83L1022.99 1475.42L997.668 1474.49L982.866 1500.66L968.204 1527.31L911.083 1496.13C879.418 1478.85 854.643 1463.71 855.325 1462.47C862.084 1451.66 1185.72 1071.05 1188.61 1070.2C1190.53 1069.64 1203.63 1075.18 1216.81 1082.78L1241.16 1096.48L1325.27 1085.57L1362.72 1162.43L1391.9 1178.36L1420.6 1194.43L1407.39 1236.78Z" fill="white"/>
<path d="M1105.39 1652.17L1149.03 1572.84L1133.8 1552.84L1119.05 1532.69L1135.19 1500.41C1144.74 1483.05 1157.28 1458.06 1163.48 1445.33L1174.65 1422.82L1147.19 1407.43L1119.73 1392.04L1089.59 1446.1L1059.44 1500.16L1034.46 1498.61L1009.33 1496.58L964.667 1577.77L920.341 1658.34L988.638 1695.62C1025.89 1715.95 1057.9 1732.62 1059.34 1732.2C1060.78 1731.78 1081.52 1695.55 1105.39 1652.17Z" fill="white"/>
<path d="M265.748 1157.12L343.346 1091.36L323.619 1068.08L303.893 1044.8L267.034 1076.04L230.175 1107.27L183.161 1051.79L136.146 996.303L173.334 965.458L210.522 934.613L190.467 910.945L170.741 887.666L93.1428 953.42L15.5447 1019.17L28.6956 1034.69L41.8465 1050.21L69.0058 1027.2L96.1355 1004.54L103.368 1013.08L110.601 1021.62L83.8005 1044.66C58.1931 1066.36 57.3283 1068.09 62.5887 1074.3C67.849 1080.51 69.7001 1079.94 95.3075 1058.24L122.437 1035.58L129.67 1044.12L136.903 1052.65L110.102 1075.7C84.4948 1097.4 83.63 1099.13 88.8904 1105.34C94.1507 1111.55 96.0018 1110.98 121.609 1089.28L148.739 1066.62L155.972 1075.16L163.205 1083.69L136.404 1106.74C110.797 1128.44 109.932 1130.17 115.192 1136.38C120.452 1142.58 122.304 1142.02 147.911 1120.32L175.041 1097.66L182.274 1106.2L189.506 1114.73L162.706 1137.78C137.098 1159.48 136.233 1161.21 141.494 1167.42C146.754 1173.62 148.605 1173.06 174.213 1151.36L201.342 1128.7L208.575 1137.24L215.808 1145.77L189.007 1168.82L161.848 1191.83L174.999 1207.35L188.15 1222.87L265.748 1157.12Z" fill="white"/>
<path fill-rule="evenodd" clip-rule="evenodd" d="M594.766 838.984C583.905 852.519 531.631 917.479 478.61 982.738C425.559 1048.36 381.459 1101.72 380.384 1101.63C379.309 1101.55 365.083 1085.94 349.003 1066.57L319.772 1031.68L336.097 1017.51L352.422 1003.34L348.109 985.668L343.438 967.962L379.909 937.058L416.38 906.153L390.706 876.248L365.421 846.015L328.95 876.919L292.478 907.824L275.78 900.31L259.051 893.155L242.397 906.933L225.713 921.071L195.467 885.376C178.699 865.588 165.996 849.023 166.772 848.365C174.084 842.835 488.9 670.391 491.051 670.568C492.484 670.687 499.836 677.789 506.71 686.295L519.503 701.785L578.664 716.145L583.971 777.473L599.424 795.708L614.517 813.914L594.766 838.984Z" fill="white"/>
<path d="M285.494 1040.39L335.157 998.309L330.098 980.933L325.397 963.585L344.527 946.042C355.391 936.836 370.223 923.268 377.654 916.305L390.935 904.051L376.498 886.621L362.062 869.191L327.949 897.765L293.835 926.338L277.495 918.854L261.184 911.012L210.357 954.081L159.918 996.821L196.083 1039.5C215.809 1062.78 232.965 1082.24 234.04 1082.33C235.115 1082.42 258.335 1063.41 285.494 1040.39Z" fill="white"/>
</svg>
