<?xml version="1.0" encoding="UTF-8"?><svg id="Calque_1" xmlns="http://www.w3.org/2000/svg" viewBox="0 0 369.15 344.9"><defs><style>.cls-1{fill:#000;stroke-width:0px;}</style></defs><polygon class="cls-1" points="307.67 82.81 321.04 80.63 350.85 87.9 369.15 78.84 343.94 64.45 345.5 49.63 333.47 39.13 318.76 40.53 308.1 20.85 292.38 27.19 290.98 40.32 278.16 44.33 303.58 54.37 307.67 82.81"/><polygon class="cls-1" points="153.05 216.16 156.56 195.14 149.53 193.5 138.84 204.83 142.5 216.16 153.05 216.16"/><polygon class="cls-1" points="109.45 184.11 117.64 187.17 122.37 179.64 125.27 175.51 123.28 171.19 111.09 176.61 109.45 184.11"/><polygon class="cls-1" points="166.69 193.68 192.83 189.46 253.94 127.5 252.69 89.81 229.83 72.96 206.2 77.01 136.53 124.32 128.75 158 131.28 176.76 117.23 199.41 98.42 216.33 74.81 226.49 75.81 227.03 99.22 219.74 113.22 210.23 114.3 210.14 108 227.94 109.66 253.37 110.88 253.77 111.56 228.45 120.86 209.5 152.52 182.19 166.69 193.68"/><polygon class="cls-1" points="235.06 65.31 262.76 85.09 264.15 119.62 280.06 103.69 280.06 72.91 248.78 57.39 237.1 59.22 214.79 68.24 235.06 65.31"/><polygon class="cls-1" points="286.31 66.11 289.36 94.39 298.18 85.56 295.99 60.65 268.97 48 260.67 48.69 250.05 52.25 259.4 52.25 286.31 66.11"/><path class="cls-1" d="M112.52,155.88c-6.38-.32-6.83-.3-12.26-.48h0c30.41-38.16,60.33-76.71,89.6-115.74,9.87-13.13,19.66-26.33,29.28-39.66-20.88,25.39-41.17,51.23-61.33,77.19-20.52,26.34-40.65,52.97-60.64,79.72,7.44-.28,7.89-.65,15.34-1.02"/><polygon class="cls-1" points="142.26 113.31 163.44 100.3 150.2 100.3 139.98 113.46 142.26 113.31"/><path class="cls-1" d="M225.52,187.5c7.05-3.84,13.97-7.59,20.82-11.3l-1.83-23.05-19.63,21.1.64,13.24Z"/><path class="cls-1" d="M166.82,226.42h0c.5-7.52.17-8.12.68-16.44-1.23,9.15-1.17,9.74-2.31,18.9l1.18-.62c38.95-20.31,77.77-40.84,116.39-61.77,38.63-20.9,41.86-23.29,80.05-45.01-39.17,19.88-42.66,21.8-81.4,42.5-38.37,20.48-76.54,41.34-114.59,62.43"/><polygon class="cls-1" points="199.05 276.56 191.05 274.4 171.16 295.15 189.05 312.3 208.94 291.55 206.44 283.65 219.29 270.24 211.89 263.16 199.05 276.56"/><polygon class="cls-1" points="258.21 256.5 249.2 191.57 223.39 205.3 210.89 235.29 167.88 266.19 182.42 280.12 189.41 272.83 190.34 271.86 191.64 272.21 198.34 274.02 210.25 261.58 211.83 259.94 213.47 261.52 220.86 268.6 222.5 270.17 220.93 271.82 209.02 284.25 211.1 290.86 211.51 292.15 210.58 293.12 203.59 300.41 219.21 315.38 258.21 257.66 257.76 257.02 258.21 256.5"/><polygon class="cls-1" points="139.98 304.88 146.32 310.95 156.82 300 160.32 303.36 149.83 314.32 152.71 317.08 163.21 306.13 166.72 309.49 156.22 320.44 159.1 323.21 169.6 312.25 173.11 315.62 162.61 326.57 165.5 329.34 176 318.38 179.5 321.74 169 332.7 171.89 335.46 182.39 324.51 185.9 327.87 175.4 338.83 181.73 344.9 212.74 312.55 202.56 302.79 201.91 302.17 190.69 313.87 189.12 315.51 187.48 313.94 169.59 296.79 167.95 295.22 169.52 293.58 180.73 281.88 170.97 272.56 139.98 304.88"/><polygon class="cls-1" points="0 170.74 4.5 175.03 11.92 167.25 14.41 169.63 6.99 177.4 9.04 179.36 16.46 171.58 18.95 173.95 11.53 181.73 13.58 183.69 21 175.91 23.49 178.28 16.07 186.06 18.12 188.02 25.54 180.24 28.03 182.62 20.61 190.39 22.66 192.35 30.08 184.57 32.57 186.95 25.15 194.72 29.65 199.01 51.56 176.04 44.73 169.53 35.94 178.75 34.37 180.4 32.72 178.83 20.01 166.71 18.37 165.14 19.94 163.5 28.74 154.27 21.91 147.76 0 170.74"/><polygon class="cls-1" points="111.27 98.29 65.01 110.28 65.01 110.29 65.01 110.29 65.06 110.51 20.4 142.77 30.51 152.42 33.99 148.77 34.92 147.79 36.22 148.14 40.59 149.3 48.74 140.76 50.31 139.12 51.95 140.68 57.2 145.69 58.85 147.26 57.28 148.9 49.13 157.45 50.51 161.76 50.92 163.04 49.99 164.02 46.5 167.68 56.61 177.32 74.41 150.05 115.02 112.96 124.39 112.18 134.99 98.29 111.27 98.29"/><polygon class="cls-1" points="41.31 151.85 35.63 150.33 21.59 165.07 34.29 177.18 48.34 162.45 46.56 156.86 55.64 147.34 50.39 142.33 41.31 151.85"/></svg>