<?xml version="1.0" encoding="UTF-8"?><svg id="Calque_1" xmlns="http://www.w3.org/2000/svg" viewBox="0 0 221.83 183.83"><defs><style>.cls-1{fill:#e6e6e6;stroke-width:0px;}</style></defs><polygon class="cls-1" points="152.91 28.25 157.47 27.5 167.63 29.98 173.88 26.89 165.28 21.99 165.81 16.93 161.71 13.35 156.69 13.83 153.05 7.11 147.69 9.28 147.21 13.75 142.84 15.12 151.51 18.55 152.91 28.25"/><polygon class="cls-1" points="100.16 73.73 101.36 66.56 98.96 66 95.32 69.87 96.56 73.73 100.16 73.73"/><polygon class="cls-1" points="85.29 62.8 88.08 63.84 89.7 61.28 90.69 59.87 90.01 58.4 85.85 60.24 85.29 62.8"/><polygon class="cls-1" points="104.82 66.07 113.73 64.63 134.58 43.49 134.15 30.64 126.35 24.89 118.29 26.27 94.53 42.41 91.88 53.89 92.74 60.3 87.94 68.02 81.53 73.79 73.48 77.26 73.82 77.44 81.8 74.96 86.58 71.71 86.94 71.68 84.8 77.75 85.36 86.43 85.78 86.56 86.01 77.93 89.18 71.46 99.98 62.15 104.82 66.07"/><polygon class="cls-1" points="128.14 22.28 137.59 29.03 138.06 40.8 143.49 35.37 143.49 24.87 132.82 19.58 128.84 20.2 121.22 23.28 128.14 22.28"/><polygon class="cls-1" points="145.62 22.55 146.66 32.2 149.67 29.19 148.92 20.69 139.71 16.37 136.87 16.61 133.25 17.82 136.44 17.82 145.62 22.55"/><path class="cls-1" d="M86.34,53.17c-2.18-.11-2.33-.1-4.18-.17h0c10.37-13.02,20.58-26.16,30.56-39.48C116.09,9.05,119.43,4.55,122.71,0c-7.12,8.66-14.04,17.48-20.92,26.33-7,8.98-13.87,18.07-20.68,27.19,2.54-.09,2.69-.22,5.23-.35"/><polygon class="cls-1" points="96.48 38.65 103.71 34.21 99.19 34.21 95.71 38.7 96.48 38.65"/><path class="cls-1" d="M124.88,63.96c2.4-1.31,4.77-2.59,7.1-3.85l-.62-7.86-6.7,7.2.22,4.52Z"/><path class="cls-1" d="M104.86,77.23h0c.17-2.56.06-2.77.23-5.61-.42,3.12-.4,3.32-.79,6.45l.4-.21c13.29-6.93,26.53-13.93,39.7-21.07,13.18-7.13,14.28-7.94,27.31-15.35-13.36,6.78-14.55,7.44-27.77,14.5-13.09,6.99-26.11,14.1-39.09,21.3"/><polygon class="cls-1" points="115.85 94.34 113.13 93.6 106.34 100.68 112.44 106.53 119.23 99.45 118.38 96.76 122.76 92.18 120.24 89.77 115.85 94.34"/><polygon class="cls-1" points="136.03 87.5 132.96 65.35 124.16 70.03 119.89 80.26 105.22 90.8 110.18 95.55 112.56 93.07 112.88 92.73 113.33 92.85 115.61 93.47 119.68 89.23 120.21 88.67 120.77 89.21 123.29 91.62 123.85 92.16 123.32 92.72 119.25 96.96 119.97 99.22 120.11 99.66 119.79 99.99 117.4 102.47 122.73 107.58 136.03 87.89 135.88 87.67 136.03 87.5"/><polygon class="cls-1" points="95.71 104 97.87 106.07 101.45 102.33 102.64 103.48 99.06 107.22 100.05 108.16 103.63 104.42 104.83 105.57 101.24 109.31 102.23 110.25 105.81 106.51 107.01 107.66 103.43 111.4 104.41 112.34 107.99 108.6 109.19 109.75 105.61 113.49 106.59 114.43 110.17 110.69 111.37 111.84 107.79 115.58 109.95 117.65 120.52 106.61 117.05 103.29 116.83 103.07 113 107.06 112.47 107.62 111.91 107.09 105.81 101.24 105.25 100.7 105.78 100.14 109.61 96.15 106.27 92.97 95.71 104"/><polygon class="cls-1" points="47.96 58.24 49.49 59.7 52.02 57.05 52.87 57.86 50.34 60.51 51.04 61.18 53.57 58.53 54.42 59.34 51.89 61.99 52.59 62.66 55.12 60 55.97 60.81 53.44 63.47 54.14 64.13 56.67 61.48 57.52 62.29 54.99 64.94 55.69 65.61 58.22 62.96 59.07 63.77 56.54 66.42 58.07 67.89 65.54 60.05 63.22 57.83 60.21 60.97 59.68 61.54 59.12 61 54.78 56.87 54.22 56.33 54.76 55.77 57.76 52.62 55.43 50.4 47.96 58.24"/><polygon class="cls-1" points="85.91 33.53 70.13 37.62 70.13 37.62 70.13 37.62 70.15 37.7 54.91 48.7 58.36 51.99 59.55 50.75 59.87 50.41 60.31 50.53 61.8 50.93 64.58 48.01 65.12 47.45 65.68 47.99 67.47 49.7 68.03 50.23 67.5 50.79 64.72 53.71 65.19 55.18 65.32 55.62 65.01 55.95 63.82 57.2 67.27 60.49 73.34 51.18 87.19 38.53 90.39 38.27 94 33.53 85.91 33.53"/><polygon class="cls-1" points="62.05 51.8 60.11 51.28 55.32 56.31 59.65 60.44 64.45 55.41 63.84 53.51 66.93 50.26 65.14 48.55 62.05 51.8"/><rect class="cls-1" x="36.88" y="176.98" width="1.15" height="6.75"/><polygon class="cls-1" points="41.78 178.97 41.78 183.73 40.63 183.73 40.63 176.98 41.78 176.98 45.13 181.75 45.13 176.98 46.28 176.98 46.28 183.73 45.13 183.73 41.78 178.97"/><polygon class="cls-1" points="48.89 183.73 48.89 176.98 53.3 176.98 53.3 178.02 50.03 178.02 50.03 179.76 53.08 179.76 53.08 180.81 50.03 180.81 50.03 183.73 48.89 183.73"/><path class="cls-1" d="M56.56,178.02v2.36h1.28c.96,0,1.57-.32,1.57-1.18,0-.82-.6-1.17-1.57-1.17h-1.28ZM57.96,181.43h-1.4v2.3h-1.15v-6.75h2.57c1.57,0,2.57.8,2.57,2.2,0,1-.51,1.72-1.38,2.05l1.55,2.49h-1.36l-1.41-2.3Z"/><path class="cls-1" d="M64.31,181.23h2.05l-1.03-2.69-1.02,2.69ZM68.54,183.73h-1.2l-.57-1.43h-2.88l-.56,1.43h-1.21l2.64-6.75h1.16l2.63,6.75Z"/><path class="cls-1" d="M72.19,180.8c-1.26-.22-2.02-.9-2.02-2,0-1.19,1.1-1.92,2.38-1.92,1.19,0,1.95.51,2.49,1.08l-.8.85c-.38-.45-.91-.88-1.74-.88s-1.17.45-1.17.86c0,.46.3.79,1.12.91l.67.12c1.48.24,2.16,1,2.16,2.08s-.95,1.95-2.58,1.95c-1.25,0-2.13-.59-2.68-1.29l.78-.79c.41.54.97,1.04,2.05,1.04.86,0,1.28-.39,1.28-.89,0-.44-.28-.82-1.11-.96l-.82-.13Z"/><polygon class="cls-1" points="82.31 176.98 82.31 178.02 80.25 178.02 80.25 183.73 79.1 183.73 79.1 178.02 77.1 178.02 77.1 176.98 82.31 176.98"/><path class="cls-1" d="M85.51,178.02v2.36h1.28c.96,0,1.57-.32,1.57-1.18,0-.82-.6-1.17-1.57-1.17h-1.28ZM86.91,181.43h-1.4v2.3h-1.15v-6.75h2.57c1.57,0,2.57.8,2.57,2.2,0,1-.51,1.72-1.38,2.05l1.55,2.49h-1.36l-1.41-2.3Z"/><path class="cls-1" d="M95.8,176.98h1.15v3.75c0,2.06-1.1,3.1-2.72,3.1s-2.72-1.04-2.72-3.1v-3.75h1.16v3.76c0,1.24.43,2.05,1.57,2.05s1.57-.81,1.57-2.06v-3.75Z"/><path class="cls-1" d="M105.03,182.56c-.6.75-1.41,1.27-2.69,1.27-2.02,0-3.52-1.41-3.52-3.46s1.5-3.49,3.48-3.49c1.19,0,2.06.5,2.63,1.27l-.74.77c-.39-.57-.99-.99-1.87-.99-1.33,0-2.33,1.03-2.33,2.44s1,2.41,2.37,2.41c.87,0,1.48-.39,1.94-1.01l.72.79Z"/><polygon class="cls-1" points="111.64 176.98 111.64 178.02 109.58 178.02 109.58 183.73 108.43 183.73 108.43 178.02 106.43 178.02 106.43 176.98 111.64 176.98"/><path class="cls-1" d="M117.87,176.98h1.15v3.75c0,2.06-1.1,3.1-2.72,3.1s-2.72-1.04-2.72-3.1v-3.75h1.15v3.76c0,1.24.43,2.05,1.57,2.05s1.57-.81,1.57-2.06v-3.75Z"/><path class="cls-1" d="M122.56,178.02v2.36h1.28c.96,0,1.57-.32,1.57-1.18,0-.82-.6-1.17-1.57-1.17h-1.28ZM123.95,181.43h-1.4v2.3h-1.15v-6.75h2.57c1.57,0,2.57.8,2.57,2.2,0,1-.51,1.72-1.38,2.05l1.55,2.49h-1.36l-1.41-2.3Z"/><polygon class="cls-1" points="128.78 176.98 133.52 176.98 133.52 178.02 129.92 178.02 129.92 179.76 133.36 179.76 133.36 180.81 129.92 180.81 129.92 182.69 133.52 182.69 133.52 183.73 128.78 183.73 128.78 176.98"/><polygon class="cls-1" points="146.06 176.98 147.29 176.98 145.54 183.73 144.27 183.73 143.01 178.85 141.75 183.73 140.49 183.73 138.73 176.98 139.95 176.98 141.12 181.91 142.35 176.98 143.67 176.98 144.91 181.91 146.06 176.98"/><path class="cls-1" d="M152.09,182.78c1.3,0,2.24-1.05,2.24-2.43s-.94-2.42-2.24-2.42-2.27,1.06-2.27,2.42.94,2.43,2.27,2.43M152.05,176.88c1.93,0,3.44,1.51,3.44,3.47s-1.5,3.48-3.44,3.48-3.41-1.5-3.41-3.48,1.47-3.47,3.41-3.47"/><path class="cls-1" d="M158.8,178.02v2.36h1.28c.96,0,1.57-.32,1.57-1.18,0-.82-.6-1.17-1.57-1.17h-1.28ZM160.2,181.43h-1.39v2.3h-1.15v-6.75h2.57c1.57,0,2.57.8,2.57,2.2,0,1-.51,1.72-1.38,2.05l1.55,2.49h-1.36l-1.41-2.3Z"/><polygon class="cls-1" points="165.03 176.98 166.17 176.98 166.17 180.12 168.69 176.98 170.12 176.98 167.84 179.83 170.34 183.73 168.96 183.73 167.05 180.8 166.17 181.87 166.17 183.73 165.03 183.73 165.03 176.98"/><polygon class="cls-1" points="172.39 176.98 177.14 176.98 177.14 178.02 173.54 178.02 173.54 179.76 176.98 179.76 176.98 180.81 173.54 180.81 173.54 182.69 177.14 182.69 177.14 183.73 172.39 183.73 172.39 176.98"/><path class="cls-1" d="M180.78,178.02v2.36h1.28c.96,0,1.57-.32,1.57-1.18,0-.82-.6-1.17-1.57-1.17h-1.28ZM182.18,181.43h-1.4v2.3h-1.14v-6.75h2.57c1.57,0,2.57.8,2.57,2.2,0,1-.51,1.72-1.38,2.05l1.55,2.49h-1.36l-1.41-2.3Z"/><polygon class="cls-1" points="5.87 164.28 0 164.28 0 135.3 5.87 135.3 5.87 150.43 11.49 144.02 18.89 144.02 11.41 152.37 19.22 164.28 12.07 164.28 7.23 156.59 5.87 158.08 5.87 164.28"/><path class="cls-1" d="M26.99,157.95c0,.52.23.96.7,1.3.47.34,1.08.52,1.82.52,1.32,0,2.54-.41,3.64-1.24v-2.31c-1.05-.25-1.96-.37-2.73-.37-1.07,0-1.92.18-2.52.55-.61.38-.91.89-.91,1.55M28.11,164.73c-2.12,0-3.83-.6-5.1-1.78-1.28-1.18-1.92-2.73-1.92-4.63,0-2.1.77-3.7,2.31-4.84,1.54-1.13,3.44-1.69,5.7-1.69,1.32,0,2.67.19,4.05.58v-.33c0-.99-.3-1.79-.91-2.4-.6-.6-1.43-.91-2.48-.91-1.87,0-3.32.79-4.34,2.35l-3.72-3.55c2.23-2.67,5.06-4.01,8.48-4.01,2.53,0,4.66.73,6.37,2.19,1.68,1.44,2.52,3.4,2.52,5.91v12.65h-5.83v-1.32c-1.35,1.18-3.06,1.78-5.12,1.78"/><path class="cls-1" d="M45.71,163.66c-.66-.69-.99-1.53-.99-2.52s.33-1.83.99-2.52c.69-.69,1.53-1.03,2.52-1.03s1.83.34,2.52,1.03c.72.69,1.07,1.53,1.07,2.52s-.36,1.83-1.07,2.52c-.69.69-1.53,1.03-2.52,1.03s-1.83-.34-2.52-1.03M45.71,149.81c-.66-.69-.99-1.53-.99-2.52s.33-1.83.99-2.52c.69-.69,1.53-1.03,2.52-1.03s1.83.34,2.52,1.03c.72.69,1.07,1.53,1.07,2.52s-.36,1.83-1.07,2.52c-.69.69-1.53,1.03-2.52,1.03s-1.83-.34-2.52-1.03"/><path class="cls-1" d="M66.38,157.21l-2.69-.66c-4.41-1.1-6.61-3.31-6.61-6.61,0-1.93.76-3.47,2.27-4.63,1.52-1.18,3.38-1.77,5.58-1.77,3.06,0,5.77,1.06,8.14,3.18l-3.59,3.8c-1.63-1.32-3.23-1.98-4.8-1.98-.58,0-1.04.12-1.38.35-.34.24-.52.52-.52.85,0,.49.48.85,1.45,1.08l3.02.7c4.44,1.05,6.66,3.28,6.66,6.7,0,1.93-.77,3.5-2.31,4.71-1.54,1.22-3.6,1.82-6.16,1.82-1.82,0-3.53-.38-5.15-1.12-1.61-.74-2.86-1.68-3.74-2.81l3.6-3.68c1.84,1.79,3.77,2.69,5.78,2.69.61,0,1.14-.12,1.59-.38.45-.25.68-.56.68-.95,0-.55-.61-.98-1.82-1.28"/><path class="cls-1" d="M86.59,148.7c-1.02,0-1.87.27-2.54.82-.67.55-1.11,1.28-1.3,2.19h7.27c-.05-.85-.4-1.57-1.03-2.15-.63-.58-1.43-.87-2.4-.87M96.22,153.9l-.04,1.74h-13.72c.17,1.1.66,2,1.47,2.69s1.84,1.03,3.08,1.03c2.07,0,3.72-.78,4.96-2.35l3.88,3.63c-2.18,2.73-5.07,4.1-8.68,4.1-3.06,0-5.61-.95-7.65-2.85-2.01-1.93-3.02-4.46-3.02-7.61s.92-5.67,2.77-7.69c1.87-2.04,4.27-3.05,7.19-3.05,3.09,0,5.48,1.03,7.19,3.1,1.71,2.1,2.56,4.52,2.56,7.27"/><path class="cls-1" d="M106.14,154.15v10.13h-5.87v-20.25h5.78v1.4c1.3-1.27,2.9-1.9,4.8-1.9,2.53,0,4.55.79,6.03,2.38,1.49,1.58,2.23,3.78,2.23,6.59v11.78h-5.91v-11.33c0-1.21-.28-2.17-.85-2.89-.56-.72-1.4-1.08-2.5-1.08-2.48,0-3.72,1.73-3.72,5.17"/><rect class="cls-1" x="137.27" y="135.3" width="3.06" height="28.97"/><path class="cls-1" d="M150.74,164.28h-3.06v-20.25h3.06v20.25ZM147.56,138.77c-.44-.47-.66-1.02-.66-1.65s.22-1.17.66-1.61c.47-.44,1.02-.66,1.65-.66s1.17.22,1.61.66c.47.44.7.98.7,1.61s-.23,1.18-.7,1.65c-.44.44-.98.66-1.61.66s-1.19-.22-1.65-.66"/><path class="cls-1" d="M158.14,144.02h2.98v2.48c.69-.88,1.62-1.6,2.79-2.15,1.17-.55,2.38-.82,3.62-.82,2.59,0,4.58.77,5.97,2.33,1.39,1.56,2.09,3.77,2.09,6.63v11.78h-3.1v-12.03c0-1.88-.45-3.32-1.37-4.34-.91-1.02-2.18-1.53-3.8-1.53-1.96,0-3.47.7-4.53,2.09-1.06,1.39-1.59,3.32-1.59,5.77v10.04h-3.06v-20.25Z"/><path class="cls-1" d="M198.73,164.28h-2.94v-2.56c-1.57,2.02-3.71,3.02-6.41,3.02-5.07,0-7.61-2.98-7.61-8.93v-11.78h3.06v11.9c0,3.94,1.65,5.91,4.96,5.91,1.93,0,3.39-.67,4.38-2,.99-1.34,1.49-3.26,1.49-5.77v-10.04h3.06v20.25Z"/><polygon class="cls-1" points="217.66 144.02 212.62 151.59 207.62 144.02 203.94 144.02 210.71 153.86 203.44 164.28 207.12 164.28 212.62 156.09 218.16 164.28 221.83 164.28 214.56 153.86 221.34 144.02 217.66 144.02"/></svg>